<?xml version="1.0" encoding="utf-8"?>
<!-- Generator: Adobe Illustrator 24.2.3, SVG Export Plug-In . SVG Version: 6.00 Build 0)  -->
<svg version="1.1" id="Layer_1" xmlns="http://www.w3.org/2000/svg" xmlns:xlink="http://www.w3.org/1999/xlink" x="0px" y="0px"
	 viewBox="0 0 292 222.3" style="enable-background:new 0 0 292 222.3;" xml:space="preserve">
<style type="text/css">
	.st0{fill:#4F4F4F;}
	.st1{fill:#D3D8DC;}
	.st2{fill:#FFFFFF;}
	.st3{fill:#D8D8D8;}
	.st4{fill:#8E9298;}
	.st5{fill:#926347;}
	.st6{opacity:0.38;}
	.st7{fill:#2B466D;}
	.st8{opacity:0.49;}
	.st9{fill:#2D1F1C;}
	.st10{fill:#AFB3BC;}
</style>
<g id="_03." transform="translate(0 0.002)">
	<g id="Grupo_329" transform="translate(39.794 -0.002)">
		<path id="Caminho_369" class="st0" d="M238.09,120.76l12.65-70.51c0,0,1.91-13.15-14.58-16.49S28.45,0.29,28.45,0.29
			S16.02-3.29,13.87,14.63S0,109.77,0,109.77l6.21,50.92l164.93,33.71l53.96-51.22L238.09,120.76z"/>
	</g>
	<g id="Grupo_330" transform="translate(47.514 3.995)">
		<path id="Caminho_370" class="st1" d="M2.33,78.03l9.68-70.1c0,0-1.61-10.04,13.09-7.53s200.61,32.99,200.61,32.99
			s11.12-0.9,8.97,12.73S210.3,176.75,210.3,176.75L0,137v-29.22L2.33,78.03z"/>
	</g>
	<g id="Grupo_331" transform="translate(53.666 20.121)">
		<path id="Caminho_371" class="st2" d="M17.68,0L0,123.1l142.7,28.21l46.61,9.32l26.06-127.41L17.68,0z"/>
	</g>
	<g id="Grupo_332" transform="translate(160.253 107.265)">
		<path id="Caminho_372" class="st3" d="M58.02,42.92L1.94,33.57L6.44,0l56.08,9.35L58.02,42.92z"/>
		<path id="Caminho_373" class="st3" d="M34.98,45.06l-33.65-5.6l0.31-2.13l33.77,5.62L34.98,45.06z"/>
		<path id="Caminho_374" class="st3" d="M34.15,49.45L0.5,43.85l0.31-2.13l33.77,5.62L34.15,49.45z"/>
		<path id="Caminho_375" class="st3" d="M33.66,54.1L0,48.51l0.31-2.13l33.78,5.62L33.66,54.1z"/>
	</g>
	<g id="Grupo_333" transform="translate(174.662 48.985)">
		<path id="Caminho_376" class="st3" d="M58.02,42.92L1.94,33.57L6.44,0l56.08,9.35L58.02,42.92z"/>
		<path id="Caminho_377" class="st3" d="M34.98,45.06L1.33,39.47l0.3-2.14l33.78,5.61L34.98,45.06z"/>
		<path id="Caminho_378" class="st3" d="M34.15,49.45L0.5,43.86l0.3-2.14l33.78,5.61L34.15,49.45z"/>
		<path id="Caminho_379" class="st3" d="M33.65,54.1L0,48.51l0.31-2.14l33.77,5.61L33.65,54.1z"/>
	</g>
	<g id="Grupo_334" transform="translate(222.774 73.603)">
		<path id="Caminho_380" class="st2" d="M0,8.58c0-1.49,0.29-2.96,0.86-4.34c0.43-1.36,1.28-2.55,2.43-3.4
			C4.04,0.33,4.92,0.04,5.82,0c1.38-0.11,2.74,0.44,3.64,1.49c0.57,0.78,0.84,1.73,0.76,2.69c-0.16,1.43-0.31,2.85-0.48,4.27
			c-0.2,1.52-1.08,2.87-2.4,3.65c-1.4,0.65-3.01,0.64-4.4-0.02c-0.88-0.29-1.66-0.83-2.23-1.57C0.34,9.93,0.09,9.27,0,8.58z"/>
	</g>
	<g id="Grupo_335" transform="translate(186.328 117.511)">
		<path id="Caminho_381" class="st2" d="M6.77,13.86c1.57-0.1,3.01-0.86,3.97-2.1c0.81-1.42,0.97-3.12,0.45-4.67
			c-0.7-3.34-3.21-6-6.5-6.9C3.46-0.08,2.18-0.06,0.96,0.25C0.72,0.36,0.51,0.51,0.34,0.71C-0.79,2.15,1.06,5.37,2.61,8
			C3.82,10.08,5.21,12.04,6.77,13.86z"/>
	</g>
	<g id="Grupo_336" transform="translate(51.389 158.707)">
		<path id="Caminho_382" class="st4" d="M2.28,0l148.79,30.17l6.67,3.68l-1.09,1.22L0,3.06L2.28,0z"/>
	</g>
	<g id="Grupo_337" transform="translate(187.287 77.968)">
		<path id="Caminho_383" class="st5" d="M22.7,138.63c-0.66-3.31-1.93-6.47-3.73-9.32c-2.72-3.82-6.55-17.21-8.21-26.53
			c-1.4-7.36-1.92-14.86-1.56-22.35c0.18-5.24-0.42-10.48-1.79-15.54C6.81,63.22,5.55,53,5.55,53s6.4-1.13,2.93-7.35
			S0,39.79,0,39.79s5.38-3.72,9.8,0s10.64,11.36,11.47,16.62s0.96,9.2,2.87,12.07c0,0,8.12-46.01,8.12-49.84
			c0.28-4.76,1-9.48,2.15-14.1c0.45-1.36,1.01-2.67,1.67-3.94c0,0-1.2,5.97,3.88,6.4s5.74-6.99,5.74-6.99s-0.6,19.54-0.72,26.83
			s0.3,16.67,0.3,16.67s-0.66,6.33,3.46,5.97s6.51-9.38,7.77-12.55s2.33-8.01,3.17-9.68s3.94-6.75,9.92-4.25
			c5.98,2.5,4.3,11.3,2.39,18.58s-1.49,6.94-1.49,6.94s4.3-13.45,9.68-13.18s12.46,3.59,11.65,9.41s-7.8,20.35-8.34,22.23
			c-0.27,1.55-0.2,3.14,0.21,4.67c0,0,4.36-3.88,4.9-5.08c-0.78-0.47-1.45-1.1-1.97-1.85c-0.71-1.13,0.24-6.4,3.71-9.27
			s6.82-4.36,9.62-2.81s4.55,3.4,4.67,6.87s0.36,6.99-2.69,12.42s-22.64,52.41-27.13,57.25L22.7,138.63z"/>
	</g>
	<g id="Grupo_338" transform="translate(255.071 116.678)" class="st6">
		<path id="Caminho_384" class="st0" d="M8.04,0.02C8.02,3.22,7.43,6.4,6.31,9.4c-1.56,3.83-3.36,7.56-5.38,11.18
			c-0.42,0.42-1.61-0.3-0.42-2.52S6.38,4.91,6.68,2.29S8.04,0.02,8.04,0.02z"/>
	</g>
	<g id="Grupo_339" transform="translate(274.164 134.623)" class="st6">
		<path id="Caminho_385" class="st0" d="M0.42,4.47c0,0,3.46-3.11,5.08-4.25S5.27,2.61,4.02,3.86C2.72,5.34,1.53,6.9,0.42,8.53
			C-0.16,7.24-0.16,5.76,0.42,4.47z"/>
	</g>
	<g id="Grupo_340" transform="translate(206.251 202.858)">
		<path id="Caminho_386" class="st7" d="M0,11.75l2.24,7.69h65.17c0,0-2.79-12.36-3.49-12.71s-1.88-1.43-2.96-0.9l-1.79-5.11
			c0,0-17.58-2.42-30.83,1.61S12.29,8.61,12.29,8.61C11.06,7.77,9.46,7.7,8.16,8.43C5.65,9.59,0,11.75,0,11.75z"/>
	</g>
	<g id="Grupo_341" transform="translate(41.885 78.485)">
		<path id="Caminho_387" class="st2" d="M0,9.94c0,0,1.42-11.04,4.84-9.85s4.64,2.15,5.41,3.79s2.19,4.75-0.72,9.63
			c-1.08,1.67-4.09,1.83-5.08,1.52s-3.81-1.99-4.12-3.62S0,9.94,0,9.94z"/>
	</g>
	<g id="Grupo_342" transform="translate(7.607 78.542)">
		<path id="Caminho_388" class="st5" d="M29.44,26.67c-2.84,1.51-6.31,3.49-10.16,5.97c-4.05,2.61-3.91,2.83-6.33,4.18
			c-6.22,3.48-8.3,2.77-10.52,5.62c-1.47,2.07-2.3,4.52-2.39,7.05c-0.09,1.98,0.15,3.96,0.72,5.86c0.92,3.82,0.99,5.44,2.64,11
			c1.16,3.9,2.05,9.94,0.72,19.12c7.11,8.31,19.05,19.44,36.58,24.98c2.82,0.89,5.7,1.61,8.61,2.15c1.77-2.5,3.25-5.18,4.42-8.01
			c2.05-4.95,4.06-9.83,2.64-15.06c-1.98-7.22-9.3-10.55-10.88-11.24c0.3-2.78,0.42-5.57,0.36-8.36c-0.15-7.17-1.4-11.21-2.75-20.08
			c-0.43-2.85-0.99-6.99-1.43-12.07c2.46-8.08,4.37-14.01,5.62-17.81c1.34-4.07,2.41-7.24,1.56-11.24
			c-0.31-1.45-1.23-5.78-5.02-7.77c-1.44-0.73-3.05-1.06-4.67-0.96c1.67,0.28,3.2,1.1,4.36,2.33c1.43,1.65,2.14,3.8,1.97,5.97
			c-0.04,1.36-0.15,4.21-2.45,5.79c-1.55,1.04-3.52,1.25-5.26,0.54c-1.95-0.83-3.28-2.67-3.46-4.79c-1.19,2.96-2.06,5.5-2.69,7.47
			c-0.65,1.98-1.19,4-1.61,6.04C29.71,24.72,29.54,25.86,29.44,26.67z"/>
	</g>
	<g id="Grupo_343" transform="translate(21.688 111.638)" class="st8">
		<path id="Caminho_389" class="st9" d="M13.18,0.33c1.25,1.49-5.84,6-6.45,13.89c-0.12,1.55-0.04,3.82-1.08,4.21
			c-0.85,0.32-2.23-0.73-2.96-1.61c-0.38-0.49-0.69-1.03-0.9-1.61C0.54,12.25-0.09,10.77,0,10.19C0.17,9.15,1,8.3,2.69,6.6
			c0.92-0.93,1.02-0.85,2.42-2.15c2.31-2.13,2.33-2.56,3.4-3.23C9.95,0.34,12.49-0.48,13.18,0.33z"/>
	</g>
	<g id="Grupo_344" transform="translate(0 158.998)">
		<path id="Caminho_390" class="st7" d="M12.31,0c0,0,33.34,15.18,48.28,31.67c10.04,10.27,12.55,15.06,12.55,15.06
			s-5.02,8.73-8.36,10.52l-2.64,6.05H0V15.19L12.31,0z"/>
	</g>
	<g id="Grupo_345" transform="translate(186.309 20.121)">
		<path id="Caminho_391" class="st10" d="M0,0"/>
	</g>
	<g id="Grupo_346" transform="translate(84.681 32.313)">
		<path id="Caminho_392" class="st3" d="M58.02,42.92L1.93,33.57L6.44,0l56.08,9.35L58.02,42.92z"/>
		<path id="Caminho_393" class="st3" d="M34.98,45.06L1.33,39.47l0.3-2.14l33.78,5.61L34.98,45.06z"/>
		<path id="Caminho_394" class="st3" d="M34.15,49.46L0.5,43.87l0.3-2.14l33.78,5.61L34.15,49.46z"/>
		<path id="Caminho_395" class="st3" d="M33.65,54.1L0,48.51l0.3-2.14l33.78,5.61L33.65,54.1z"/>
	</g>
	<g id="Grupo_347" transform="translate(75.251 90.593)">
		<path id="Caminho_396" class="st3" d="M58.01,42.91L1.93,33.57L6.44,0l56.08,9.34L58.01,42.91z"/>
		<path id="Caminho_397" class="st3" d="M34.98,45.06l-33.65-5.6l0.3-2.13l33.78,5.62L34.98,45.06z"/>
		<path id="Caminho_398" class="st3" d="M34.15,49.45l-33.66-5.6l0.31-2.13l33.78,5.62L34.15,49.45z"/>
		<path id="Caminho_399" class="st3" d="M33.65,54.1L0,48.5l0.3-2.13l33.78,5.62L33.65,54.1z"/>
	</g>
</g>
</svg>
