<?xml version="1.0" encoding="utf-8"?>
<!-- Generator: Adobe Illustrator 24.2.3, SVG Export Plug-In . SVG Version: 6.00 Build 0)  -->
<svg version="1.1" id="Layer_1" xmlns="http://www.w3.org/2000/svg" xmlns:xlink="http://www.w3.org/1999/xlink" x="0px" y="0px"
	 viewBox="0 0 674 614" style="enable-background:new 0 0 674 614;" xml:space="preserve">
<style type="text/css">
	.st0{fill:#C18776;}
	.st1{fill:#FFFFFF;}
	.st2{fill:#243058;}
	.st3{fill:#FFCA30;}
	.st4{fill:#185DC2;}
	.st5{fill:#FEC62B;}
	.st6{fill:#E8E0C8;}
	.st7{fill:#FEFDF8;}
	.st8{fill:#FFC526;}
	.st9{fill:#373632;}
	.st10{fill:#2B546D;}
	.st11{fill:#D3CDDB;}
	.st12{fill:#CFDBE9;}
	.st13{fill:#E2E7EA;}
	.st14{fill:#AFAFAF;}
	.st15{fill:#F9C511;}
	.st16{fill:#F2DBF8;}
</style>
<g id="Illustration_4" transform="translate(-119.574 -88.133)">
	<g id="Grupo_38" transform="translate(119.574 88.133)">
		<g id="Grupo_37" transform="translate(312.506 203.288)">
			<g id="Grupo_10" transform="translate(3.352 32.068)">
				<g id="Grupo_9">
					<path id="Caminho_33" class="st0" d="M-37.12,19.25c-2.64-1.37-5.17-2.93-7.57-4.68c-4.33-3.14-8.04-7.05-10.94-11.54
						c-1.42-2.25-2.47-4.45-1.67-6.35c0.29-0.66,0.76-1.23,1.35-1.64c2.28-1.62,5.73-0.27,8.28,0.72c2.69,1.06,5.19,2.58,7.37,4.48
						L-37.12,19.25z"/>
				</g>
			</g>
			<g id="Grupo_12" transform="translate(26.804 4.827)">
				<g id="Grupo_11">
					<path id="Caminho_34" class="st0" d="M-44.06-0.24c-1.84-1.44-3.77-2.77-5.77-3.98c-1.13-0.78-2.42-1.27-3.78-1.44
						c-0.85-0.07-2.37-0.21-3.29,0.75c-1.01,1.06-0.65,2.81-0.45,3.79c0.3,1.39,0.99,2.67,1.98,3.69
						C-51.59,1.62-47.82,0.7-44.06-0.24z"/>
				</g>
			</g>
			<g id="Grupo_14" transform="translate(0 53.844)">
				<g id="Grupo_13">
					<path id="Caminho_35" class="st0" d="M-32.18,3.45c-3.26-2.52-6.8-4.65-10.55-6.37c-2.54-1.05-5.17-1.85-7.87-2.38
						c-2.67-0.57-3.91-0.6-4.98,0.1c-1.18,0.91-1.9,2.3-1.98,3.79c-0.26,2.76,1.52,5,2.49,6.17C-51.43,9-47.28,12.78-42.72,16
						c2.74,1.89,7.51,5.16,14.23,9.85C-29.73,18.38-30.96,10.92-32.18,3.45z"/>
				</g>
			</g>
			<g id="Grupo_16" transform="translate(6.314 114.088)">
				<g id="Grupo_15">
					<path id="Caminho_36" class="st0" d="M-25.78,8.79c-10.25,0.56-20.44-1.88-29.33-7.02c-1.51-0.67-2.47-2.17-2.47-3.81
						c0.11-1.06,0.65-2.03,1.49-2.69c1.32-0.87,2.93-1.19,4.48-0.89c4.85,0.54,9.77,0.16,14.63,0.6c3.55,0.32,7.11,0.44,10.67,0.37
						C-26.12-0.17-25.95,4.31-25.78,8.79z"/>
				</g>
			</g>
			<g id="Grupo_18" transform="translate(15.995 5.644)">
				<g id="Grupo_17">
					<path id="Caminho_37" class="st1" d="M-57.34,13.34c8.96,45.79,17.92,91.57,26.88,137.35c0.01,0.31,0.33,5.15,4.48,7.47
						c2.01,1.07,4.36,1.34,6.56,0.75c20.56-3.93,41.11-7.86,61.65-11.79C24.03,96.17,5.83,45.22-12.37-5.72
						c-11.99,2.32-23.99,4.64-35.99,6.96c-5.4,0.3-9.54,4.93-9.23,10.34C-57.56,12.17-57.48,12.76-57.34,13.34L-57.34,13.34z"/>
				</g>
			</g>
			<g id="Grupo_20" transform="translate(18.155)">
				<g id="Grupo_19">
					<path id="Caminho_38" class="st2" d="M-57.4,14.93l28.07,141.53c0,0,0.1,6.36,9.06,4.78s57.03-10.65,57.03-10.65l5.57-53.74
						L23.06-0.04c0,0-1.71-7.39-11.27-5.3S-51.04,6.98-51.04,6.98S-58.87,7.5-57.4,14.93z"/>
				</g>
			</g>
			<g id="Grupo_22" transform="translate(21.013 2.64)">
				<g id="Grupo_21">
					<path id="Caminho_39" class="st1" d="M-57.48,12.7l17.32,88.57c0,0,0.57,7.17,11.14,4.98c12.42-2.58,60.52-11.74,60.52-11.74
						s5.34-1.89,3.09-11.14c-2.76-11.3-16.61-84.4-16.61-84.4s-0.1-6.07-8.46-4.38S-51.6,6.42-51.6,6.42S-58.51,7.38-57.48,12.7z"/>
				</g>
			</g>
			<g id="Grupo_24" transform="translate(36.471 33.443)">
				<g id="Grupo_23">
					<circle id="Elipse_2" class="st3" cx="-25.26" cy="26.61" r="32.32"/>
				</g>
			</g>
			<g id="Grupo_26" transform="translate(52.376 50.624)">
				<g id="Grupo_25">
					<path id="Caminho_40" class="st1" d="M-57.58,16.26l11.61,8.29l21.24-29.19l-2-1.08L-46.3,20.91l-9.71-6.63L-57.58,16.26z"/>
				</g>
			</g>
			<g id="Grupo_28" transform="translate(59.002 113.414)">
				<g id="Grupo_27">
					<path id="Caminho_41" class="st4" d="M-18.28,5.1l-32.85,6.17c-2.96,0.56-5.81-1.39-6.36-4.35c0,0,0,0,0-0.01l0,0
						c-0.56-2.96,1.39-5.81,4.35-6.36c0,0,0,0,0.01,0l32.85-6.17c2.96-0.56,5.81,1.39,6.36,4.35c0,0,0,0,0,0.01l0,0
						C-13.38,1.69-15.33,4.53-18.28,5.1z"/>
				</g>
			</g>
			<g id="Grupo_30" transform="translate(69.927 119.053)">
				<g id="Grupo_29">
					<path id="Caminho_42" class="st1" d="M-56.92,0.04c-0.32,0-0.6-0.22-0.65-0.54c-0.08-0.36,0.15-0.72,0.52-0.79
						c0,0,0.01,0,0.01,0l21.19-4.41c0.36-0.07,0.72,0.16,0.79,0.52c0.08,0.36-0.15,0.72-0.52,0.79c0,0-0.01,0-0.01,0l-21.19,4.41
						C-56.84,0.02-56.88,0.04-56.92,0.04z"/>
				</g>
			</g>
			<g id="Grupo_32" transform="translate(64.045 130.039)">
				<g id="Grupo_31">
					<path id="Caminho_43" class="st1" d="M-56.92,3.1c-0.32,0-0.59-0.23-0.65-0.54c-0.07-0.36,0.16-0.72,0.52-0.79l38.02-7.47
						c0.37-0.06,0.71,0.19,0.78,0.55c0.06,0.35-0.16,0.68-0.51,0.77l-38.02,7.47C-56.82,3.1-56.87,3.1-56.92,3.1z"/>
				</g>
			</g>
			<g id="Grupo_34" transform="translate(74.209 137.013)">
				<g id="Grupo_33">
					<path id="Caminho_44" class="st1" d="M-56.92-0.39c-0.37,0-0.67-0.3-0.67-0.68c0-0.32,0.23-0.59,0.54-0.66l19.8-3.98
						c0.37-0.06,0.71,0.19,0.78,0.55c0.06,0.35-0.16,0.68-0.51,0.77l-19.8,3.98C-56.82-0.39-56.87-0.39-56.92-0.39z"/>
				</g>
			</g>
			<g id="Grupo_36" transform="translate(77.696 49.102)">
				<g id="Grupo_35">
					<path id="Caminho_45" class="st0" d="M-55.53-5.71h30.45c0,0,2.18-0.3,5.97,3.39s31.46,27.18,31.46,27.18s3.73,1.84,4.18,15.28
						s2.99,41.05,2.99,41.05c2.39,3.89,5.09,7.58,8.07,11.04c4.48,5.08,66.58,67.18,66.58,67.18s-3.13,15.52-23.59,24.04
						s-29.85,17.17-29.85,17.17l-54.19-70.17c0,0-4.03-5.53-17.76-9.1s-20.3-8.07-21.94-11.34l29.42-5.97c0,0-5.97-20-0.89-37.62
						s7.77-20.6,8.51-23.14c0.74-2.54,1.35-8.09-5.37-17.18s-7.91-13.07-7.91-13.07s-13.34-2.18-22.1-9.26S-57.53-5.71-55.53-5.71z"
						/>
				</g>
			</g>
		</g>
	</g>
	<g id="Grupo_87" transform="translate(212.962 114.45)">
		<g id="Grupo_40" transform="translate(0 0)">
			<g id="Grupo_39">
				<path id="Caminho_46" class="st2" d="M-54.28,58.3c2.25-8.63,6.62-24.6,20.31-39.04C-25.5,10.55-15.2,3.83-3.82-0.42
					c22.51-8.48,42.19-4.69,51.1-2.85c32.68,6.45,59.76,29.22,71.73,60.3c3.86,9.7,9.14,23.02,6.66,39.99
					c-2.86,19.58-14.32,32.11-24.44,43.17c-6.08,6.65-19.41,20.88-41.89,29.2c-7.63,2.82-19.8,7.19-35.86,6.02
					c-21.66-1.55-36.52-12.12-43.8-17.45c-6.38-4.68-24.82-18.54-33-43.48c-4.81-14.64-4.38-27.9-4.13-34.28
					C-57.17,72.82-56.11,65.47-54.28,58.3z"/>
			</g>
		</g>
		<g id="Grupo_42" transform="translate(27.88 26.344)">
			<g id="Grupo_41">
				<path id="Caminho_47" class="st5" d="M3.36,113.39c-14.5,0-27.26-3.84-34.5-7.39c-5.4-2.55-10.23-6.16-14.22-10.6
					c-4.75-5.66-7.92-12.49-9.17-19.77c-4.37-13.62-4.02-28.31,0.98-41.71l0,0c1.56-4.1,10.48-25.02,32.9-34.82
					C-13.9-3.86-6.63-5.49,0.74-5.7C16.39-6,27.7,0.68,31.97,3.17C49.96,13.75,62.83,33.41,65.55,54.5
					c0.67,5.15,1.67,12.91-1.45,22.14c-4.79,14.15-16,21.66-21.39,25.26C29.92,110.47,15.98,113.39,3.36,113.39z M-52.55,34.3
					c-4.92,13.2-5.25,27.66-0.94,41.07c1.21,7.12,4.3,13.8,8.94,19.34c3.89,4.34,8.61,7.85,13.88,10.33
					c13.35,6.54,45.75,14.09,72.78-4.01c5.29-3.54,16.3-10.91,20.98-24.72c3.05-8.99,2.06-16.61,1.4-21.66
					C61.82,33.88,49.14,14.5,31.44,4.09c-4.2-2.47-15.38-9.03-30.66-8.73c-7.23,0.2-14.36,1.81-20.98,4.72
					C-42.26,9.71-51.02,30.28-52.55,34.3L-52.55,34.3z"/>
			</g>
		</g>
		<g id="Grupo_44" transform="translate(91.334 16.175)">
			<g id="Grupo_43">
				<path id="Caminho_48" class="st6" d="M-52.95,33.25c2.54-7.19,5.07-14.38,7.61-21.58c-1.33-0.57-2.36-1.66-2.86-3.02
					c-0.3-1.05-0.24-2.16,0.16-3.18c1.46-4.3,8.05-7,9-7.39c6.22-2.44,12.84-3.73,19.52-3.81c5.98,0.07,17.79,0.2,29.71,8.01
					c6.17,4.07,11.34,9.46,15.15,15.79c0.89,2.15,0.66,4.6-0.6,6.55c-1.51,2.12-4.1,3.19-6.66,2.74
					c-5.6,17.35-11.19,34.7-16.78,52.05c-1.07,1.1-2.46,1.82-3.97,2.07c-2.78,0.35-5.1-1.46-5.71-1.9
					c-2.83-2.07-10.9-5.49-31.9-11.43c-10.79-4.45-17.65-13.68-17.29-23.01C-57.31,40.81-55.69,36.65-52.95,33.25z"/>
			</g>
		</g>
		<g id="Grupo_46" transform="translate(9.232 30.148)">
			<g id="Grupo_45">
				<path id="Caminho_49" class="st7" d="M35.59,42.69c0.6-4.45,1.39-15.25-4.76-25.94c-1.79-3.1-4.83-8.39-10.94-11.91
					C13.39,1.11,10.57,3.5-2.49,0.55c-9.24-2.08-9.14-3.57-17.62-5C-27.67-5.72-32.9-6.6-38.92-4.2
					c-1.39,0.55-9.26,3.69-12.38,11.18c-1.84,4.45-0.09,5.74,0.24,21.42c0.14,6.71,0.18,10.14-0.71,13.32
					c-1.69,6.02-4.08,6.98-5.23,12.86c-0.98,4.11-0.73,8.41,0.71,12.38c3.35,8.45,12.02,11.58,13.57,12.13
					c4.13,1.49,8.01,1.56,14.05,1.67c2.54,0.05,5.08-0.03,7.61-0.24c-1.39,8.68-0.06,17.58,3.81,25.47
					c2.17,4.28,7.34,14.54,18.09,17.38c2.51,0.65,8.99,2.37,14.52-0.71c3.01-1.67,3.64-3.59,6.66-4.04
					c3.39-0.52,4.28,1.62,9.75,2.38c2.86,0.45,5.78,0.29,8.56-0.48c2.75-0.79,3.63-1.8,6.66-3.57c7.33-4.28,9.4-2.64,13.1-5.71
					c4.68-3.88,5.51-9.95,5.71-11.43c0.98-7.12-2.34-12.63-4.76-16.66c-1.94-3.2-4.34-6.09-7.14-8.58
					c0.83-4.85,0.51-9.82-0.95-14.52c-1.32-5.01-4.14-9.5-8.09-12.86C42.15,45.03,38.98,43.48,35.59,42.69z"/>
			</g>
		</g>
		<g id="Grupo_48" transform="translate(40.114 60.95)">
			<g id="Grupo_47">
				<path id="Caminho_50" class="st8" d="M-57.19,10.21c2.01-9.82,11.43-13.89,12.38-14.27c4.37-1.89,9.27-2.15,13.81-0.71
					c4.63,1.48,8.48,4.73,10.72,9.04c2.49,5.16,1.47,9.99,0.71,13.57c-0.82,3.9-1.88,8.9-6.2,12.13c-6.15,4.64-14.29,2.21-16.9,1.43
					c-2.4-0.71-10.29-3.06-13.57-10.72C-57.62,17.37-57.95,13.72-57.19,10.21z"/>
			</g>
		</g>
		<g id="Grupo_50" transform="translate(76.204 105.049)">
			<g id="Grupo_49">
				<path id="Caminho_51" class="st8" d="M-57.34,9.19c1.35-7.16,7.58-10.67,9.75-11.91c1.7-0.96,8.24-4.65,15.95-2.14
					C-31.11-4.69-21.38-1.34-19.5,8c1.45,7.22-2.83,12.84-4.28,14.76c-1.32,1.73-5.61,7.39-13.1,8.09
					c-9.14,0.88-15.21-6.39-16.19-7.61C-54.26,21.72-58.66,16.24-57.34,9.19z"/>
			</g>
		</g>
		<g id="Grupo_52" transform="translate(135.49 37.127)">
			<g id="Grupo_51">
				<circle id="Elipse_3" class="st9" cx="-57.2" cy="-5.33" r="0.38"/>
			</g>
		</g>
		<g id="Grupo_54" transform="translate(114.212 38.417)">
			<g id="Grupo_53">
				<circle id="Elipse_4" class="st9" cx="-57.2" cy="-5.33" r="0.38"/>
			</g>
		</g>
		<g id="Grupo_56" transform="translate(153.068 31.358)">
			<g id="Grupo_55">
				<circle id="Elipse_5" class="st9" cx="-57.2" cy="-5.33" r="0.38"/>
			</g>
		</g>
		<g id="Grupo_58" transform="translate(104.275 58.136)">
			<g id="Grupo_57">
				<circle id="Elipse_6" class="st9" cx="-57.2" cy="-5.33" r="0.38"/>
			</g>
		</g>
		<g id="Grupo_60" transform="translate(132.031 80.18)">
			<g id="Grupo_59">
				<circle id="Elipse_7" class="st9" cx="-57.2" cy="-5.33" r="0.38"/>
			</g>
		</g>
		<g id="Grupo_62" transform="translate(144.591 95.234)">
			<g id="Grupo_61">
				<circle id="Elipse_8" class="st9" cx="-57.2" cy="-5.33" r="0.38"/>
			</g>
		</g>
		<g id="Grupo_64" transform="translate(115.729 51.176)">
			<g id="Grupo_63">
				<circle id="Elipse_9" class="st9" cx="-57.2" cy="-5.33" r="0.38"/>
			</g>
		</g>
		<g id="Grupo_66" transform="translate(149.213 48.652)">
			<g id="Grupo_65">
				<circle id="Elipse_10" class="st9" cx="-57.2" cy="-5.33" r="0.38"/>
			</g>
		</g>
		<g id="Grupo_68" transform="translate(130.699 61.708)">
			<g id="Grupo_67">
				<circle id="Elipse_11" class="st9" cx="-57.2" cy="-5.33" r="0.38"/>
			</g>
		</g>
		<g id="Grupo_70" transform="translate(144.591 59.809)">
			<g id="Grupo_69">
				<circle id="Elipse_12" class="st9" cx="-57.2" cy="-5.33" r="0.38"/>
			</g>
		</g>
		<g id="Grupo_72" transform="translate(149.595 75.005)">
			<g id="Grupo_71">
				<circle id="Elipse_13" class="st9" cx="-57.2" cy="-5.33" r="0.38"/>
			</g>
		</g>
		<g id="Grupo_74" transform="translate(114.212 74.623)">
			<g id="Grupo_73">
				<circle id="Elipse_14" class="st9" cx="-57.2" cy="-5.33" r="0.38"/>
			</g>
		</g>
		<g id="Grupo_76" transform="translate(118.763 26.113)">
			<g id="Grupo_75">
				<circle id="Elipse_15" class="st9" cx="-57.2" cy="-5.33" r="0.38"/>
			</g>
		</g>
		<g id="Grupo_78" transform="translate(106.572 25.73)">
			<g id="Grupo_77">
				<circle id="Elipse_16" class="st9" cx="-57.2" cy="-5.33" r="0.38"/>
			</g>
		</g>
		<g id="Grupo_80" transform="translate(162.155 42.84)">
			<g id="Grupo_79">
				<circle id="Elipse_17" class="st9" cx="-57.2" cy="-5.33" r="0.38"/>
			</g>
		</g>
		<g id="Grupo_82" transform="translate(139.36 26.495)">
			<g id="Grupo_81">
				<circle id="Elipse_18" class="st9" cx="-57.2" cy="-5.33" r="0.38"/>
			</g>
		</g>
		<g id="Grupo_84" transform="translate(209.035 26.838)">
			<g id="Grupo_83">
				<path id="Caminho_52" class="st2" d="M-57.58-5.28l1.19,129.36c0,0,0.35,3.45,4.28,1.79l-2.14-77.46c0,0,12.77-13.91,7.54-28.34
					S-56.99-5.26-56.99-5.26S-57.58-6.27-57.58-5.28z"/>
			</g>
		</g>
		<g id="Grupo_86" transform="translate(190.911 37.51)">
			<g id="Grupo_85">
				<path id="Caminho_53" class="st2" d="M-55.17-5.32v27.79h1.83V-5.72h2.23v28.58h1.67V-5.72h2.14v28.58h1.9V-5.72h1.74
					l1.43,30.39c0,0,0.4,6.11-3.64,9.29c-0.95,0.55-1.9,2.3-1.83,5.8s2.28,72.26,2.28,72.26s0.45,3.3-1.93,3.37
					c-0.7,0-1.8-0.14-2.27-2.74c-0.45-2.49-0.2-7.03-0.26-15.79C-49.97,79.02-50,38.43-50,38.43c-0.59-1.57-1.58-2.96-2.86-4.04
					c-2.07-1.67-5.08-4.52-4.68-13.01s1.04-26.74,1.04-26.74L-55.17-5.32z"/>
			</g>
		</g>
	</g>
	<g id="Grupo_88" transform="translate(377.173 661.279)">
		<path id="Caminho_54" class="st10" d="M94.23,40.46C41.5,40.48-10.32,26.81-56.18,0.8c-1.32-0.78-1.76-2.48-0.98-3.8
			c0.76-1.29,2.41-1.74,3.73-1.02c92.41,52.39,205.66,51.89,297.6-1.32c1.33-0.77,3.03-0.32,3.8,1.01c0.77,1.33,0.32,3.03-1.01,3.8
			l0,0C200.55,26.35,147.86,40.49,94.23,40.46z"/>
	</g>
	<g id="Grupo_150" transform="translate(177.654 516.833)">
		<g id="Grupo_90" transform="translate(211.824 71.418)">
			<g id="Grupo_89">
				<path id="Caminho_55" class="st11" d="M-57.1,16.13c2.96-0.36,5.86-1.11,8.62-2.25c5.05-1.86,9.45-5.17,12.64-9.5
					c2.03-2.91,3.43-6.22,4.11-9.7c1.25-0.13,2.48-0.26,3.73-0.4c-0.16,3.09-0.92,6.12-2.25,8.92c-2.44,5.1-6.1,7.87-8.82,9.89
					c-5.46,3.97-11.82,6.49-18.51,7.34C-57.43,19.01-57.25,17.58-57.1,16.13z"/>
			</g>
		</g>
		<g id="Grupo_92" transform="translate(14.591 18.578)">
			<g id="Grupo_91">
				<path id="Caminho_56" class="st12" d="M-43.22-2.29c-1.77,0.12-3.51,0.47-5.19,1.04c-2.21,0.74-2.96,1.42-3.39,1.93
					c-0.51,0.62-0.89,1.33-1.11,2.1c-1.06,3.35-0.21,7.85,0.04,9.11c1.38,10.09,2.75,20.18,4.11,30.27c1.2,3.11,3.15,5.87,5.68,8.04
					c5.45,4.13,12.35,5.86,19.11,4.81c3.46-0.78,6.67-2.44,9.31-4.81c1.87-1.58,3.49-3.43,4.81-5.49c0.4-0.55,0.78-1.11,1.18-1.66
					c0.67-5.67,1.39-11.42,2.15-17.24c0.78-5.84,1.6-11.59,2.45-17.24c0.23-0.68,1.29-4.03-0.54-6.7c-0.75-1.01-1.75-1.82-2.89-2.35
					c-2.04-1.12-4.33-1.72-6.66-1.76c-0.03-1.12-0.07-2.25-0.1-3.37c2.36-0.27,4.74,0.03,6.96,0.88c1.91,0.63,3.62,1.77,4.95,3.29
					c1.38,1.71,2.22,3.79,2.4,5.98c0.15,1.28,0.1,2.57-0.14,3.83c-0.71,3.74-2.48,17.17-4.85,35.81c-2.6,4.65-6.39,8.54-10.97,11.27
					c-6.49,4.16-14.61,4.9-21.75,1.97c-3.88-1.55-7.32-4.04-9.99-7.24c-1.57-2.55-3.13-5.09-4.71-7.64
					c-2.3-14.84-3.84-26.21-4.9-32.52c-0.18-1.09-1.13-6.75,1.38-10.59c0.59-0.89,1.32-1.68,2.15-2.35
					c1.54-1.07,3.32-1.74,5.19-1.96c2.13-0.41,4.3-0.55,6.46-0.4C-42.47-4.36-42.84-3.33-43.22-2.29z"/>
			</g>
		</g>
		<g id="Grupo_94" transform="translate(28.211 16.779)">
			<g id="Grupo_93">
				<path id="Caminho_57" class="st9" d="M-51.45-5.7c0.3-0.08,0.61,0.1,0.69,0.4c0,0,0,0.01,0,0.01c0.33,1.36,0.45,2.76,0.34,4.15
					c-0.07,0.94-0.24,1.87-0.51,2.78c-0.08,0.3-0.39,0.48-0.69,0.39c-0.01,0-0.02-0.01-0.03-0.01c-1.77-0.55-3.56-1.11-5.33-1.64
					c-0.19-0.06-0.33-0.21-0.38-0.4c-0.34-1.3-0.28-2.67,0.16-3.94c0.06-0.19,0.22-0.33,0.41-0.37C-55.03-4.8-53.24-5.24-51.45-5.7z
					"/>
			</g>
		</g>
		<g id="Grupo_97" transform="translate(0 107.553)">
			<g id="Grupo_96">
				<g id="Grupo_95">
					<path id="Caminho_58" class="st12" d="M7.72,2.68C0.76,5.14-6.06,7.98-12.71,11.2V-4.68c-1.08-0.34-2.15-0.68-3.23-1.04
						c-0.44,6.32-0.88,12.64-1.32,18.95C-33.21,20.5-42.59,29.2-47.38,34.4c-3.63,3.93-6.78,8.15-8.52,13.96
						c-1.22,4.05-3.22,10.45,0.3,16.32c2.76,4.61,8.26,8.39,13.96,7.78c1.3-0.14,4.76-0.72,9.85-6.03
						c6.04-6.29,8.56-13.17,10.87-20.43c3.1-9.74,5.65-19.65,7.64-29.68C2.23,8.68,18.69,3.14,35.66-0.13v-4.85
						C26.17-3.1,16.83-0.54,7.72,2.68z M-20.05,29.13c-1.39,5.66-3.21,11.21-5.44,16.6c-2.2,5.41-4.96,10.58-8.24,15.42
						c-1.66,2.45-3.05,4.21-5.44,5.29c-0.26,0.11-5.77,2.52-9.99-0.58c-2.76-2.03-3.36-5.22-3.67-6.9
						c-0.44-2.38-0.45-5.61,1.76-10.87c2.31-5.31,5.66-10.11,9.85-14.11c6.77-6.62,14.62-12.04,23.22-16.02
						C-18.49,21.72-19.17,25.45-20.05,29.13L-20.05,29.13z"/>
				</g>
			</g>
		</g>
		<g id="Grupo_99" transform="translate(91.499)">
			<g id="Grupo_98">
				<path id="Caminho_59" class="st2" d="M56.56,158.09H-49.45c-4.49,0-8.14-3.64-8.14-8.14l0,0V2.42c0-4.49,3.64-8.14,8.14-8.14
					H56.56c4.49,0,8.14,3.64,8.14,8.14v147.54C64.69,154.45,61.05,158.09,56.56,158.09z"/>
			</g>
		</g>
		<g id="Grupo_101" transform="translate(97.197 8.817)">
			<g id="Grupo_100">
				<rect id="Retângulo_8" x="-57.58" y="-5.72" class="st1" width="110.22" height="145.77"/>
			</g>
		</g>
		<g id="Grupo_103" transform="translate(52.122 16.779)">
			<g id="Grupo_102">
				<path id="Caminho_60" class="st9" d="M-56.51-5.7c-0.3-0.08-0.61,0.1-0.69,0.4c0,0,0,0.01,0,0.01
					c-0.33,1.36-0.45,2.76-0.34,4.15c0.07,0.94,0.24,1.87,0.51,2.78c0.08,0.3,0.39,0.48,0.69,0.39c0.01,0,0.02-0.01,0.03-0.01
					c1.77-0.55,3.56-1.11,5.33-1.64c0.19-0.06,0.33-0.21,0.38-0.4c0.34-1.3,0.28-2.67-0.16-3.94c-0.06-0.19-0.22-0.33-0.41-0.37
					C-52.94-4.8-54.73-5.24-56.51-5.7z"/>
			</g>
		</g>
		<g id="Grupo_105" transform="translate(17.642 65.833)">
			<g id="Grupo_104">
				<path id="Caminho_61" class="st4" d="M-57.58-5.72h6.76c-0.46,5.64,0.73,11.29,3.43,16.26c1.14,2.07,2.63,3.93,4.41,5.49
					c2.56,2.25,5.74,3.68,9.12,4.11c4.33,0.4,8.66-0.82,12.15-3.43c1.96-1.54,3.56-3.47,4.71-5.68c0.65-1.27,1.14-2.62,1.47-4.01
					c1.05-4.12,1.8-8.32,2.25-12.55h7.34C-5.97,0.72-7.41,6.88-10.15,12.5c-1.56,3.55-3.91,6.7-6.86,9.21
					c-2.57,2.09-5.53,3.62-8.72,4.51c-1.95,4.25-2.98,8.85-3.03,13.52c-2.23,0.03-4.44,0.07-6.66,0.1c0.16-2.43-0.01-4.86-0.5-7.24
					c-0.24-1.29-0.63-2.54-1.18-3.73c-0.5-1.05-1.12-2.03-1.86-2.93c-2.71-0.51-5.27-1.57-7.54-3.13
					c-5.97-4.14-7.91-10.63-8.62-13.03c-0.82-3.25-1.41-6.56-1.76-9.89C-57.23-2.46-57.44-4.38-57.58-5.72z"/>
			</g>
		</g>
		<g id="Grupo_107" transform="translate(126.981 26.651)">
			<g id="Grupo_106">
				<circle id="Elipse_19" class="st3" cx="-31.83" cy="20.04" r="25.76"/>
			</g>
		</g>
		<g id="Grupo_109" transform="translate(148.727 37.623)">
			<g id="Grupo_108">
				<rect id="Retângulo_9" x="-57.58" y="-5.72" class="st1" width="8.04" height="29.58"/>
			</g>
		</g>
		<g id="Grupo_111" transform="translate(137.953 48.397)">
			<g id="Grupo_110">
				<rect id="Retângulo_10" x="-57.58" y="-5.72" class="st1" width="29.58" height="8.04"/>
			</g>
		</g>
		<g id="Grupo_113" transform="translate(109.261 89.577)">
			<g id="Grupo_112">
				<path id="Caminho_62" class="st12" d="M-38.67,16.41l-3.4-14.4l-1.7,6.14h-13.15c-0.37,0-0.67-0.3-0.67-0.67s0.3-0.67,0.67-0.67
					l0,0h12.13l2.81-10.14l3.26,13.81l3.61-16.2l3.19,13.01l11.43-0.1l0,0c0.36,0,0.66,0.29,0.67,0.65c0,0.36-0.29,0.66-0.65,0.67
					l-12.48,0.1l-2.1-8.55L-38.67,16.41z"/>
			</g>
		</g>
		<g id="Grupo_115" transform="translate(158.933 92.2)">
			<g id="Grupo_114">
				<path id="Caminho_63" class="st12" d="M-32.32-4.38h-24.6c-0.37,0-0.67-0.3-0.67-0.67s0.3-0.67,0.67-0.67h24.6
					c0.37,0,0.67,0.3,0.67,0.67C-31.66-4.68-31.96-4.39-32.32-4.38z"/>
			</g>
		</g>
		<g id="Grupo_117" transform="translate(158.933 129.624)">
			<g id="Grupo_116">
				<path id="Caminho_64" class="st12" d="M-32.32-4.38h-24.6c-0.37,0-0.67-0.3-0.67-0.67c0-0.37,0.3-0.67,0.67-0.67h24.6
					c0.37,0,0.67,0.3,0.67,0.67C-31.66-4.68-31.96-4.39-32.32-4.38z"/>
			</g>
		</g>
		<g id="Grupo_119" transform="translate(158.933 135.706)">
			<g id="Grupo_118">
				<path id="Caminho_65" class="st12" d="M-32.32-4.38h-24.6c-0.37,0-0.67-0.3-0.67-0.67s0.3-0.67,0.67-0.67h24.6
					c0.37,0,0.67,0.3,0.67,0.67C-31.66-4.68-31.96-4.39-32.32-4.38z"/>
			</g>
		</g>
		<g id="Grupo_121" transform="translate(158.933 98.962)">
			<g id="Grupo_120">
				<path id="Caminho_66" class="st12" d="M-21.94-4.38h-34.97c-0.37,0-0.67-0.3-0.67-0.67c0-0.37,0.3-0.67,0.67-0.67h34.97
					c0.37,0,0.67,0.3,0.67,0.67C-21.28-4.68-21.58-4.38-21.94-4.38z"/>
			</g>
		</g>
		<g id="Grupo_123" transform="translate(158.933 104.746)">
			<g id="Grupo_122">
				<path id="Caminho_67" class="st12" d="M-21.94-4.38h-34.97c-0.37,0-0.67-0.3-0.67-0.67s0.3-0.67,0.67-0.67h34.97
					c0.37,0,0.67,0.3,0.67,0.67S-21.58-4.38-21.94-4.38z"/>
			</g>
		</g>
		<g id="Grupo_125" transform="translate(158.933 110.529)">
			<g id="Grupo_124">
				<path id="Caminho_68" class="st12" d="M-21.94-4.38h-34.97c-0.37,0-0.67-0.3-0.67-0.67c0-0.37,0.3-0.67,0.67-0.67h34.97
					c0.37,0,0.67,0.3,0.67,0.67C-21.28-4.68-21.58-4.38-21.94-4.38z"/>
			</g>
		</g>
		<g id="Grupo_127" transform="translate(158.933 116.299)">
			<g id="Grupo_126">
				<path id="Caminho_69" class="st12" d="M-21.94-4.38h-34.97c-0.37,0-0.67-0.3-0.67-0.67s0.3-0.67,0.67-0.67h34.97
					c0.37,0,0.67,0.3,0.67,0.67S-21.58-4.38-21.94-4.38z"/>
			</g>
		</g>
		<g id="Grupo_129" transform="translate(158.933 122.083)">
			<g id="Grupo_128">
				<path id="Caminho_70" class="st12" d="M-21.94-4.39h-34.97c-0.37,0-0.67-0.3-0.67-0.67s0.3-0.67,0.67-0.67h34.97
					c0.37,0,0.67,0.3,0.67,0.67S-21.58-4.39-21.94-4.39z"/>
			</g>
		</g>
		<g id="Grupo_131" transform="translate(119.212 129.624)">
			<g id="Grupo_130">
				<path id="Caminho_71" class="st12" d="M-32.32-4.38h-24.6c-0.37,0-0.67-0.3-0.67-0.67c0-0.37,0.3-0.67,0.67-0.67l0,0h24.6
					c0.37,0,0.67,0.3,0.67,0.66c0,0,0,0,0,0C-31.66-4.68-31.96-4.39-32.32-4.38z"/>
			</g>
		</g>
		<g id="Grupo_133" transform="translate(119.212 135.706)">
			<g id="Grupo_132">
				<path id="Caminho_72" class="st12" d="M-32.32-4.38h-24.6c-0.37,0-0.67-0.3-0.67-0.67s0.3-0.67,0.67-0.67l0,0h24.6
					c0.37,0,0.67,0.3,0.67,0.67C-31.66-4.68-31.96-4.39-32.32-4.38z"/>
			</g>
		</g>
		<g id="Grupo_135" transform="translate(108.836 116.299)">
			<g id="Grupo_134">
				<path id="Caminho_73" class="st12" d="M-21.95-4.38h-34.97c-0.37,0-0.67-0.3-0.67-0.67s0.3-0.67,0.67-0.67h34.97
					c0.37,0,0.67,0.3,0.67,0.66c0,0,0,0,0,0C-21.28-4.68-21.58-4.39-21.95-4.38z"/>
			</g>
		</g>
		<g id="Grupo_137" transform="translate(108.836 122.083)">
			<g id="Grupo_136">
				<path id="Caminho_74" class="st12" d="M-21.95-4.39h-34.97c-0.37,0-0.67-0.3-0.67-0.67s0.3-0.67,0.67-0.67h34.97
					c0.37,0,0.67,0.3,0.67,0.66c0,0,0,0,0,0C-21.28-4.69-21.58-4.39-21.95-4.39z"/>
			</g>
		</g>
		<g id="Grupo_139" transform="translate(223.533 27.728)">
			<g id="Grupo_138">
				<circle id="Elipse_20" class="st13" cx="-37.41" cy="14.46" r="20.17"/>
			</g>
		</g>
		<g id="Grupo_141" transform="translate(228.055 32.25)">
			<g id="Grupo_140">
				<circle id="Elipse_21" class="st11" cx="-41.93" cy="9.93" r="15.65"/>
			</g>
		</g>
		<g id="Grupo_143" transform="translate(230.55 34.745)">
			<g id="Grupo_142">
				<circle id="Elipse_22" class="st1" cx="-44.43" cy="7.44" r="13.15"/>
			</g>
		</g>
		<g id="Grupo_145" transform="translate(239.226 43.421)">
			<g id="Grupo_144">
				<circle id="Elipse_23" class="st11" cx="-53.1" cy="-1.24" r="4.48"/>
			</g>
		</g>
		<g id="Grupo_147" transform="translate(241.423 45.618)">
			<g id="Grupo_146">
				<circle id="Elipse_24" class="st13" cx="-55.3" cy="-3.43" r="2.28"/>
			</g>
		</g>
		<g id="Grupo_149" transform="translate(236.405 65.634)">
			<g id="Grupo_148">
				<path id="Caminho_75" class="st13" d="M-57.58-5.72v7.6l7.3,0.2v-6.96L-57.58-5.72z"/>
			</g>
		</g>
	</g>
	<g id="Grupo_151" transform="translate(224.428 282.697)">
		<path id="Caminho_76" class="st10" d="M-23.7,250.86c-1.06,0-2.02-0.6-2.49-1.55c-39.06-79.38-41.79-171.8-7.47-253.34
			c0.6-1.41,2.23-2.07,3.64-1.47c1.41,0.6,2.07,2.23,1.47,3.64c-33.69,80.05-31.01,170.78,7.34,248.7c0.68,1.37,0.11,3.03-1.26,3.71
			c0,0,0,0,0,0C-22.85,250.76-23.28,250.86-23.7,250.86z"/>
	</g>
	<g id="Grupo_152" transform="translate(795.947 278.51)">
		<path id="Caminho_77" class="st10" d="M-54.81,256.93c-1.54,0-2.78-1.25-2.77-2.79c0-0.43,0.1-0.85,0.29-1.24
			c39.94-79.72,42.32-173.08,6.48-254.73c-0.6-1.41,0.06-3.04,1.47-3.64c1.38-0.58,2.98,0.03,3.6,1.4
			C-9.23,79.1-11.65,174.2-52.33,255.4C-52.8,256.34-53.76,256.94-54.81,256.93z"/>
	</g>
	<g id="Grupo_153" transform="translate(372.733 98.332)">
		<path id="Caminho_78" class="st10" d="M263.53,48.82c-0.54,0-1.07-0.16-1.52-0.45C166.75-13.7,44.54-16.42-53.4,41.33
			c-1.31,0.79-3.02,0.37-3.81-0.94c-0.79-1.31-0.37-3.02,0.94-3.81c0.01-0.01,0.03-0.02,0.04-0.03
			c99.75-58.84,224.24-56.07,321.27,7.16c1.28,0.84,1.64,2.56,0.8,3.85C265.33,48.34,264.46,48.81,263.53,48.82L263.53,48.82z"/>
	</g>
	<g id="Grupo_178" transform="translate(695.578 506.811)">
		<g id="Grupo_154" transform="translate(3.317 3.232)">
			<path id="Caminho_79" class="st14" d="M77.1,12.47V0.54c0.09-3.45-2.64-6.32-6.09-6.41c-3.45-0.09-6.32,2.64-6.41,6.09
				c0,0.11,0,0.21,0,0.32v11.94H24.55V0.54c0.09-3.45-2.64-6.32-6.09-6.41c-3.45-0.09-6.32,2.64-6.41,6.09c0,0.11,0,0.21,0,0.32
				v11.94H-28V0.54c0.09-3.45-2.64-6.32-6.09-6.41c-3.45-0.09-6.32,2.64-6.41,6.09c0,0.11,0,0.21,0,0.32v11.94h-17.09v145.18H94.18
				V12.47H77.1z"/>
		</g>
		<g id="Grupo_177" transform="translate(0)">
			<g id="Grupo_155" transform="translate(0 18.188)">
				<rect id="Retângulo_11" x="-57.58" y="-5.72" class="st2" width="151.74" height="29.02"/>
			</g>
			<g id="Grupo_156" transform="translate(17.082)">
				<path id="Caminho_80" class="st1" d="M-47.18,29.74h-8.32c-1.15,0-2.08-0.93-2.08-2.08V-3.63c0-1.15,0.93-2.08,2.08-2.08h8.32
					c1.15,0,2.08,0.93,2.08,2.08v31.29C-45.1,28.8-46.03,29.74-47.18,29.74z"/>
			</g>
			<g id="Grupo_157" transform="translate(69.618)">
				<path id="Caminho_81" class="st1" d="M-47.18,29.74h-8.32c-1.15,0-2.08-0.93-2.08-2.08V-3.63c0-1.15,0.93-2.08,2.08-2.08h8.32
					c1.15,0,2.08,0.93,2.08,2.08v31.29C-45.1,28.8-46.03,29.74-47.18,29.74z"/>
			</g>
			<g id="Grupo_158" transform="translate(122.154)">
				<path id="Caminho_82" class="st1" d="M-47.18,29.74h-8.32c-1.15,0-2.08-0.93-2.08-2.08V-3.63c0-1.15,0.93-2.08,2.08-2.08h8.32
					c1.15,0,2.08,0.93,2.08,2.08v31.29C-45.1,28.8-46.03,29.74-47.18,29.74z"/>
			</g>
			<g id="Grupo_159" transform="translate(0 47.22)">
				<rect id="Retângulo_12" x="-57.58" y="-5.72" class="st1" width="151.74" height="116.16"/>
			</g>
			<g id="Grupo_160" transform="translate(0 47.22)">
				<rect id="Retângulo_13" x="-57.58" y="-5.72" class="st1" width="151.74" height="116.16"/>
			</g>
			<g id="Grupo_161" transform="translate(69.618)">
				<path id="Caminho_83" class="st1" d="M-47.18,29.74h-8.32c-1.15,0-2.08-0.93-2.08-2.08V-3.63c0-1.15,0.93-2.08,2.08-2.08h8.32
					c1.15,0,2.08,0.93,2.08,2.08v31.29C-45.1,28.8-46.03,29.74-47.18,29.74z"/>
			</g>
			<g id="Grupo_162" transform="translate(122.154)">
				<path id="Caminho_84" class="st1" d="M-47.18,29.74h-8.32c-1.15,0-2.08-0.93-2.08-2.08V-3.63c0-1.15,0.93-2.08,2.08-2.08h8.32
					c1.15,0,2.08,0.93,2.08,2.08v31.29C-45.1,28.8-46.03,29.74-47.18,29.74z"/>
			</g>
			<g id="Grupo_163" transform="translate(0 47.22)">
				<rect id="Retângulo_14" x="-57.58" y="-5.72" class="st1" width="151.74" height="116.16"/>
			</g>
			<g id="Grupo_164" transform="translate(46.596 58.787)">
				<rect id="Retângulo_15" x="-57.58" y="-5.72" class="st15" width="23.02" height="23.02"/>
			</g>
			<g id="Grupo_165" transform="translate(82.107 58.787)">
				<rect id="Retângulo_16" x="-57.58" y="-5.72" class="st15" width="23.02" height="23.02"/>
			</g>
			<g id="Grupo_166" transform="translate(116.894 58.787)">
				<rect id="Retângulo_17" x="-57.58" y="-5.72" class="st15" width="23.02" height="23.02"/>
			</g>
			<g id="Grupo_167" transform="translate(46.596 93.377)">
				<rect id="Retângulo_18" x="-57.58" y="-5.72" class="st15" width="23.02" height="23.02"/>
			</g>
			<g id="Grupo_168" transform="translate(116.894 93.377)">
				<rect id="Retângulo_19" x="-57.58" y="-5.72" class="st15" width="23.02" height="23.02"/>
			</g>
			<g id="Grupo_169" transform="translate(11.808 128.902)">
				<rect id="Retângulo_20" x="-57.58" y="-5.72" class="st15" width="23.02" height="23.02"/>
			</g>
			<g id="Grupo_170" transform="translate(11.808 94.851)">
				<rect id="Retângulo_21" x="-57.58" y="-5.72" class="st15" width="23.02" height="23.02"/>
			</g>
			<g id="Grupo_171" transform="translate(82.107 128.902)">
				<rect id="Retângulo_22" x="-57.58" y="-5.72" class="st15" width="23.02" height="23.02"/>
			</g>
			<g id="Grupo_172" transform="translate(101.981 93.107)">
				<path id="Caminho_85" class="st15" d="M-57.58-5.72"/>
			</g>
			<g id="Grupo_173" transform="translate(82.649 94.684)">
				<path id="Caminho_86" class="st4" d="M-37.1,14.5l-0.27,0.27c-0.97,0.97-2.55,0.98-3.52,0.01c0,0-0.01-0.01-0.01-0.01
					L-56.85-1.18c-0.97-0.97-0.98-2.55-0.01-3.52c0,0,0.01-0.01,0.01-0.01l0.27-0.27c0.97-0.97,2.55-0.98,3.52-0.01
					c0,0,0.01,0.01,0.01,0.01l15.95,15.95C-36.13,11.94-36.12,13.51-37.1,14.5C-37.1,14.49-37.1,14.49-37.1,14.5z"/>
			</g>
			<g id="Grupo_174" transform="translate(82.649 94.684)">
				<path id="Caminho_87" class="st4" d="M-37.37-4.98l0.27,0.27c0.97,0.97,0.98,2.55,0.01,3.52c0,0-0.01,0.01-0.01,0.01
					l-15.95,15.95c-0.97,0.97-2.55,0.98-3.52,0.01c0,0-0.01-0.01-0.01-0.01l-0.27-0.27c-0.97-0.97-0.98-2.55-0.01-3.52
					c0,0,0.01-0.01,0.01-0.01L-40.9-4.98C-39.93-5.96-38.36-5.96-37.37-4.98C-37.38-4.99-37.38-4.99-37.37-4.98z"/>
			</g>
			<g id="Grupo_175" transform="translate(47.507 129.841)">
				<path id="Caminho_88" class="st4" d="M-37.1,14.5l-0.27,0.27c-0.97,0.97-2.55,0.98-3.52,0.01c0,0-0.01-0.01-0.01-0.01
					L-56.85-1.18c-0.97-0.97-0.98-2.55-0.01-3.52c0,0,0.01-0.01,0.01-0.01l0.27-0.27c0.97-0.97,2.55-0.98,3.52-0.01
					c0,0,0.01,0.01,0.01,0.01l15.95,15.95C-36.13,11.94-36.12,13.51-37.1,14.5C-37.1,14.49-37.1,14.49-37.1,14.5z"/>
			</g>
			<g id="Grupo_176" transform="translate(47.493 129.826)">
				<path id="Caminho_89" class="st4" d="M-37.37-4.98l0.27,0.27c0.97,0.97,0.98,2.55,0.01,3.52c0,0-0.01,0.01-0.01,0.01
					l-15.95,15.95c-0.97,0.97-2.55,0.98-3.52,0.01c0,0-0.01-0.01-0.01-0.01l-0.27-0.27c-0.97-0.97-0.98-2.55-0.01-3.52
					c0,0,0.01-0.01,0.01-0.01L-40.9-4.98C-39.93-5.95-38.36-5.96-37.37-4.98C-37.38-4.98-37.38-4.98-37.37-4.98z"/>
			</g>
		</g>
	</g>
	<g id="Grupo_211" transform="matrix(0.999, -0.035, 0.035, 0.999, 678.822, 95.199)">
		<g id="Grupo_180" transform="translate(49.937 45.015)">
			<g id="Grupo_179">
				<path id="Caminho_90" class="st2" d="M-17.1-7.73l52.5,42.21c0,0,34.6,35.61-6.91,76.54c-20.92,16.66-45.42,13.15-57.79,4.56
					s-27.75-25.04-28.06-46.36s18.93-40.7,18.93-40.7l-6.5-4.69c0,0,11.54-26.11,16.76-28.48s7.77-1.53,7.77-1.53L-17.1-7.73z"/>
			</g>
		</g>
		<g id="Grupo_182" transform="translate(4.653)">
			<g id="Grupo_181">
				<path id="Caminho_91" class="st4" d="M24.88,38.83L-34.64-7.73c0,0-19.24,9.37-22.73,29.75L1.15,68.44
					C1.15,68.43,14.81,43.35,24.88,38.83z"/>
			</g>
		</g>
		<g id="Grupo_184" transform="translate(63.528 51.286)">
			<g id="Grupo_183">
				<circle id="Elipse_25" class="st16" cx="-53.05" cy="-3.41" r="4.32"/>
			</g>
		</g>
		<g id="Grupo_186" transform="translate(65.56 92.548)">
			<g id="Grupo_185">
				<circle id="Elipse_26" class="st4" cx="-23.39" cy="26.25" r="33.98"/>
			</g>
		</g>
		<g id="Grupo_188" transform="translate(104.979 103.327)">
			<g id="Grupo_187" transform="translate(0 0)">
				
					<rect id="Retângulo_23" x="-50.66" y="-10.63" transform="matrix(-0.613 0.7901 -0.7901 -0.613 -82.1474 36.5662)" class="st1" width="1.27" height="17.6"/>
			</g>
		</g>
		<g id="Grupo_190" transform="translate(95.315 104.082)">
			<g id="Grupo_189" transform="translate(0 0)">
				
					<rect id="Retângulo_24" x="-45.32" y="-13.32" transform="matrix(-0.6057 0.7957 -0.7957 -0.6057 -70.042 38.9896)" class="st1" width="1.27" height="30.93"/>
			</g>
		</g>
		<g id="Grupo_192" transform="translate(88.863 106.62)">
			<g id="Grupo_191" transform="translate(0 0)">
				
					<rect id="Retângulo_25" x="-42.11" y="-14.91" transform="matrix(-0.6057 0.7957 -0.7957 -0.6057 -62.9443 40.3594)" class="st1" width="1.27" height="39"/>
			</g>
		</g>
		<g id="Grupo_194" transform="translate(83.217 109.824)">
			<g id="Grupo_193" transform="translate(0 0)">
				
					<rect id="Retângulo_26" x="-40.28" y="-15.82" transform="matrix(-0.6057 0.7957 -0.7957 -0.6057 -58.9087 41.1383)" class="st1" width="1.27" height="43.58"/>
			</g>
		</g>
		<g id="Grupo_196" transform="translate(78.783 113.985)">
			<g id="Grupo_195" transform="translate(0 0)">
				
					<rect id="Retângulo_27" x="-40.05" y="-16.02" transform="matrix(-0.5996 0.8003 -0.8003 -0.5996 -58.2791 41.0546)" class="st1" width="1.27" height="43.93"/>
			</g>
		</g>
		<g id="Grupo_198" transform="translate(77.67 120.462)">
			<g id="Grupo_197" transform="translate(0 0)">
				
					<rect id="Retângulo_28" x="-41.87" y="-14.9" transform="matrix(-0.6161 0.7877 -0.7877 -0.6161 -62.6438 40.6936)" class="st1" width="1.27" height="39.97"/>
			</g>
		</g>
		<g id="Grupo_200" transform="translate(76.698 128.218)">
			<g id="Grupo_199" transform="translate(0 0)">
				
					<rect id="Retângulo_29" x="-45.32" y="-13.32" transform="matrix(-0.6057 0.7957 -0.7957 -0.6057 -70.042 38.9896)" class="st1" width="1.27" height="30.93"/>
			</g>
		</g>
		<g id="Grupo_202" transform="translate(79.277 136.863)">
			<g id="Grupo_201" transform="translate(0 0)">
				
					<rect id="Retângulo_30" x="-50.64" y="-10.74" transform="matrix(-0.5949 0.8038 -0.8038 -0.5949 -81.3945 36.9265)" class="st1" width="1.27" height="17.39"/>
			</g>
		</g>
		<g id="Grupo_204" transform="translate(0 141.352)">
			<g id="Grupo_203">
				<path id="Caminho_92" class="st2" d="M-0.86-7.73l-5.57,9.47c0,0,1.5,7.74-0.76,10.18S-19,14.76-22.54,22.16
					c-2.14,4.53-3.44,9.42-3.81,14.42l-28.17,35.6c0,0-5.77,6.84-0.88,10.38S-34.31,97.8-34.31,97.8s2.41,2.95,8.23-4.74
					S20.6,31.87,20.6,31.87s9.85,1.22,13.42-8.01L-0.86-7.73z"/>
			</g>
		</g>
		<g id="Grupo_206" transform="translate(14.666 186.679)">
			<g id="Grupo_205" transform="translate(0 0)">
				
					<rect id="Retângulo_31" x="-68.07" y="14.83" transform="matrix(-0.6112 0.7915 -0.7915 -0.6112 -51.011 55.9862)" class="st1" width="57.63" height="1.27"/>
			</g>
		</g>
		<g id="Grupo_208" transform="translate(13.126 188.114)">
			<g id="Grupo_207" transform="translate(0 0)">
				
					<rect id="Retângulo_32" x="-65.85" y="10.15" transform="matrix(-0.6051 0.7961 -0.7961 -0.6051 -60.5887 51.6233)" class="st1" width="45.51" height="1.27"/>
			</g>
		</g>
		<g id="Grupo_210" transform="translate(22.427 194.22)">
			<g id="Grupo_209" transform="translate(0 0)">
				
					<rect id="Retângulo_33" x="-66.34" y="10.99" transform="matrix(-0.6006 0.7995 -0.7995 -0.6006 -58.8999 52.6748)" class="st1" width="47.47" height="1.27"/>
			</g>
		</g>
	</g>
</g>
</svg>
