<?xml version="1.0" encoding="utf-8"?>
<!-- Generator: Adobe Illustrator 24.2.3, SVG Export Plug-In . SVG Version: 6.00 Build 0)  -->
<svg version="1.1" id="Layer_1" xmlns="http://www.w3.org/2000/svg" xmlns:xlink="http://www.w3.org/1999/xlink" x="0px" y="0px"
	 viewBox="0 0 949.33 729.8" style="enable-background:new 0 0 949.33 729.8;" xml:space="preserve">
<style type="text/css">
	.st0{fill:#E8ECEF;}
	.st1{fill:none;stroke:#474747;stroke-miterlimit:10;}
	.st2{fill:none;stroke:#474747;stroke-linecap:round;stroke-miterlimit:10;}
	.st3{fill:#185DC2;}
	.st4{fill:#163C5C;}
	.st5{fill:#222C51;}
	.st6{fill:#C18776;}
	.st7{fill:#171E1E;}
	.st8{fill:#F1A300;}
	.st9{fill:#FFCC61;}
</style>
<g id="Illustration_2" transform="translate(-102.307 -49.201)">
	<path id="Caminho_95" class="st0" d="M431.31,149.25c0,0-195.44,10.32-215.3-32.57s67.52-49.25,112.02-55.61s191.46-23.04,291.58,0
		c31.78,7.94,23.83,25.42-11.13,30.99s-54.02,19.87-24.62,29.4S738,177.86,738,177.86s82.62-0.79,112.81,27.8s8.74,49.25-14.3,63.56
		c-23.04,14.3-96.13,27.01-88.18,63.56s82.97,66.72,117.34,96.12s90,88.98,47.89,167.64S834.42,767.36,570.9,776.09
		c0,0-372.38-13.5-462.15-181.93c-28.59-57.2,38.93-101.69,97.72-107.26s193.86-5.57,193.86-5.57l119.16,113.62l85.01-46.08
		l-41.32-187.5c0,0-209.75,64.35-274.1,58.78s-131.08-7.95-149.36-73.88s35.76-70.71,88.18-65.16s231.99,35.76,340.05-19.87
		c0,0,28.59-30.19-7.95-39.72s-202.59-1.6-230.39-8.74s-42.1-27.8,3.58-26.23c45.68,1.6,117.98-7.15,119.57-18.27
		S452.83,148.5,431.31,149.25z"/>
	<g id="Grupo_212" transform="translate(804.6 394.566)">
		<path id="Caminho_96" class="st1" d="M31.9,162.25c-8.81,2.83-17.28-2.83-18.53-3.7c-2.72-1.89-11.01-8.62-13.23-30.72
			c-3.7-36.58,15.18-67.08,21.72-77.33C34.06,31.49,50.12,15.25,69,2.83C70.41,2.14,80.66-2.7,91.77,2.3
			c1.45,0.66,12.88,6.05,14.83,18.53c1.51,9.66-5.11,17.24-11.13,24.36c-7.7,9.1-12.25,9.88-19.59,16.42
			C57.9,77.62,53.27,101.47,52.05,107.7c-3.2,16.43,0.66,22.39-5.83,37.59C40.33,159.05,34.02,161.56,31.9,162.25z"/>
		<path id="Caminho_97" class="st1" d="M57.32,147.42c8.94-23.39,31.25-36.55,31.25-36.55c13.34-7.72,28.56-11.57,43.97-11.13
			c7.45-1.14,14.76,2.73,18,9.53c3.23,7,0.98,15.29-3.7,19.06c-4.3,3.48-8.37,1.29-17.47,2.64c-9.66,1.44-16.33,5.55-22.78,9.53
			c-9.22,5.73-17.15,13.31-23.3,22.25c-0.4,0.75-4.04,7.62-11.13,8.47c-7.8,0.94-14.14-6.09-15.89-12.19
			C54.93,154.39,56.28,150.17,57.32,147.42z"/>
		<path id="Caminho_98" class="st2" d="M128.29,115.64c-14.46,2.34-28,8.56-39.19,18c-5.2,4.42-21.91,19.83-26.49,45.55
			c-1.54,8.76-1.54,17.73,0,26.49"/>
		<path id="Caminho_99" class="st2" d="M67.4,31.95c-9.5,9.93-30.09,34.2-37.08,71.5c-10.38,55.49,17.18,98.01,23.3,106.98"/>
	</g>
	<path id="Caminho_100" class="st3" d="M641.59,490.6c7.4-5.35,45.96-32.16,88.98-20.13c31.59,8.84,50.25,34.3,52.97,38.14
		c21.19,29.77,13.64,55.63,40.25,76.27c5.59,4.33,13.54,10.34,24.36,10.6c12.69,0.29,18.87-7.56,44.5-24.36
		c19.34-12.67,29-19.02,38.14-20.13c22.28-2.72,41.35,11.04,46.61,14.83c10.91,7.87,16.96,16.37,21.19,22.25
		c11.57,16.12,27.39,37.56,49.8,66.73c2.28,4.46,5.52,12.44,2.11,18c-3.82,6.26-14.04,6.33-18,6.36
		c-20.94,0.18-96.61,1.29-199.94,2.38c-55.35-12.97-110.7-25.94-166.04-38.93c-6.62-6.33-43.98-43.23-41.32-97.71
		C626.23,525.74,631.85,507.12,641.59,490.6z"/>
	<path id="Caminho_101" class="st3" d="M592.85,269.74c5.86,28.04,7.11,56.84,3.71,85.28c8.83-1.6,17.67-3.17,26.49-4.77
		C623.59,320.54,612.79,291.76,592.85,269.74L592.85,269.74z"/>
	<path id="Caminho_102" class="st4" d="M594.08,339.66c0,0,36.92-5.83,48.56,30.19c11.64,36.02,26.49,59.86,30.72,219.28
		l-99.58,29.14l-37.32-68.86c0,0,18.25-168.96,22.5-178.5l4.23-9.53L594.08,339.66z"/>
	<path id="Caminho_103" class="st5" d="M198.79,680.23c66.35,37.23,183.41,90.4,333.69,95.35c67.14,2.2,172.05,4.35,278.59-56.14
		c19.7-11.19,38.48-23.95,56.14-38.14c-20.84-12.36-41.67-24.72-62.5-37.08c-16.83-8.11-35.35-12.1-54.03-11.66
		c-40.68,1.1-68.08,23.48-76.27,30.72c-102.4-18-204.8-36.01-307.21-54.03c-3.54-7.07-7.07-14.13-10.6-21.19
		c-13.13,3.67-26.04,8.09-38.67,13.23C264.9,622.94,225.72,653.88,198.79,680.23z"/>
	<path id="Caminho_104" class="st6" d="M701.43,575.09c0,0,34.97,15.1,14.3,53.23s-96.92,86.2-150.55,96.76
		c-42.94,8.46-61.19-5.38-61.19-5.38s-25.01-9.56-19.06-20.28s57.2-18.27,57.2-18.27l87.39-56.8l28.21-39.33l22.64-9.93h21.06
		L701.43,575.09z"/>
	<path id="Caminho_105" class="st5" d="M418.07,421.74c0,0,68.86,101.15,83.16,160.48l-13.77,54.57l-136.38-54.55
		c0,0-25.15-78.39-28.87-134.54s2.12-74.69,28.87-82.62s185.06-33.29,244.22-25.34c0,0-18.12,7.63-18.66,26.17l-0.73,9.24
		c0,0-60.91,24.89-103.28,34.42S418.07,421.74,418.07,421.74z"/>
	<path id="Caminho_106" class="st7" d="M515.33,387.59v74.69l2.98,23.04l3.7,2.16h47.01c0,0,10.72,0.62,10.72-16.99v-84.22
		c0,0-0.13-12.97-9.93-12.97h-46.08C523.73,373.3,515.33,374.36,515.33,387.59z"/>
	<path id="Caminho_107" class="st3" d="M193.76,749.88c0,0,92.96-78.65,121.55-78.65s28.59,7.15,42.89,35.76s35.76,21.46,57.2,7.15
		s42.89,7.15,50.06,28.59s7.15,35.76,7.15,35.76S276.39,784.83,193.76,749.88z"/>
	<path id="Caminho_108" class="st6" d="M351.06,582.25c0,0,85.01-68.33,134.27-94.28c11.13-7.42,13.77-15.89,18.53-26.49
		s13.23-20.66,19.59-19.06s-2.11,14.83-3.7,22.25s-2.2,13.77,6.32,18.53c0,0,1.1,2.64-6.32,7.42c-7.41,4.77-23.3,17.48-33.36,31.25
		c-10.06,13.78-56.67,87.92-56.67,87.92L351.06,582.25z"/>
	<path id="Caminho_109" class="st8" d="M351.06,582.25c0,0,85.01,8.74,112.81,30.19s129.51-9.53,150.15-20.66
		s61.18-29.4,87.39-16.68c0,0-23.83-4.08-42.9,20.21s-71.5,88.64-91.37,94.2s-69.92,9.53-69.92,9.53s-0.79,19.52,19.87,26.04
		C517.12,725.08,357.42,702.2,351.06,582.25z"/>
	<path id="Caminho_110" class="st6" d="M490.91,599.71c0,0,0-52.69,33.1-53.5s42.1,24.1,47.14,42.9l-44.88,29.14L490.91,599.71z"/>
	<circle id="Elipse_27" class="st9" cx="701.05" cy="138.93" r="71.5"/>
	<path id="Caminho_111" class="st5" d="M500.04,602.9c-4.18-3.24-3.35-4.92-13.64-16.17c-5.24-5.73-8.24-8.31-12.17-8.47
		c-4.3-0.16-7.61,2.63-8.74,3.58c-9.52,8.02-10.07,36.7-0.4,63.95c7.02,19.75,17.43,49.05,46.87,58.78
		c18.2,6.02,41.27,3.79,57.99-9.53c19.02-15.14,21.57-38,23.44-54.82c1.49-13.64,0.53-27.45-2.83-40.75
		c-2.06-8.24-8.43-15.11-16.83-16.42c-0.07-0.02-0.13-0.02-0.21-0.03c-2-0.28-8.28-0.88-23.04,7.95
		c-16.01,9.58-15.51,14.39-24.63,16.68C517.99,609.64,507.4,608.61,500.04,602.9z"/>
</g>
</svg>
