<?xml version="1.0" encoding="utf-8"?>
<!-- Generator: Adobe Illustrator 24.2.3, SVG Export Plug-In . SVG Version: 6.00 Build 0)  -->
<svg version="1.1" id="Layer_1" xmlns="http://www.w3.org/2000/svg" xmlns:xlink="http://www.w3.org/1999/xlink" x="0px" y="0px"
	 viewBox="0 0 827.33 751.8" style="enable-background:new 0 0 827.33 751.8;" xml:space="preserve">
<style type="text/css">
	.st0{fill:#E8ECEF;}
	.st1{fill:#FFCC61;}
	.st2{fill:#D9D9D9;}
	.st3{fill:#C4C4C4;}
	.st4{fill:#B4CCDB;}
	.st5{fill:#222C51;}
	.st6{fill:#185DC2;}
	.st7{fill:#4F4F4F;}
	.st8{fill:#00B7FF;}
	.st9{fill:#D3D8DC;}
	.st10{fill:#FFFFFF;}
	.st11{fill:#EDECE4;}
	.st12{fill:#8E9298;}
	.st13{fill:#926347;}
	.st14{opacity:0.38;}
	.st15{opacity:0.49;}
	.st16{fill:#2D1F1C;}
	.st17{fill:#AFB3BC;}
</style>
<g id="Illustration_3" transform="translate(-107.05 -40.03)">
	<g id="Grupo_213" transform="translate(158.83 40.03)">
		<path id="Caminho_112" class="st0" d="M446.51,112.07c1.49,10.45,69.37,18.66,112.27,17.15c42.9-1.5,29.46,17.91,3.37,24.62
			s-182.02-0.75-216.32,8.21s-7.46,37.29-7.46,37.29C439.81,251.56,608.4,223.21,657.64,218c32.83-3.48,66.33-2.65,79.92,16.66
			c11.25,16,4.7,38.28,2.89,44.51c-16.56,56.75-91.33,81.37-127.98,93.44c-35.9,11.83-102.27,27.55-190.35,12.77
			c-39.35,28-78.7,56-118.05,84l79.82,43.26l111.88-106.67c0,0,126.81,0,182.02,5.23s118.6,46.99,91.75,100.7
			C685.24,670.05,335.6,682.72,335.6,682.72C88.16,674.52,53.4,588,13.86,514.14s12.67-129.8,44.97-157.4s102.72-55.95,110.18-90.27
			s-61.16-46.25-82.81-59.68s-41.78-32.83-13.43-59.68S178.7,121,178.7,121s117.11-44.02,144.71-52.96s9.7-22.38-23.12-27.6
			S260,18.8,289.84,11.34c94-21.63,232-5.97,273.77,0s123.83,11.93,105.18,52.22S466.63,94.14,466.63,94.14
			C446.44,93.46,445.03,101.62,446.51,112.07z"/>
	</g>
	<g id="Grupo_214" transform="translate(293.025 57.112)">
		<circle id="Elipse_28" class="st1" cx="66.81" cy="67.4" r="67.15"/>
	</g>
	<g id="Grupo_215" transform="translate(868.454 451.354)">
		<rect id="Retângulo_34" x="-0.33" y="0.25" class="st2" width="25.24" height="206.32"/>
	</g>
	<g id="Grupo_216" transform="translate(837.796 445.299)">
		<path id="Caminho_113" class="st2" d="M-0.33,6.31v158.11H20.1V0.25L-0.33,6.31z"/>
	</g>
	<g id="Grupo_217" transform="translate(833.642 450.087)">
		<path id="Caminho_114" class="st3" d="M-0.33,1.52v152.67l4.15,5.44V0.25L-0.33,1.52z"/>
	</g>
	<g id="Grupo_218" transform="translate(865.581 451.354)">
		<path id="Caminho_115" class="st3" d="M2.54,0.25l-2.87,3.76v196.49l2.87,6.07V0.25z"/>
	</g>
	<g id="Grupo_219" transform="translate(576.86 445.299)">
		<ellipse id="Elipse_29" class="st4" cx="62.66" cy="10.15" rx="62.99" ry="9.9"/>
	</g>
	<g id="Grupo_220" transform="translate(611.461 450.298)">
		<path id="Caminho_116" class="st5" d="M-0.33,13.45c12.8,0.42,23.49,0.37,31.31,0.21c28.04-0.54,37.05-2.68,40.67-3.62
			c8.54-2.23,16.77-5.52,24.49-9.79c3.48,0.35,6.96,0.71,10.43,1.07c-17.19,11.25-37.16,17.51-57.7,18.1
			c4.73-0.03,13.35,0.66,19.8,6.6c6.28,5.79,7.52,13.82,8.1,18.1c2.31,17.38,5.17,60.12,7.03,116.9l-9.58,0.42
			c-0.66-22.81-1.91-46.43-3.73-70.85c-0.99-12.9-2.11-25.55-3.37-37.95c-0.43-4.75-2.47-9.21-5.77-12.65
			c-1.24-1.28-2.65-2.39-4.17-3.32c-2.45-1.49-5.24-2.52-11.93-3.41c-7.53-0.99-15.14-1.2-22.71-0.63c0.03,3.11,0.01,1.83,0.04,4.94
			c6.6,0.32,13.2,0.64,19.8,0.96c5.71,0.22,11.08,2.74,14.91,6.97c0.03,0.04,0.06,0.08,0.1,0.11c2.58,2.95,4.47,6.45,5.53,10.22
			c0.34,1.52,0.82,3.72,1.28,6.39c1.03,5.99,1.67,12.03,1.91,18.1c0.8,16.38-0.55,40.07-0.63,41.52h-7.24l-1.7-57.7
			c-0.51-3.8-2.5-7.24-5.53-9.58c-2.64-1.95-5.87-2.93-9.15-2.77L2.9,52.22C1.79,39.29,0.72,26.37-0.33,13.45z"/>
	</g>
	<g id="Grupo_221" transform="translate(518.284 317.362)">
		<path id="Caminho_117" class="st5" d="M19.28,93.36C13.91,90.85,9.29,87,5.86,82.18c-5.17-7.41-5.62-14.8-6.07-22.36
			c-0.89-14.83,3.39-26.1,6.07-32.9c2.66-6.77,4.25-10.82,8.24-15.07c1.51-1.6,8.01-8.18,21.29-10.77
			c17.66-3.44,23.59,4.8,43.47,7.05c30.73,3.48,42.15-13.34,64-3.25c6.18,2.91,11.64,7.17,15.97,12.45
			c11.38,13.28,17.36,34.42,9.9,53.65c-3.78,9.4-10.22,17.51-18.52,23.32C106.57,94.01,62.93,93.69,19.28,93.36z"/>
	</g>
	<g id="Grupo_222" transform="translate(411.741 431.132)">
		<path id="Caminho_118" class="st5" d="M483.21,0.25v24.07l-348.36-0.99L-0.33,0.25H483.21z"/>
	</g>
	<g id="Grupo_223" transform="translate(307.403 404.586)">
		<path id="Caminho_119" class="st6" d="M-0.33,5.26l545.71-5.01l42.17,26.55H58.01L-0.33,5.26z"/>
	</g>
	<g id="Grupo_224" transform="translate(177.942 395.29)">
		<path id="Caminho_120" class="st7" d="M423.84,215.38l22.54-125.62c0,0,3.41-23.42-25.98-29.38S50.35,0.77,50.35,0.77
			S28.21-5.62,24.37,26.32S-0.33,195.8-0.33,195.8l11.07,90.71l293.83,60.05l96.14-91.24L423.84,215.38z"/>
	</g>
	<g id="Grupo_225" transform="translate(580.951 152.829)">
		<path id="Caminho_121" class="st8" d="M69.7,153.57h-0.3l-64.12-3.18c-3.27-0.17-5.79-2.95-5.62-6.22
			c0.01-0.16,0.02-0.31,0.04-0.47l12.94-98.42L23.46,4.65c0.72-2.67,3.18-4.49,5.94-4.39l88.76,3.34c3.27,0.12,5.82,2.87,5.69,6.14
			c-0.01,0.39-0.07,0.77-0.16,1.15l-9.55,39.57l-38.93,99.36C74.33,152.09,72.14,153.58,69.7,153.57z M16.86,46.25L3.98,144.26
			c-0.06,0.45,0.07,0.9,0.37,1.24c0.29,0.34,0.71,0.55,1.15,0.58l64.12,3.18c0.69,0.03,1.32-0.38,1.58-1.01l38.88-99.23l9.43-39.14
			c0.21-0.86-0.32-1.73-1.18-1.94c-0.11-0.03-0.22-0.04-0.33-0.04L29.25,4.56h-0.06c-0.73-0.01-1.37,0.49-1.55,1.2l0,0L16.86,46.25z
			"/>
	</g>
	<g id="Grupo_226" transform="translate(191.7 402.406)">
		<path id="Caminho_122" class="st9" d="M3.81,139.27L21.06,14.39c0,0-2.87-17.89,23.32-13.42s357.39,58.77,357.39,58.77
			s19.8-1.59,15.97,22.67s-43.43,232.71-43.43,232.71L-0.33,244.33v-52.06L3.81,139.27z"/>
	</g>
	<g id="Grupo_227" transform="translate(544.781 317.734)">
		<path id="Caminho_123" class="st8" d="M89.91,89.26h-0.28l-84.4-4.1c-1.77-0.08-3.4-0.96-4.44-2.39
			c-1.04-1.43-1.38-3.25-0.93-4.96L19.32,4.59c0.69-2.65,3.14-4.46,5.87-4.34l83.52,3.23c3.22,0.12,5.73,2.84,5.61,6.06
			c-0.02,0.41-0.07,0.81-0.17,1.21l-18.6,74.1C94.9,87.44,92.58,89.26,89.91,89.26z M24.97,4.57c-0.7,0-1.3,0.47-1.48,1.14
			L4.03,78.93c-0.13,0.45-0.04,0.93,0.24,1.3c0.27,0.38,0.7,0.61,1.17,0.63l84.4,4.1c0.72,0.02,1.37-0.46,1.56-1.15L110,9.7
			c0.11-0.45,0.02-0.93-0.25-1.3c-0.27-0.37-0.71-0.6-1.17-0.62L25.06,4.56C25.03,4.57,25,4.57,24.97,4.57L24.97,4.57z"/>
	</g>
	<g id="Grupo_228" transform="translate(202.657 431.132)">
		<path id="Caminho_124" class="st10" d="M31.17,0.25l-31.5,219.31l254.22,50.24l83.04,16.62l46.42-226.98L31.17,0.25z"/>
	</g>
	<g id="Grupo_229" transform="translate(503.926 526.405)">
		<path id="Caminho_125" class="st11" d="M-0.33,15.54c0-2.65,0.52-5.28,1.54-7.73c0.87-2.08,1.85-4.44,4.32-6.06
			c1.34-0.9,2.91-1.42,4.52-1.49c0.69-0.03,4.34-0.17,6.49,2.66c1.01,1.38,1.5,3.08,1.35,4.79l-0.85,7.6
			c-0.06,0.44-0.63,4.56-4.27,6.51c-3.21,1.73-6.46,0.48-7.83-0.04C3.38,21.27,2,20.3,0.99,18.99C0.28,17.96-0.17,16.78-0.33,15.54z
			"/>
	</g>
	<g id="Grupo_230" transform="translate(438.99 604.642)">
		<path id="Caminho_126" class="st11" d="M11.74,24.94c0.69-0.06,4.79-0.42,7.07-3.75c2-2.93,1.27-6.21,0.8-8.31
			C18.45,7.68,14.33,2.01,8.03,0.59C5.84,0.11,3.56,0.14,1.38,0.7c-0.43,0.18-0.81,0.47-1.1,0.83c-2.01,2.55,1.28,8.3,4.04,12.98
			C6.48,18.21,8.96,21.69,11.74,24.94z"/>
	</g>
	<g id="Grupo_231" transform="translate(198.601 678.028)">
		<path id="Caminho_127" class="st12" d="M3.72,0.25L268.8,54l11.87,6.55l-1.94,2.18L-0.33,5.7L3.72,0.25z"/>
	</g>
	<g id="Grupo_232" transform="translate(440.709 534.188)">
		<path id="Caminho_128" class="st13" d="M40.11,247.23c0,0-1.82-9.79-6.65-16.6s-11.66-30.66-14.63-47.28
			c-2.49-13.11-3.42-26.48-2.77-39.81c0.42-12.77-2.13-24.7-3.2-27.69s-3.3-21.18-3.3-21.18s11.39-2.03,5.21-13.1
			S-0.34,71.15-0.34,71.15s9.58-6.62,17.46,0s18.95,20.24,20.43,29.6s1.7,16.39,5.11,21.5c0,0,14.48-81.98,14.48-88.79
			s2.77-21.71,3.83-25.12c0.81-2.42,1.81-4.77,2.98-7.03c0,0-2.13,10.65,6.92,11.39S81.11,0.25,81.11,0.25s-1.07,34.81-1.28,47.8
			s0.54,29.7,0.54,29.7s-1.17,11.28,6.17,10.65s11.6-16.72,13.84-22.36s4.15-14.27,5.65-17.25s7.03-12.03,17.67-7.56
			s7.66,20.12,4.25,33.11c-3.41,12.98-2.66,12.35-2.66,12.35s7.66-23.95,17.25-23.48s22.19,6.39,20.76,16.77s-13.9,36.25-14.86,39.6
			s0.37,8.31,0.37,8.31s7.77-6.92,8.73-9.05c-1.39-0.84-2.59-1.96-3.51-3.3c-1.27-2.01,0.42-11.39,6.6-16.5s12.14-7.77,17.14-5
			s8.1,6.07,8.31,12.24s0.63,12.45-4.79,22.14s-40.35,93.37-48.33,101.99L40.11,247.23z"/>
	</g>
	<g id="Grupo_233" transform="translate(561.463 603.149)" class="st14">
		<path id="Caminho_129" class="st7" d="M13.99,0.28C13.95,5.99,12.91,11.65,10.91,17c-3.2,7.77-8.83,19.17-9.58,19.91
			s-2.87-0.54-0.75-4.48S11.02,9.01,11.56,4.32S13.99,0.28,13.99,0.28z"/>
	</g>
	<g id="Grupo_234" transform="translate(595.48 635.129)" class="st14">
		<path id="Caminho_130" class="st7" d="M0.43,8.21c0,0,6.17-5.53,9.05-7.56S9.06,4.9,6.82,7.14c-2.3,2.64-4.43,5.41-6.39,8.31
			C-0.62,13.15-0.62,10.51,0.43,8.21z"/>
	</g>
	<g id="Grupo_235" transform="translate(474.493 756.693)">
		<path id="Caminho_131" class="st5" d="M-0.33,21.16l3.98,13.7h116.1c0,0-4.96-22.01-6.22-22.65s-3.35-2.55-5.27-1.59l-3.2-9.1
			c0,0-31.31-4.31-54.94,2.87S21.54,15.58,21.54,15.58s-2.87-2.39-7.35-0.32C9.74,17.33-0.33,21.16-0.33,21.16z"/>
	</g>
	<g id="Grupo_236" transform="translate(181.674 535.102)">
		<path id="Caminho_132" class="st11" d="M-0.33,17.97c0,0,2.52-19.66,8.62-17.56s8.27,3.83,9.63,6.76s3.9,8.46-1.3,17.15
			c-1.93,2.98-7.29,3.25-9.04,2.7s-6.8-3.54-7.34-6.45S-0.33,17.97-0.33,17.97z"/>
	</g>
	<g id="Grupo_237" transform="translate(120.612 535.233)">
		<path id="Caminho_133" class="st13" d="M52.11,47.75c-5.06,2.69-11.24,6.21-18.1,10.65c-7.21,4.66-6.97,5.04-11.28,7.45
			c-11.08,6.2-14.79,4.93-18.74,10.01c-3.68,4.73-4.11,10.52-4.25,12.56c-0.3,3.9,0.39,6.76,1.28,10.43
			c1.63,6.8,1.76,9.7,4.69,19.59c2.06,6.94,3.66,17.7,1.28,34.07c12.66,14.8,33.92,34.63,65.16,44.5
			c5.03,1.59,10.15,2.86,15.34,3.83c3.15-4.44,5.79-9.23,7.88-14.26c3.65-8.82,7.24-17.52,4.69-26.83
			c-3.52-12.86-16.56-18.8-19.38-20.01c0.53-4.95,0.75-9.92,0.63-14.9c-0.27-12.77-2.51-19.98-4.9-35.77
			c-0.77-5.08-1.76-12.45-2.55-21.5c4.38-14.39,7.79-24.95,10.01-31.73c2.38-7.25,4.3-12.89,2.77-20.01
			c-0.55-2.58-2.2-10.29-8.94-13.84c-2.57-1.3-5.44-1.89-8.31-1.7c2.97,0.5,5.7,1.96,7.77,4.15c2.55,2.93,3.81,6.77,3.51,10.65
			c-0.08,2.42-0.27,7.51-4.37,10.32c-2.77,1.86-6.28,2.22-9.37,0.96c-3.48-1.47-5.85-4.76-6.17-8.52c-2.13,5.27-3.68,9.8-4.79,13.31
			c-1.16,3.53-2.12,7.12-2.87,10.76C52.59,44.27,52.29,46.3,52.11,47.75z"/>
	</g>
	<g id="Grupo_238" transform="translate(145.692 594.169)" class="st15">
		<path id="Caminho_134" class="st16" d="M23.14,0.84c2.24,2.65-10.41,10.67-11.49,24.76c-0.21,2.76-0.07,6.82-1.91,7.51
			c-1.52,0.58-3.97-1.31-5.27-2.87c-0.68-0.87-1.22-1.84-1.59-2.87c-2.24-5.28-3.35-7.91-3.2-8.94c0.3-1.86,1.79-3.37,4.79-6.39
			c1.63-1.65,1.8-1.52,4.31-3.83c4.13-3.79,4.15-4.56,6.07-5.75C17.4,0.85,21.92-0.6,23.14,0.84z"/>
	</g>
	<g id="Grupo_239" transform="translate(107.05 678.549)">
		<path id="Caminho_135" class="st5" d="M21.59,0.25c0,0,59.4,27.04,86.02,56.43c17.88,18.31,22.36,26.83,22.36,26.83
			s-8.94,15.55-14.9,18.74l-4.69,10.77H-0.33V27.3L21.59,0.25z"/>
	</g>
	<g id="Grupo_240" transform="translate(438.963 431.132)">
		<path id="Caminho_136" class="st17" d="M-0.33,0.25"/>
	</g>
	<g id="Grupo_243" transform="translate(348.426 525.204)">
		<g id="Grupo_242">
			<g id="Grupo_241">
				<circle id="Elipse_30" class="st6" cx="42.89" cy="43.47" r="43.22"/>
			</g>
		</g>
	</g>
	<g id="Grupo_246" transform="translate(369.676 548.172)">
		<g id="Grupo_245">
			<g id="Grupo_244">
				<path id="Caminho_137" class="st10" d="M-0.33,29.64l15.53,11.1L43.59,1.7l-2.66-1.45l-26.18,35.6L1.78,26.98L-0.33,29.64z"/>
			</g>
		</g>
	</g>
</g>
</svg>
