<?xml version="1.0" encoding="utf-8"?>
<!-- Generator: Adobe Illustrator 24.2.3, SVG Export Plug-In . SVG Version: 6.00 Build 0)  -->
<svg version="1.1" id="Layer_1" xmlns="http://www.w3.org/2000/svg" xmlns:xlink="http://www.w3.org/1999/xlink" x="0px" y="0px"
	 viewBox="0 0 949.33 751.8" style="enable-background:new 0 0 949.33 751.8;" xml:space="preserve">
<style type="text/css">
	.st0{fill:#E8ECEF;}
	.st1{fill:#926347;}
	.st2{fill:#185DC2;}
	.st3{fill:#D1D1D1;}
	.st4{fill:#F1A300;}
	.st5{fill:#222C51;}
	.st6{fill:#7F4F3F;}
	.st7{fill:#163C5C;}
	.st8{fill:#FFFFFF;}
</style>
<g id="Illustration_1" transform="translate(-68.312 -27.338)">
	<path id="Caminho_13" class="st0" d="M420.27,298.06c-72.32,18.69-129.9,14.12-164.83,8.19c-39.84-6.77-72.06-12.74-91.11-40.95
		c-18.06-26.74-17.5-63.45-4.1-91.11c18.12-37.36,55.21-49.03,68.59-53.24c69.33-21.81,131.92,24.36,140.25,30.71
		c0.83-14.05,5.07-52.56,34.81-82.93c26.8-27.36,59.11-32.54,86-36.85c66.35-10.65,117.86,10.85,180.19,36.85
		c29.73,12.4,52.43,25.16,71.66,48.11c9.77,11.7,17.71,24.82,23.55,38.9c12.6-7.59,42.94-23.36,81.9-19.45
		c12.51,1.26,37.86,4.15,59.38,23.55c7.35,6.63,26.16,23.6,24.58,45.05c-1.7,22.95-25.73,37.21-38.9,45.05
		c-49.15,29.2-105.6,19.52-131.04,13.31c-8.36,13.2-22.5,31.39-45.05,45.05c-32.35,19.6-65.88,20.11-121.83,15.36
		C535.84,318.66,477.72,310.1,420.27,298.06z"/>
	<path id="Caminho_25" class="st1" d="M664.61,474.32c2.4,3.5,5.86,8.41,10.15,14.16c8.3,11.13,18.25,24.36,33.01,39.08
		c6.72,6.69,13.01,12.9,22.69,19.96c7.66,5.59,15.79,10.51,24.31,14.67c15.12,7.31,31.3,12.18,47.95,14.41
		c5.52-0.19,11.04-0.08,16.55,0.34c6.14,0.47,11.38,0.89,18,2.72c3.89,1.07,7.69,2.47,11.35,4.17c15.41,1.24,31.72,2.11,48.89,2.39
		c13.44,0.22,26.36,0.11,38.74-0.34c7.51,2.12,15.13,4.4,22.86,6.83c2.23,0.7,4.45,1.42,6.65,2.14c0.47,0.12,1.14,0.28,1.96,0.42
		c2.42,0.43,4.88,0.57,7.34,0.42c6.69-0.26,10.03-0.4,13.22-1.36c1.98-0.6,3.89-1.4,5.71-2.39c0.84-0.73,1.7-1.52,2.56-2.39
		c2.28-2.29,4.31-4.8,6.06-7.51c1.83-2.8,5.73-7.57,14.54-16.33c0.34-0.33,0.57-0.74,0.67-1.2c0.23-1.12,0.17-2.28-0.19-3.37
		c-0.42-1.53-1.48-2.8-2.9-3.5c-0.55-0.2-1.13-0.29-1.71-0.25c-4.49,0.18-8.94,0.96-13.22,2.3c-11.09,3.92-11.06,4.09-14.16,4.95
		c-3.13,0.91-6.32,1.59-9.55,2.05c-2.94,0.38-5.91,0.56-8.88,0.51c2.53-1.62,4.9-3.48,7.07-5.55c3.13-2.96,4.22-4.76,4.86-6.23
		c1.22-2.74,0.94-4.31,0.85-4.69c-0.23-1.1-0.76-2.11-1.52-2.93c-0.44-0.51-1.19-0.63-1.77-0.28
		c-10.62,6.36-21.24,12.71-31.87,19.07c-2.46,0.26-4.58,0.5-7.04,0.78c-28.11-9.3-50.51-16.17-65.88-20.74
		c-12.82-3.81-29.03-8.49-51.95-16.04c-10.6-3.49-19.24-6.47-24.91-8.45c-4.02-2.41-7.9-5.06-11.6-7.94
		c-5.36-4.18-10.35-8.8-14.92-13.83c-6.39-7.08-12-14.84-16.73-23.13c-8.85-14.95-18.79-31.91-29.69-51.01
		c-18.88,10.44-37.76,20.88-56.65,31.31C665.18,463.18,664.89,468.74,664.61,474.32z"/>
	<path id="Caminho_26" class="st2" d="M454.74,608.26l8.88-42.66c-29.39-96.08-25.69-178.54,15.52-205.6
		c6.83-4.42,14.5-7.38,22.53-8.7c34.25-0.58,66.41-16.53,87.6-43.44c5.92,0.13,11.83,0.27,17.75,0.41
		c8.12-0.66,16.28-0.36,24.33,0.88c5.99,0.94,12.73,2.02,20.81,5.62c7.95,3.61,15.18,8.64,21.33,14.85
		c4.99,4.94,9.4,10.43,13.14,16.37c3.91,6.14,5.77,10.59,9.39,18.94c5.04,11.64,10.35,23.15,15.36,34.81
		c2.86,6.66,9.21,21.44,12.45,29.01c-18.21,12.51-36.41,25.02-54.6,37.54c-4.32,31.56-8.64,63.13-12.96,94.7
		c4.5,14.85,13.56,44.73,13.56,44.73s-40.27,13.18-61.42,21.22c-17.79,6.77-34.77,13.67-50.94,20.72
		c-18.27-7.6-37.12-15.11-56.56-22.53C485.26,619.21,469.87,613.59,454.74,608.26z"/>
	<ellipse id="Elipse_1" class="st3" cx="550.29" cy="752.35" rx="340.92" ry="25.03"/>
	<path id="Caminho_14" class="st4" d="M386.22,711.41c0,0-18.29-2.3-32.76-3.97s-31.87-5.13-43.13-6.14
		c-11.26-1.01-24.58-2.3-31.09,0v56.31c9.68,1.26,19.49,1.26,29.17,0c16.77-2.05,43.65-5.62,56.56-7.16s22.01-2.81,22.01-2.81
		L386.22,711.41z"/>
	<path id="Caminho_15" class="st4" d="M727.06,712.86c0.71-0.58,1.49-1.06,2.33-1.43c1.05-0.46,2.16-0.73,3.3-0.82
		c4.54-0.4,9.01-1.51,13.56-1.63c13.55-0.35,41.39-4.95,47.88-6.02c8.89-1.47,9.49-1.83,14.34-2.3c8.97-0.88,18.02-0.74,26.96,0.42
		c-0.06,18.88-0.12,37.76-0.18,56.65c-5.62,0.03-13.62-0.04-23.2-0.51c-12.22-0.6-21.98-1.61-38.23-3.59
		c-13.36-1.63-30.39-3.81-50.34-6.65C724.68,735.61,725.87,724.23,727.06,712.86z"/>
	<path id="Caminho_28" class="st5" d="M591.1,193.76c0.15,9.94,0.59,21.95,1.67,35.57c0.97,14.68,2.76,29.29,5.38,43.76
		c2.2,11.87,5.02,23.62,8.45,35.19l-19.39,0.13c-3.36,0.46-6.77-0.12-9.78-1.67c-3.11-1.66-5.62-4.26-7.16-7.43
		c-1.22-2.34-3.33-4.71-3.63-6.45c-3.21-17.75-0.82-12.6-1.32-16.34c-1.08-8.11-1.89-14.35-2.39-18.26
		c11.35-32.51,14.88-47.67,15.19-54.78c0.07-1.63,0.22-8.77,4.44-11.44c2.6-1.94,6.28-1.4,8.22,1.2
		C590.89,193.43,591,193.59,591.1,193.76L591.1,193.76z"/>
	<path id="Caminho_16" class="st1" d="M386.22,711.41c11.56-2.05,23.12-4.1,34.68-6.14c9.77,1.67,19.54,3.33,29.31,4.99l-3.08,33.79
		c-13.62,0.64-27.4,1.41-41.33,2.3c-6.3,0.41-12.58,0.84-18.8,1.27C379.43,736.82,379.13,722.53,386.22,711.41L386.22,711.41z"/>
	<path id="Caminho_17" class="st6" d="M562.82,257.88c1.71,1.52,1.38,2.99,2.81,19.96c0.42,4.94,0.89,9.93,3.46,15.48
		c1.83,3.95,3.5,5.57,4.86,6.53c2.4,1.7,4.04,1.49,7.43,2.94c2.84,1.24,5.44,2.97,7.67,5.13c-1.71,7.58-4.51,14.86-8.32,21.63
		c-3.62,6.4-9.18,16.27-20.86,23.55c-6.45,4.03-13.69,6.61-21.24,7.56c-7.7,0.87-15.49-0.05-22.77-2.68
		c3.53-5.33,12.26-20.12,9.59-38.39c-0.82-5.64-2.12-14.63-8.7-22.53c-4.94-5.92-11.23-9.32-16.64-19.45
		c-1.93-3.63-2.53-5.83-1.79-7.81c1.29-3.43,5.93-4.45,15.48-6.14c16.62-2.94,19.71-2.87,29.69-4.48
		C556.91,256.99,560.09,255.44,562.82,257.88z"/>
	<path id="Caminho_18" class="st1" d="M667.64,743.78c4.36,0.41,8.76,0.8,13.18,1.16c15.92,1.3,31.53,2.28,46.84,2.94
		c8.33-10.28,8.89-24.82,1.36-35.71l-53.33-8.7C673.02,716.92,670.33,730.36,667.64,743.78z"/>
	<path id="Caminho_19" class="st5" d="M470.68,744.51c3.08-0.29,7.47-0.72,12.71-1.27c15.52-1.66,27.58-3.31,36.18-4.53
		c11.73-1.66,37.66-5.3,53.75-8.1c19.23-3.34,53.75-10.57,103.4-27.12c7.28,1.24,14.56,2.49,21.84,3.75
		c26.1-5.96,47.88-12.3,64.41-17.58c21.7-7.33,42.9-16.05,63.48-26.1c10.26-4.96,19.61-11.63,27.64-19.71
		c9.83-9.95,12.18-16.73,13.05-19.71c0.95-3.31,3.41-12.32-0.51-22.01c-3.28-8.11-9.26-12.29-15.86-16.89
		c-7.35-5.16-15.74-8.66-24.58-10.24c-8.84-1.44-17.89-0.83-26.45,1.79c-24.46,1.22-48.71,5.09-72.34,11.53
		c-42.84,11.48-90.53,28.38-110.01,35.27c-66.16,23.38-63.37,21.84-76.32,27.18c-64.84,26.76-81.97,43.75-84.2,61.42
		c-0.53,4.46-0.19,8.99,1.02,13.31C462.16,731.82,466.42,738.16,470.68,744.51z"/>
	<path id="Caminho_20" class="st2" d="M469.07,718.15l5.98,33.79c-9.1,1.6-18.2,3.19-27.3,4.78c-3.08-15.07-6.15-30.14-9.21-45.21
		C448.7,713.71,458.88,715.93,469.07,718.15z"/>
	<path id="Caminho_21" class="st1" d="M503.2,268.37c8.52,5.88,18.93,8.37,29.19,7c7.18-0.47,14.17-2.51,20.47-5.98
		c5.39-3.05,10.14-7.11,13.99-11.95c5.17-6.25,7.54-12.05,9.55-17.06c2.56-6.6,4.33-13.47,5.29-20.48
		c1.2-7.28,1.77-14.64,1.71-22.01c0.96,0.45,2.01,0.69,3.08,0.69c2.56-0.04,4.35-1.6,5.71-2.81c2.89-2.67,4.91-6.15,5.8-9.99
		c0.54-2.2,1.41-5.77-0.18-9.48c-0.62-1.68-1.75-3.11-3.24-4.1c-1.26-0.76-2.71-1.14-4.17-1.11c-2.64,0.04-4.47,1.43-5.98,2.56
		c-1.44,1.09-2.68,2.42-3.66,3.93c1.66-5.24,4.44-16.92-0.51-29.09c-1-2.46-2.26-4.8-3.75-7c-5.89,4.18-12.07,7.91-18.51,11.18
		c-43.6,22.12-75.68,10.68-91.89,32.76c-6.69,9.11-7.37,19.43-7.43,23.04c-0.25,14.51,7.73,25.06,15.1,34.81
		C483.27,255.86,493.33,262.17,503.2,268.37z"/>
	<path id="Caminho_22" class="st7" d="M642.31,744.04c-13.06-1.32-30.73-3.24-51.57-5.89c-20.33-2.58-54.23-6.94-97.09-14.72
		c-50.57-9.18-84.82-17.93-113.98-25.43c-22.12-6.03-43.89-13.32-65.18-21.84c-11.42-4.77-22.48-10.36-33.1-16.73
		c-8.42-5.01-16.27-10.3-23.89-18.78c-7.95-8.83-9.64-14.47-10.24-16.89c-1.44-6.1-1.14-12.48,0.85-18.42
		c1.77-5.15,4.62-9.87,8.36-13.83c5.83-6.5,12.99-11.66,20.99-15.14c21.87-9.23,43.82-0.76,48.38,1.11
		c14,1.96,32.28,4.91,53.49,9.43c30.56,6.58,60.7,14.96,90.26,25.09c25.79,8.8,47.57,18.16,90.09,36.51
		c23.49,10.14,55.48,24.22,93.5,41.8C649.56,708.24,645.93,726.14,642.31,744.04z"/>
	<path id="Caminho_23" class="st1" d="M366.7,447.2c-8.11,14.91-17.01,29.37-26.66,43.34c-3.22,4.7-6.69,9.22-10.37,13.56
		c-5.73,6.72-12.39,14.44-22.91,21.5c-5.42,3.9-11.37,7-17.66,9.21c-4.88,1.64-7.15,1.74-18.29,4.61
		c-6.23,1.6-10.25,2.78-13.05,3.59c-16.8,4.76-41.11,9.91-47.35,11.26c-13.83,2.99-34.01,7.79-60.66,15.61
		c-2.58-0.06-5.15-0.13-7.75-0.19c-7.28-4.57-14.68-9.41-22.2-14.53c-3.75-2.56-7.42-5.12-11-7.67c-1.08,1.08-1.79,2.47-2.05,3.97
		c-0.07,0.47-0.26,2.07,1.03,4.86c0.75,1.64,1.8,3.24,5.24,6.78c1.33,1.38,3.18,3.19,5.51,5.24c-4.54-0.33-9.04-1.1-13.43-2.3
		c-5.26-1.53-10.43-3.37-15.48-5.51c-2.56-1.1-5.04-1.89-9.99-3.46c-1.94-0.66-3.98-0.91-6.02-0.76c-1.64,0.13-3.31,0.26-4.48,1.54
		c-1.74,1.9-1,4.86-0.89,5.24c1.43,1.63,3.5,4.03,5.89,7.04c2.93,3.71,5.02,6.65,7.56,10.24c1.49,2.11,3.5,5.01,5.83,8.51
		c0.74,0.7,1.54,1.34,2.37,1.92c2.27,1.55,4.78,2.69,7.43,3.4c4.08,1.19,8.29,1.88,12.54,2.05c3.59,0.13,7.19-0.06,10.75-0.57
		c9.45-1.42,18.74-3.71,27.77-6.84c5.43,0.72,13.17,1.6,22.48,2.21c12.11,0.81,21.46,0.79,30.89,0.69
		c13.31-0.15,32.19-0.53,55.8-1.54c2.54-2.14,5.28-4.03,8.19-5.62c1.79-0.98,6.74-3.59,16.04-5.71c7.03-1.56,14.21-2.39,21.41-2.48
		c7.58-0.25,15.16,0.06,22.69,0.94c4.57-1.53,9.04-3.33,13.4-5.38c8.42-4.03,16.42-8.89,23.89-14.5
		c7.14-5.18,13.98-10.76,20.48-16.73c9.55-8.72,18.45-18.12,26.61-28.15c4.13-12.02,8.26-24.05,12.38-36.09
		c0.56-3.25,0.3-6.6-0.76-9.73C416.92,452.91,394.75,445.15,366.7,447.2z"/>
	<path id="Caminho_24" class="st2" d="M415.79,482.47c-17.87-10.49-35.74-20.98-53.62-31.47c7.47-11.17,14.93-22.35,22.39-33.52
		l51.05,31.99C429.02,460.46,422.41,471.46,415.79,482.47z"/>
	<path id="Caminho_27" class="st5" d="M473.25,203.62c11.97,2.22,24.27,1.87,36.09-1.02c21.31-5.29,34.7-17.55,43-25.34
		c9.87-9.3,18.09-20.2,24.31-32.25c-0.77,11.79,0.57,23.61,3.95,34.93c0.95-3.18,3.24-5.8,6.27-7.16
		c2.19-4.98,3.49-10.31,3.84-15.74c0.1-1.58,0.41-7.87-2.3-17.66c-2.3-8.27-5.2-18.72-14.34-28.15
		c-8.74-9.02-18.63-12.39-24.31-14.34c-5.64-1.88-11.48-3.08-17.4-3.59c-37.73-3.44-71.15,14.85-71.15,14.85
		c-23.84,13.05-37.02,30.36-43,38.39c-12.4,16.67-17.6,31.3-24.06,49.4c-6.53,18.34-12.6,35.85-12.54,59.64
		c-0.06,12.92,1.84,25.78,5.62,38.14c2.52,7.93,5.88,15.57,10,22.79c3.85,5.63,6.22,12.14,6.88,18.92
		c0.42,3.85,0.16,7.75-0.76,11.51c-1.28,4.69-3.55,9.05-6.65,12.8c-11.32,14.73-14.66,34.84-15.1,37.63
		c-1,6.3-2.53,16.07,1.54,27.39c3.58,9.56,10.01,17.78,18.42,23.55c4.47,5.64,7.86,12.06,9.99,18.94c1.98,5.75,2.77,11.85,2.3,17.91
		c-0.38,3.49-1.15,6.92-2.3,10.24c-0.48,1.64-4.76,16.3-5.38,28.41c-0.38,7.63-0.88,17.43,4.86,27.12
		c6.28,10.6,16.36,14.88,20.23,16.51c10.77,4.55,20.14,3.75,26.61,3.19c9.4-0.8,18.53-1.6,26.36-8.45
		c8.07-7.06,10.11-16.51,11.51-23.04c1.91-9.07,1.61-18.46-0.89-27.39c-1.02-3.27-1.37-6.7-1.02-10.11
		c0.42-3.6,1.55-7.08,3.33-10.24c2.46-4.42,5.15-6.5,7.16-8.57c7.34-7.56,8.55-18.13,9.21-23.93c0.89-8.28-0.16-16.65-3.08-24.44
		c-2.2-6.03-3.91-7.32-6.78-15.86c-1.8-5.38-3.08-9.27-3.46-14.72c-0.25-3.7-0.73-10.6,2.56-17.8c0.61-1.33,0.78-1.42,6.53-9.99
		c3.97-5.92,5.96-8.86,6.91-10.37c4.11-6.66,7.3-13.85,9.48-21.37c2.59-8.11,4.66-14.54,4.61-23.55c0.01-5.91-0.94-11.79-2.81-17.4
		c-0.67-1.95-1.74-4.64-7.05-13.43c-6.77-11.25-12.64-19.57-14.21-21.75c-8.17-11.48-7.98-9.95-12.16-16.51
		c-4.3-6.75-8.02-13.85-11.13-21.23c-1.51-3.62-3-7.84-6.02-16.26C475.39,209.82,474.11,206.14,473.25,203.62z"/>
	<path id="Caminho_29" class="st5" d="M835.41,701.09c0,0,27.12,1.71,32.25,24.91c2.3,11.95-1.11,18.26-5.13,21.5
		s-15.44,9.99-27.3,10.24L835.41,701.09z"/>
	<path id="Caminho_30" class="st2" d="M651.81,680.95c-3.93,23.61-7.85,47.21-11.78,70.81c9.1,1.76,18.2,3.52,27.3,5.29
		c4.55-22.58,9.1-45.16,13.65-67.74C671.26,686.53,661.54,683.74,651.81,680.95z"/>
	<rect id="Ret창ngulo_4" x="758.89" y="714.91" class="st8" width="6.4" height="24.83"/>
	<rect id="Ret창ngulo_5" x="773.81" y="714.91" class="st8" width="7" height="24.83"/>
	<rect id="Ret창ngulo_6" x="334.27" y="714.74" class="st8" width="7.05" height="24.88"/>
	<rect id="Ret창ngulo_7" x="349.88" y="714.74" class="st8" width="6.4" height="24.88"/>
	<path id="Caminho_31" class="st5" d="M279.25,701.31c0,0-31.39,2.3-32.91,30.07c0,0-1.19,14.65,12.43,20.61
		c11.83,5.18,20.48,5.62,20.48,5.62L279.25,701.31z"/>
</g>
</svg>
