<svg width="350" height="300" viewBox="0 0 350 300" fill="none" xmlns="http://www.w3.org/2000/svg">
<path d="M181.468 45.9786V42.9082H184.419C187.991 42.9082 190.887 39.8961 190.887 36.1823C190.887 32.4684 187.991 29.4563 184.419 29.4563H181.468V26.3871C181.468 22.6732 178.571 19.6611 174.999 19.6611C171.428 19.6611 168.531 22.6732 168.531 26.3871V29.4563H165.58C162.008 29.4563 159.111 32.4684 159.111 36.1823C159.111 39.8961 162.008 42.9082 165.58 42.9082H168.531V45.9775C168.531 49.6913 171.428 52.7034 174.999 52.7034C178.571 52.7034 181.468 49.6924 181.468 45.9786Z" fill="#001533"/>
<path d="M59.2042 191.638C62.7758 191.638 65.6724 188.626 65.6724 184.912V175.256C65.6724 171.542 62.7758 168.53 59.2042 168.53C55.6327 168.53 52.7361 171.542 52.7361 175.256V184.912C52.7361 188.626 55.6327 191.638 59.2042 191.638Z" fill="#001533"/>
<path d="M84.8925 191.638C88.464 191.638 91.3607 188.626 91.3607 184.912V175.256C91.3607 171.542 88.464 168.53 84.8925 168.53C81.321 168.53 78.4244 171.542 78.4244 175.256V184.912C78.4244 188.626 81.32 191.638 84.8925 191.638Z" fill="#001533"/>
<path d="M59.2042 224.868C62.7758 224.868 65.6724 221.856 65.6724 218.142V208.486C65.6724 204.772 62.7758 201.76 59.2042 201.76C55.6327 201.76 52.7361 204.772 52.7361 208.486V218.142C52.7361 221.856 55.6327 224.868 59.2042 224.868Z" fill="#001533"/>
<path d="M84.8925 224.868C88.464 224.868 91.3607 221.856 91.3607 218.142V208.486C91.3607 204.772 88.464 201.76 84.8925 201.76C81.321 201.76 78.4244 204.772 78.4244 208.486V218.142C78.4244 221.856 81.32 224.868 84.8925 224.868Z" fill="#001533"/>
<path d="M59.2042 258.095C62.7758 258.095 65.6724 255.083 65.6724 251.369V241.713C65.6724 237.999 62.7758 234.987 59.2042 234.987C55.6327 234.987 52.7361 237.999 52.7361 241.713V251.369C52.7361 255.084 55.6327 258.095 59.2042 258.095Z" fill="#001533"/>
<path d="M84.8925 258.095C88.464 258.095 91.3607 255.083 91.3607 251.369V241.713C91.3607 237.999 88.464 234.987 84.8925 234.987C81.321 234.987 78.4244 237.999 78.4244 241.713V251.369C78.4244 255.084 81.32 258.095 84.8925 258.095Z" fill="#001533"/>
<path d="M265.108 191.638C268.679 191.638 271.576 188.626 271.576 184.912V175.256C271.576 171.542 268.679 168.53 265.108 168.53C261.536 168.53 258.639 171.542 258.639 175.256V184.912C258.639 188.626 261.536 191.638 265.108 191.638Z" fill="#001533"/>
<path d="M290.796 191.638C294.367 191.638 297.264 188.626 297.264 184.912V175.256C297.264 171.542 294.367 168.53 290.796 168.53C287.224 168.53 284.328 171.542 284.328 175.256V184.912C284.328 188.626 287.223 191.638 290.796 191.638Z" fill="#001533"/>
<path d="M265.108 224.868C268.679 224.868 271.576 221.856 271.576 218.142V208.486C271.576 204.772 268.679 201.76 265.108 201.76C261.536 201.76 258.639 204.772 258.639 208.486V218.142C258.639 221.856 261.536 224.868 265.108 224.868Z" fill="#001533"/>
<path d="M290.796 224.868C294.367 224.868 297.264 221.856 297.264 218.142V208.486C297.264 204.772 294.367 201.76 290.796 201.76C287.224 201.76 284.328 204.772 284.328 208.486V218.142C284.328 221.856 287.223 224.868 290.796 224.868Z" fill="#001533"/>
<path d="M265.108 258.095C268.679 258.095 271.576 255.083 271.576 251.369V241.713C271.576 237.999 268.679 234.987 265.108 234.987C261.536 234.987 258.639 237.999 258.639 241.713V251.369C258.639 255.084 261.536 258.095 265.108 258.095Z" fill="#001533"/>
<path d="M290.796 258.095C294.367 258.095 297.264 255.083 297.264 251.369V241.713C297.264 237.999 294.367 234.987 290.796 234.987C287.224 234.987 284.328 237.999 284.328 241.713V251.369C284.328 255.084 287.223 258.095 290.796 258.095Z" fill="#001533"/>
<path d="M155.688 142.028V151.684C155.688 155.398 158.584 158.41 162.156 158.41C165.727 158.41 168.624 155.398 168.624 151.684V142.028C168.624 138.314 165.727 135.302 162.156 135.302C158.584 135.302 155.688 138.314 155.688 142.028Z" fill="#001533"/>
<path d="M181.376 142.028V151.684C181.376 155.398 184.273 158.41 187.844 158.41C191.416 158.41 194.312 155.398 194.312 151.684V142.028C194.312 138.314 191.416 135.302 187.844 135.302C184.273 135.302 181.376 138.314 181.376 142.028Z" fill="#001533"/>
<path d="M162.156 168.53C158.584 168.53 155.688 171.542 155.688 175.256V184.912C155.688 188.626 158.584 191.638 162.156 191.638C165.727 191.638 168.624 188.626 168.624 184.912V175.256C168.624 171.541 165.728 168.53 162.156 168.53Z" fill="#001533"/>
<path d="M187.844 168.53C184.273 168.53 181.376 171.542 181.376 175.256V184.912C181.376 188.626 184.273 191.638 187.844 191.638C191.416 191.638 194.312 188.626 194.312 184.912V175.256C194.312 171.541 191.416 168.53 187.844 168.53Z" fill="#001533"/>
<path d="M162.156 201.76C158.584 201.76 155.688 204.772 155.688 208.486V218.142C155.688 221.856 158.584 224.868 162.156 224.868C165.727 224.868 168.624 221.856 168.624 218.142V208.486C168.624 204.771 165.728 201.76 162.156 201.76Z" fill="#001533"/>
<path d="M187.844 201.76C184.273 201.76 181.376 204.772 181.376 208.486V218.142C181.376 221.856 184.273 224.868 187.844 224.868C191.416 224.868 194.312 221.856 194.312 218.142V208.486C194.312 204.771 191.416 201.76 187.844 201.76Z" fill="#001533"/>
<path d="M343.532 286.548H329.937V143.761C329.937 140.046 327.04 137.035 323.469 137.035H239.383V88.8966C239.383 85.1828 236.486 82.1707 232.914 82.1707H181.468V72.3654H203.327C206.898 72.3654 209.795 69.3533 209.795 65.6395V6.72593C209.795 3.01209 206.898 0 203.327 0H146.671C143.1 0 140.203 3.01209 140.203 6.72593V65.6395C140.203 69.3533 143.1 72.3654 146.671 72.3654H168.53V82.1707H117.084C113.512 82.1707 110.615 85.1828 110.615 88.8966V137.035H26.5292C22.9577 137.035 20.061 140.046 20.061 143.761V286.548H6.46817C2.89666 286.548 0 289.56 0 293.274C0 296.988 2.89666 300 6.46817 300H343.532C347.103 300 350 296.988 350 293.274C350 289.56 347.103 286.548 343.532 286.548V286.548ZM226.446 95.6225V286.548H215.606V256.983C215.606 253.269 212.709 250.257 209.137 250.257H140.863C137.291 250.257 134.394 253.269 134.394 256.983V286.549H123.554V95.6225H226.446V95.6225ZM202.669 286.548H147.331V263.709H202.669V286.548ZM317.001 286.548H239.383V150.487H317.001V286.548ZM110.618 286.548H32.9995V150.487H110.618V286.548ZM153.14 13.4519H196.86V58.9135H153.14V13.4519V13.4519Z" fill="#001533"/>
</svg>
