<?xml version="1.0" encoding="utf-8"?>
<!-- Generator: Adobe Illustrator 24.2.3, SVG Export Plug-In . SVG Version: 6.00 Build 0)  -->
<svg version="1.1" id="Layer_1" xmlns="http://www.w3.org/2000/svg" xmlns:xlink="http://www.w3.org/1999/xlink" x="0px" y="0px"
	 viewBox="0 0 78.25 70.07" style="enable-background:new 0 0 78.25 70.07;" xml:space="preserve">
<style type="text/css">
	.st0{fill:#006FFF;}
</style>
<g>
	<g id="hospital" transform="translate(25.535 0)">
		<g id="Caminho_140">
			<path class="st0" d="M6.68,55.26h4.6v14.81h-4.6C6.68,70.07,6.68,55.26,6.68,55.26z"/>
		</g>
		<g id="Caminho_141">
			<path class="st0" d="M15.89,55.26h4.6v14.81h-4.6V55.26z"/>
		</g>
		<g id="Caminho_142">
			<path class="st0" d="M34.31,58.96h18.41v11.11H34.31V58.96z"/>
		</g>
		<g id="Caminho_143">
			<path class="st0" d="M34.31,30.45v22.21h18.41V30.45H34.31z M45.81,48.96h-4.6v-3.7h4.6V48.96z M45.81,41.56h-4.6v-3.7h4.6V41.56
				z"/>
		</g>
		<g id="Caminho_144">
			<path class="st0" d="M-25.53,52.66h18.41V30.45h-18.41V52.66z M-18.64,37.85h4.6v3.7h-4.6C-18.64,41.55-18.64,37.85-18.64,37.85z
				 M-18.64,45.25h4.6v3.7h-4.6C-18.64,48.95-18.64,45.25-18.64,45.25z"/>
		</g>
		<g id="Caminho_145">
			<path class="st0" d="M-25.53,58.96h18.41v11.11h-18.41V58.96z"/>
		</g>
		<g id="Caminho_146">
			<path class="st0" d="M-2.52,70.07h4.6V49.46h23.02v20.61h4.6V0H-2.52V70.07z M15.89,45.34h-4.6v-4.12h4.6V45.34z M15.89,37.09
				h-4.6v-4.12h4.6V37.09z M15.89,28.85h-4.6v-4.12h4.6V28.85z M25.09,45.34h-4.6v-4.12h4.6V45.34z M25.09,37.09h-4.6v-4.12h4.6
				V37.09z M25.09,28.85h-4.6v-4.12h4.6V28.85z M6.68,12.36h4.6V8.24h4.6v4.12h4.6v4.12h-4.6v4.12h-4.6v-4.12h-4.6
				C6.68,16.48,6.68,12.36,6.68,12.36z M2.08,24.73h4.6v4.12h-4.6V24.73z M2.08,32.97h4.6v4.12h-4.6V32.97z M2.08,41.22h4.6v4.12
				h-4.6V41.22z"/>
		</g>
	</g>
</g>
</svg>
