<?xml version="1.0" encoding="utf-8"?>
<!-- Generator: Adobe Illustrator 24.2.3, SVG Export Plug-In . SVG Version: 6.00 Build 0)  -->
<svg version="1.1" id="Layer_1" xmlns="http://www.w3.org/2000/svg" xmlns:xlink="http://www.w3.org/1999/xlink" x="0px" y="0px"
	 viewBox="0 0 960.38 602.14" style="enable-background:new 0 0 960.38 602.14;" xml:space="preserve">
<style type="text/css">
	.st0{fill:#0F0F0F;}
	.st1{fill:#F1F2F6;}
	.st2{fill:#383838;}
	.st3{fill:#FFFFFF;}
	.st4{font-family:'Montserrat-SemiBold';}
	.st5{font-size:17px;}
	.st6{fill:#012F66;}
	.st7{font-size:8px;}
	.st8{font-family:'Montserrat-Medium';}
	.st9{fill:none;stroke:#D6D6D6;stroke-width:0.5;stroke-miterlimit:10;}
	.st10{font-family:'Montserrat-Regular';}
	.st11{font-size:7px;}
	.st12{fill:none;stroke:#000000;stroke-width:0.25;stroke-miterlimit:10;}
	.st13{font-size:9px;}
	.st14{fill:#012F67;}
	.st15{fill:#E8ECEF;}
	.st16{fill:none;stroke:#474747;stroke-miterlimit:10;}
	.st17{fill:none;stroke:#474747;stroke-linecap:round;stroke-miterlimit:10;}
	.st18{fill:#185DC2;}
	.st19{fill:#163C5C;}
	.st20{fill:#222C51;}
	.st21{fill:#C18776;}
	.st22{fill:#171E1E;}
	.st23{fill:#F1A300;}
	.st24{fill:#FFCC61;}
	.st25{fill:none;}
	.st26{font-size:6px;}
	.st27{fill:#FEFEFE;}
	.st28{fill:#686868;}
	.st29{fill:#121212;}
	.st30{fill:#424242;}
	.st31{fill:#DBDBDB;}
	.st32{font-size:4px;}
	.st33{fill:none;stroke:#474747;stroke-width:0.25;stroke-miterlimit:10;}
</style>
<g>
	<g id="Grupo_349" transform="translate(87.806)">
		<path id="Caminho_400" class="st0" d="M777.19,524.96h-772V22.94C5.19,10.27,15.46,0,28.13,0c0,0,0,0,0,0h726.1
			c12.67,0,22.94,10.27,22.94,22.94c0,0,0,0,0,0v502.01H777.19z"/>
	</g>
	<rect id="Retângulo_47" x="122.2" y="38.14" class="st1" width="713.59" height="444.2"/>
	<rect id="Retângulo_48" x="477.41" y="524.96" class="st2" width="286.07" height="19.77"/>
	<g id="Grupo_350" transform="translate(117.012 38.137)">
		<rect id="Retângulo_49" x="359.66" y="0" class="st3" width="359.12" height="443.91"/>
		<text transform="matrix(1 0 0 1 440.9393 116.673)" class="st4 st5">Entrar</text>
		<rect id="Retângulo_50" x="440.95" y="300.75" class="st6" width="199.64" height="25.25"/>
		<text transform="matrix(1 0 0 1 528.0712 315.633)" class="st3 st4 st7">Entrar</text>
		<text transform="matrix(1 0 0 1 440.9393 137.227)" class="st8 st7">Por favor introduza as suas credenciais para</text>
		<text transform="matrix(1 0 0 1 440.9393 147.227)" class="st8 st7">aceder ao sitema de agendamento.</text>
		<rect id="Retângulo_51" x="440.95" y="178.02" class="st9" width="199.64" height="25.25"/>
		<rect id="Retângulo_52" x="440.95" y="232.67" class="st9" width="199.64" height="25.25"/>
		<text transform="matrix(1 0 0 1 456.5562 279.941)" class="st10 st7" style="text-decoration: underline;">Esqueceu sua senha?</text>
		<text transform="matrix(1 0 0 1 440.9393 225.248)" class="st10 st11">Password</text>
		<text transform="matrix(1 0 0 1 440.9393 171.237)" class="st10 st11">Email</text>
		<circle id="Elipse_32" class="st12" cx="446.81" cy="277.42" r="4.91"/>
		<text transform="matrix(1 0 0 1 444.4372 280.592)" class="st10 st13">?</text>
		<rect id="Retângulo_53" x="5.19" y="0" class="st14" width="354.47" height="443.91"/>
		<g id="Illustration_2_1_" transform="translate(72.691 75.912)">
			<path id="Caminho_95_1_" class="st15" d="M81.83,23.26c0,0-45.5,2.4-50.11-7.58S47.43,4.22,57.8,2.75s44.57-5.36,67.88,0
				c7.4,1.85,5.55,5.91-2.59,7.21s-12.58,4.63-5.73,6.84s35.88,13.13,35.88,13.13s19.23-0.19,26.26,6.46s2.04,11.46-3.33,14.79
				s-22.38,6.29-20.53,14.79s19.31,15.53,27.32,22.37s20.95,20.71,11.15,39.01s-18.42,39.75-79.76,41.77
				c0,0-86.68-3.14-107.58-42.33c-6.65-13.3,9.07-23.65,22.74-24.96s45.12-1.3,45.12-1.3l27.74,26.43l19.79-10.73l-9.61-43.62
				c0,0-48.82,14.96-63.8,13.68S18.25,84.44,13.99,69.1s8.33-16.45,20.53-15.17s54,8.31,79.16-4.63c0,0,6.65-7.03-1.85-9.24
				s-47.16-0.38-53.62-2.04s-9.8-6.46,0.83-6.1s27.46-1.66,27.84-4.25C87.19,25.1,86.83,23.09,81.83,23.26z"/>
			<g id="Grupo_212_1_" transform="translate(163.453 80.356)">
				<path id="Caminho_96_1_" class="st16" d="M12.7,37.73c-1.5,0.35-3.07,0.04-4.32-0.86c-0.63-0.44-2.56-2.01-3.08-7.15
					c-0.86-8.51,3.54-15.61,5.05-18c2.84-4.42,6.58-8.2,10.97-11.09c1.67-0.8,3.6-0.85,5.3-0.12c1.78,0.79,3.07,2.4,3.45,4.32
					c0.35,2.25-1.19,4.01-2.59,5.67c-1.8,2.12-2.86,2.29-4.56,3.82c-4.18,3.73-5.26,9.28-5.55,10.73c-0.75,3.82,0.15,5.2-1.35,8.74
					C14.66,36.98,13.18,37.57,12.7,37.73z"/>
				<path id="Caminho_97_1_" class="st16" d="M18.61,34.27c1.51-3.5,4.04-6.47,7.27-8.5c3.1-1.8,6.65-2.69,10.23-2.59
					c1.73-0.27,3.43,0.63,4.18,2.21c0.7,1.51,0.36,3.3-0.86,4.44c-1.01,0.8-1.94,0.3-4.06,0.62c-1.91,0.34-3.72,1.1-5.3,2.21
					c-2.15,1.33-3.99,3.09-5.42,5.18c-0.51,1.02-1.47,1.75-2.59,1.97c-1.81,0.21-3.29-1.42-3.7-2.84
					C18.15,36.07,18.23,35.12,18.61,34.27z"/>
				<path id="Caminho_98_1_" class="st17" d="M35.13,26.89c-3.36,0.55-6.51,1.99-9.12,4.18c-3.2,2.73-5.38,6.46-6.17,10.59
					c-0.36,2.04-0.36,4.13,0,6.17"/>
				<path id="Caminho_99_1_" class="st17" d="M20.96,7.41c-4.42,4.6-7.42,10.38-8.64,16.64c-2.41,12.91,4,22.81,5.42,24.89"/>
			</g>
			<path id="Caminho_100_1_" class="st18" d="M130.77,102.68c1.72-1.25,10.7-7.48,20.72-4.68c7.35,2.05,11.69,7.98,12.34,8.88
				c4.93,6.93,3.18,12.94,9.37,17.74c1.57,1.42,3.56,2.29,5.67,2.47c2.95,0.07,4.4-1.76,10.35-5.67c4.51-2.95,6.74-4.43,8.88-4.68
				c5.19-0.63,9.63,2.57,10.85,3.45c1.93,1.43,3.59,3.18,4.93,5.18c2.7,3.76,6.37,8.74,11.59,15.53c0.54,1.03,1.29,2.9,0.5,4.18
				c-0.89,1.46-3.27,1.47-4.18,1.47c-4.88,0.04-22.49,0.3-46.54,0.55c-12.89-3.02-25.77-6.03-38.65-9.05
				c-1.54-1.48-10.23-10.06-9.61-22.73C127.2,110.85,128.5,106.52,130.77,102.68z"/>
			<path id="Caminho_101_1_" class="st18" d="M119.43,51.29c1.36,6.52,1.65,13.23,0.86,19.85c2.05-0.38,4.12-0.74,6.17-1.11
				C126.59,63.11,124.07,56.41,119.43,51.29z"/>
			<path id="Caminho_102_1_" class="st19" d="M119.71,67.56c0,0,8.6-1.35,11.3,7.03s6.17,13.93,7.15,51.02l-23.18,6.79l-8.69-16.02
				c0,0,4.25-39.32,5.24-41.53l0.98-2.21L119.71,67.56z"/>
			<path id="Caminho_103_1_" class="st20" d="M27.72,147.32c12.77,7.82,42.67,20.5,77.65,21.66c15.64,0.51,41.3,1.56,65.41-12.54
				c4.59-2.6,8.39-6.09,12.51-9.4c-4.85-2.87-9.7-5.74-14.55-8.62c-3.92-1.89-8.23-2.82-12.58-2.71
				c-6.57,0.25-12.84,2.78-17.75,7.15c-23.84-4.18-47.68-8.37-71.51-12.57c-0.82-1.65-1.65-3.28-2.47-4.93
				c-3.06,0.85-6.06,1.88-9,3.08C43.09,133.46,33.98,141.2,27.72,147.32z"/>
			<path id="Caminho_104_1_" class="st21" d="M144.71,122.33c0,0,8.14,3.51,3.33,12.39s-22.55,20.06-35.04,22.52
				c-9.99,1.97-14.24-1.25-14.24-1.25s-5.82-2.23-4.44-4.72s13.32-4.25,13.32-4.25l20.34-13.21l6.57-9.15l5.27-2.31h4.89
				L144.71,122.33z"/>
			<path id="Caminho_105_1_" class="st20" d="M78.75,86.66c0,0,16.02,23.53,19.36,37.33l-3.2,12.7L63.16,124
				c0,0-5.86-18.24-6.72-31.3s0.5-17.38,6.72-19.22s43.08-7.75,56.86-5.9c0,0-4.22,1.77-4.35,6.09l-0.17,2.15
				c0,0-14.17,5.79-24.04,8.01S78.75,86.66,78.75,86.66z"/>
			<path id="Caminho_106_1_" class="st22" d="M101.38,78.72V96.1l0.7,5.36l0.86,0.5h10.94c0,0,2.49,0.15,2.49-3.96V78.4
				c0,0-0.03-3.02-2.31-3.02h-10.73C103.34,75.39,101.38,75.64,101.38,78.72z"/>
			<path id="Caminho_107_1_" class="st18" d="M26.53,163c0,0,21.64-18.3,28.29-18.3s6.65,1.66,9.99,8.31
				c3.34,6.65,8.33,4.99,13.32,1.66s9.99,1.66,11.65,6.65c0.96,2.68,1.52,5.48,1.66,8.31C91.45,169.65,45.76,171.13,26.53,163z"/>
			<path id="Caminho_108_1_" class="st21" d="M63.15,123.99c0,0,19.79-15.9,31.26-21.94c2.59-1.73,3.2-3.7,4.32-6.17
				s3.08-4.8,4.56-4.44s-0.5,3.45-0.86,5.18s-0.51,3.2,1.48,4.32c0,0,0.26,0.62-1.48,1.73c-2.96,2-5.58,4.45-7.76,7.27
				c-2.35,3.2-13.2,20.45-13.2,20.45L63.15,123.99z"/>
			<path id="Caminho_109_1_" class="st23" d="M63.15,124c0,0,19.79,2.04,26.26,7.03c6.46,4.99,30.14-2.21,34.96-4.8
				c4.81-2.59,14.24-6.84,20.34-3.88c0,0-5.55-0.95-9.99,4.71c-4.44,5.66-16.64,20.62-21.27,21.91s-16.28,2.21-16.28,2.21
				c0.01,2.83,1.9,5.31,4.63,6.06C101.8,157.24,64.63,151.91,63.15,124z"/>
			<path id="Caminho_110_1_" class="st21" d="M95.7,128.06c0,0,0-12.26,7.71-12.44s9.8,5.6,10.97,9.98l-10.45,6.79L95.7,128.06z"/>
			<circle id="Elipse_27_1_" class="st24" cx="144.61" cy="20.86" r="16.64"/>
			<path id="Caminho_111_1_" class="st20" d="M97.83,128.81c-0.98-0.75-0.78-1.14-3.18-3.77c-1.22-1.33-1.92-1.93-2.83-1.97
				c-0.76,0.02-1.48,0.32-2.04,0.83c-2.21,1.86-2.35,8.54-0.09,14.88c1.64,4.6,4.06,11.41,10.92,13.68
				c4.59,1.52,9.64,0.69,13.5-2.21c4.42-3.53,5.02-8.84,5.46-12.75c0.35-3.17,0.12-6.38-0.66-9.48c-0.43-1.94-1.97-3.44-3.92-3.82
				c-0.02,0-0.04,0-0.05-0.01c-0.47-0.07-1.93-0.2-5.36,1.85c-3.73,2.23-3.61,3.35-5.74,3.87
				C101.77,130.44,99.57,130.04,97.83,128.81z"/>
		</g>
		<g id="Logo_1_" transform="translate(57.8 265.594)">
			<g id="Grupo_5_1_" transform="translate(0)">
				<g id="Grupo_2_1_" transform="translate(20.594 0.119)">
					<g id="Grupo_1_1_">
						<g id="Caminho_1_1_" transform="translate(0 3.513)">
							<path id="Caminho_339_1_" class="st3" d="M15.34,1.84c0.99,1.65,1.45,3.58,1.3,5.5H9.49c0.35,1.06,1.3,1.57,2.86,1.57
								c0.88-0.07,1.74-0.27,2.56-0.6l0.56-0.19v3.39c-1.34,0.51-2.77,0.76-4.21,0.74c-1.1,0.02-2.19-0.22-3.17-0.72
								c-0.9-0.46-1.64-1.16-2.13-2.04C5.44,8.56,5.17,7.5,5.2,6.43C5.1,4.71,5.65,3.02,6.76,1.7c1.19-1.16,2.81-1.77,4.47-1.68
								C12.81-0.1,14.35,0.59,15.34,1.84z M9.96,3.49c-0.35,0.4-0.57,0.89-0.62,1.42h3.26c-0.03-0.52-0.2-1.03-0.5-1.46
								c-0.29-0.29-0.69-0.44-1.1-0.42C10.61,3.03,10.23,3.2,9.96,3.49L9.96,3.49z"/>
						</g>
						<g id="Caminho_2_1_" transform="translate(13.122 3.703)">
							<path id="Caminho_340_1_" class="st3" d="M7.15,11.88c-0.52-0.15-1.14-0.35-1.84-0.6V7.81C5.84,8.22,6.42,8.55,7.04,8.8
								c0.7,0.3,1.45,0.45,2.21,0.46c0.27,0.03,0.55-0.03,0.79-0.16c0.13-0.12,0.2-0.28,0.19-0.46c0-0.24-0.2-0.43-0.62-0.6
								C9.06,7.85,8.48,7.71,7.89,7.63c-0.74-0.11-1.42-0.48-1.9-1.06C4.94,5.13,4.93,3.18,5.96,1.73c0.48-0.61,1.13-1.07,1.87-1.33
								C8.57,0.12,9.36-0.02,10.15,0c0.8,0.02,1.59,0.12,2.36,0.31c0.55,0.17,1.07,0.41,1.56,0.72l0.03,3.03L13.3,3.61
								c-0.4-0.22-0.82-0.41-1.26-0.56c-0.4-0.14-0.81-0.21-1.23-0.2c-0.36-0.03-0.73,0.04-1.06,0.2C9.44,3.31,9.4,3.76,9.64,4.08
								l0,0C9.7,4.14,9.76,4.2,9.83,4.24c0.38,0.18,0.78,0.32,1.19,0.42c0.6,0.12,1.19,0.29,1.77,0.51
								c0.48,0.21,0.89,0.56,1.18,0.99c0.38,0.61,0.56,1.32,0.52,2.04c0.04,1.18-0.56,2.29-1.57,2.91c-1.19,0.65-2.54,0.95-3.9,0.88
								C8.4,12.05,7.77,12.01,7.15,11.88z"/>
						</g>
						<g id="Caminho_3_1_" transform="translate(23.861 3.513)">
							<path id="Caminho_341_1_" class="st3" d="M15.34,1.84c0.99,1.65,1.45,3.58,1.3,5.5H9.49c0.35,1.06,1.3,1.57,2.86,1.57
								c0.88-0.07,1.74-0.27,2.56-0.6l0.56-0.19v3.39c-1.34,0.51-2.77,0.76-4.21,0.74c-1.1,0.02-2.19-0.22-3.17-0.72
								c-0.9-0.46-1.64-1.16-2.13-2.04C5.44,8.56,5.17,7.5,5.2,6.43C5.1,4.71,5.65,3.02,6.76,1.7c1.19-1.16,2.81-1.77,4.47-1.68
								C12.81-0.1,14.36,0.58,15.34,1.84z M9.98,3.49c-0.35,0.4-0.57,0.89-0.62,1.42h3.26c-0.03-0.52-0.2-1.03-0.5-1.46
								c-0.29-0.29-0.69-0.44-1.1-0.42C10.62,3.03,10.24,3.2,9.98,3.49L9.98,3.49z"/>
						</g>
						<g id="Caminho_4_1_" transform="translate(37.329 3.569)">
							<path id="Caminho_342_1_" class="st3" d="M5.19,1.75c0.35-0.31,0.76-0.56,1.19-0.74c0.6-0.29,1.23-0.52,1.88-0.68
								c0.64-0.18,1.3-0.28,1.96-0.3c1.18-0.13,2.37,0.13,3.39,0.72v2.9c-0.49-0.11-0.99-0.18-1.49-0.2
								c-0.7-0.07-1.34-0.11-1.92-0.11C9.89,3.34,9.59,3.35,9.28,3.38v8.49H5.19V1.75z"/>
						</g>
						<g id="Caminho_5_1_" transform="translate(46.533 3.981)">
							<path id="Caminho_343_1_" class="st3" d="M18.8,0l-4.75,11.44H9.94L5.19,0h4.43l2.63,6.85L14.43,0H18.8z"/>
						</g>
						<g id="Caminho_6_1_" transform="translate(60.789 3.588)">
							<path id="Caminho_344_1_" class="st3" d="M14.55,0.85c1.18,0.66,1.84,1.96,1.68,3.3l-0.04,5.32
								c-0.03,1.8-1.92,2.68-5.69,2.71c-1.38,0.08-2.74-0.25-3.93-0.95C5.6,10.48,5.08,9.28,5.21,8.06C5.17,7.15,5.53,6.27,6.2,5.65
								c0.86-0.68,1.94-1.01,3.03-0.93c1.03,0.01,2.04,0.28,2.95,0.76V5.03c0-1.15-0.79-1.73-2.36-1.73
								C9.13,3.31,8.44,3.44,7.79,3.68c-0.58,0.2-1.13,0.5-1.61,0.88V1.01c0.58-0.33,1.22-0.57,1.88-0.7C9,0.1,9.97,0,10.93,0
								C12.19,0,13.42,0.29,14.55,0.85z M11.84,9.29c0.2-0.07,0.34-0.26,0.33-0.47V7.42c-0.37-0.11-0.75-0.16-1.14-0.15
								c-0.47-0.04-0.95,0.04-1.38,0.23C9.37,7.66,9.21,7.97,9.24,8.3c0.01,0.3,0.14,0.59,0.38,0.79c0.24,0.21,0.55,0.33,0.87,0.34
								C10.94,9.44,11.4,9.39,11.84,9.29L11.84,9.29z"/>
						</g>
						<g id="Caminho_7_1_" transform="translate(73.363 0.145)">
							<path id="Caminho_345_1_" class="st23" d="M5.19,17.59c0.58,0.08,1.16-0.08,1.61-0.46c0.35-0.41,0.52-0.95,0.46-1.49V4.01
								h2.36L9.64,15.7c0,2.6-1.46,3.93-4.44,3.93C5.19,19.62,5.19,17.61,5.19,17.59z M7.19,0h2.49v2.13h-2.5L7.19,0z"/>
						</g>
						<g id="Caminho_8_1_" transform="translate(80.649)">
							<path id="Caminho_346_1_" class="st23" d="M13.76,4.8c0.89,0.67,1.37,1.76,1.26,2.87v5.39c0.07,0.93-0.47,1.79-1.34,2.13
								c-1.23,0.45-2.55,0.66-3.86,0.6c-1.16,0.04-2.31-0.24-3.31-0.83c-0.91-0.62-1.41-1.69-1.3-2.79
								c-0.08-1.04,0.31-2.05,1.07-2.76c0.86-0.66,1.93-0.99,3.02-0.93c1.19-0.04,2.36,0.25,3.39,0.83v-1.1
								c0-1.53-0.93-2.29-2.76-2.29c-0.67,0-1.34,0.11-1.99,0.31C7.34,6.4,6.78,6.69,6.29,7.08V4.87C6.86,4.53,7.48,4.3,8.13,4.18
								C8.94,4,9.77,3.91,10.61,3.91C11.73,3.86,12.83,4.17,13.76,4.8z M12.11,13.73c0.36-0.09,0.61-0.43,0.58-0.8v-2.19
								c-0.8-0.33-1.66-0.5-2.52-0.5c-0.68-0.05-1.36,0.11-1.94,0.46c-0.43,0.31-0.68,0.81-0.66,1.34
								c-0.05,0.58,0.24,1.13,0.74,1.42c0.54,0.34,1.17,0.5,1.8,0.47C10.78,13.97,11.46,13.9,12.11,13.73L12.11,13.73z M10.93,0
								h2.36l-2.13,2.67H9.78L10.93,0z"/>
						</g>
					</g>
				</g>
				<g id="Grupo_4_1_">
					<g id="Grupo_3_1_">
						<g id="Caminho_9_1_" transform="translate(0 8.941)">
							<path id="Caminho_347_1_" class="st3" d="M7.13,0.74H5.6c-0.31,0-0.5-0.27-0.38-0.5c0.08-0.12,0.21-0.2,0.35-0.23
								c1.06-0.03,2.07-0.03,3.1,0c0.19-0.02,0.36,0.11,0.39,0.3c0,0.01,0,0.02,0,0.04v0.03c0,0.21-0.17,0.38-0.38,0.38H8.66
								C8.17,0.74,7.67,0.74,7.13,0.74z"/>
						</g>
						<g id="Caminho_10_1_" transform="translate(2.502)">
							<path id="Caminho_348_1_" class="st3" d="M21.87,1.72c-1.3-1.26-3.08-1.88-4.88-1.69H9.57L9.37,1.4H8.94
								c-0.3,0-0.43,0.12-0.43,0.35s0.15,0.38,0.43,0.38h0.35L7.56,14.43H5.62c-0.27,0-0.43,0.15-0.43,0.38s0.16,0.38,0.43,0.38
								h1.84l-0.08,0.54h4.36l0.66-4.75h1.9l2.49,4.75h5.01l-2.97-5.47c2.11-0.74,3.61-2.6,3.9-4.81V5.37
								C23.01,4.09,22.7,2.75,21.87,1.72z M18.73,5.5H16.6c-0.27,0-0.43,0.15-0.43,0.38s0.16,0.35,0.43,0.35h1.57
								c-0.45,0.91-1.43,1.45-2.44,1.33h-2.87l0.54-3.76h2.86c1.06,0,1.76,0.34,2.03,0.96h0.47c0.21-0.03,0.4,0.11,0.43,0.32
								s-0.11,0.4-0.32,0.43c-0.01,0-0.02,0-0.03,0h-0.09L18.73,5.5z"/>
						</g>
					</g>
				</g>
			</g>
		</g>
		<rect id="Retângulo_54" x="65.63" y="296.59" class="st25" width="167.14" height="35.37"/>
		<text transform="matrix(1 0 0 1 65.6282 301.226)" class="st3 st10 st26">Lorem ipsum dolor sit amet, consectetuer </text>
		<text transform="matrix(1 0 0 1 65.6282 309.226)" class="st3 st10 st26">adipiscing elit, sed diam nonummy nibh </text>
		<text transform="matrix(1 0 0 1 65.6282 317.226)" class="st3 st10 st26">euismod tincidunt ut laoreet dolore magna </text>
		<text transform="matrix(1 0 0 1 65.6282 325.226)" class="st3 st10 st26">aliquam erat volutpat. Ut wisi enim ad</text>
		<g id="XMLID_7_" transform="translate(76.725 355.493)">
			<rect id="XMLID_10_" x="5.52" y="3.9" class="st27" width="2.6" height="8.23"/>
			<path id="XMLID_9_" class="st27" d="M15.23,3.82c-1.06-0.1-2.08,0.44-2.6,1.37V3.9H9.7c0.04,0.68,0,8.23,0,8.23h2.92V7.66
				c-0.02-0.23,0-0.45,0.07-0.67c0.2-0.6,0.77-1.01,1.41-1.01c1.02,0,1.47,0.76,1.47,1.88v4.26h2.95V7.54
				C18.52,5.01,17.08,3.82,15.23,3.82z"/>
			<path id="XMLID_8_" class="st27" d="M6.78,0.01C5.99-0.08,5.28,0.49,5.2,1.28c0,0,0,0,0,0c-0.09,0.79,0.48,1.5,1.27,1.58
				c0,0,0,0,0,0c0.09,0.01,0.18,0.01,0.27,0h0.01c0.79,0.08,1.49-0.49,1.58-1.27c0.08-0.79-0.5-1.5-1.29-1.58H6.78z"/>
		</g>
		<g id="XMLID_3_" transform="translate(97.756 356.022)">
			<path id="XMLID_6_" class="st27" d="M13.97,0H8.34C6.59,0.03,5.19,1.45,5.19,3.2v5.5c-0.01,1.75,1.4,3.18,3.15,3.2h5.63
				c1.75-0.03,3.15-1.45,3.15-3.2V3.2C17.13,1.45,15.72,0.02,13.97,0z M16.05,8.64c0.01,1.21-0.96,2.21-2.17,2.23H8.43
				c-1.21-0.01-2.18-1-2.17-2.21c0,0,0-0.01,0-0.01V3.3C6.25,2.09,7.22,1.09,8.43,1.07h5.44c1.21,0.01,2.18,1,2.17,2.21
				c0,0,0,0.01,0,0.01V8.64z"/>
			<path id="XMLID_5_" class="st27" d="M11.16,2.9C9.47,2.86,8.07,4.19,8.03,5.87c0,0.01,0,0.02,0,0.02
				c-0.04,1.68,1.29,3.08,2.98,3.12c0.01,0,0.02,0,0.02,0c1.68,0.04,3.08-1.29,3.12-2.98c0-0.01,0-0.02,0-0.02V5.95
				C14.16,4.28,12.83,2.92,11.16,2.9L11.16,2.9z M11.16,7.94c-1.09,0.02-2-0.84-2.03-1.93c-0.02-1.09,0.84-2,1.93-2.02
				c1.09-0.02,1.99,0.84,2.03,1.93v0.04C13.1,7.03,12.24,7.92,11.16,7.94z"/>
			<ellipse id="XMLID_4_" class="st27" cx="14.31" cy="2.74" rx="0.68" ry="0.7"/>
		</g>
		<g id="Icones_1_" transform="translate(61.456 355.296)">
			<g id="XMLID_1_" transform="translate(0 0)">
				<path id="XMLID_2_" class="st27" d="M10.62,6.69H5.19V4.18h5.85L10.62,6.69z"/>
				<path id="Facebook_1_" class="st27" d="M6.46,2.52v10h2.49v-9.6C8.93,2.72,9.08,2.53,9.29,2.51c0,0,0,0,0.01,0h1.76V0H9.12
					C7.85-0.18,6.66,0.7,6.48,1.98C6.45,2.16,6.45,2.34,6.46,2.52z"/>
			</g>
		</g>
	</g>
	<path id="Caminho_401" class="st2" d="M926.48,526.15l28.71,0.3v4.96c-9.26,2.99-18.77,5.12-28.41,6.36L926.48,526.15z"/>
	<path id="Caminho_402" class="st2" d="M5.19,524.96h34.77v14.6c0,0-27.02-4.96-34.77-8.74V524.96z"/>
	<g id="Grupo_351" transform="translate(758.297 262.479)">
		<path id="Caminho_403" class="st0" d="M140.2,339.66H33.17c-15.45,0-27.98-12.52-27.99-27.97c0,0,0-0.01,0-0.01V27.99
			C5.18,12.53,17.71,0,33.16,0c0,0,0.01,0,0.01,0H140.2c15.45,0,27.98,12.52,27.99,27.97c0,0,0,0.01,0,0.01v283.69
			C168.17,327.13,155.65,339.65,140.2,339.66z"/>
	</g>
	<path id="Caminho_404" class="st1" d="M896.9,597.77H793.2c-14.53,0-26.3-11.77-26.3-26.3V293.29c0-14.53,11.77-26.3,26.3-26.3
		h103.7c14.53,0,26.3,11.77,26.3,26.3v278.17C923.2,585.99,911.43,597.77,896.9,597.77C896.9,597.77,896.9,597.77,896.9,597.77z"/>
	<g id="Grupo_352" transform="translate(474.886 17.888)">
		<circle id="Elipse_33" class="st28" cx="8.35" cy="3.17" r="3.16"/>
		<circle id="Elipse_34" class="st29" cx="8.35" cy="3.17" r="2.78"/>
		<circle id="Elipse_35" class="st30" cx="8.35" cy="3.17" r="1.64"/>
	</g>
	<g id="Grupo_353" transform="translate(34.771 312.791)">
		<path id="Caminho_405" class="st0" d="M418.2,289.35H29.62c-13.49,0-24.43-10.94-24.43-24.43V24.43C5.19,10.94,16.13,0,29.62,0
			H418.2c13.49,0,24.43,10.94,24.43,24.43v240.47C442.64,278.4,431.7,289.35,418.2,289.35z"/>
	</g>
	<g id="Grupo_354" transform="translate(57.433 456.904)">
		<circle id="Elipse_36" class="st28" cx="8.35" cy="3.16" r="3.16"/>
		<circle id="Elipse_37" class="st29" cx="8.35" cy="3.16" r="2.78"/>
		<circle id="Elipse_38" class="st30" cx="8.35" cy="3.16" r="1.64"/>
	</g>
	<g id="Grupo_355" transform="translate(441.979 448.228)">
		<path id="Caminho_406" class="st0" d="M17.03,23.02c-6.17,0-11.17-5-11.17-11.17s5-11.17,11.17-11.17c6.17,0,11.17,5,11.17,11.17
			C28.19,18.02,23.19,23.01,17.03,23.02z"/>
		<path id="Caminho_407" class="st31" d="M17.03,1.34c5.8,0,10.5,4.7,10.5,10.5s-4.7,10.5-10.5,10.5s-10.5-4.7-10.5-10.5
			S11.23,1.34,17.03,1.34L17.03,1.34 M17.03,0C10.49,0,5.19,5.3,5.19,11.84s5.3,11.84,11.84,11.84c6.54,0,11.84-5.3,11.84-11.84
			c0,0,0,0,0,0C28.86,5.3,23.57,0.01,17.03,0L17.03,0z"/>
	</g>
	<rect id="Retângulo_55" x="85.65" y="325.41" class="st1" width="346.46" height="261.83"/>
	<g id="Grupo_356" transform="translate(80.055 325.41)">
		<rect id="Retângulo_56" x="195.71" y="0" class="st3" width="156.34" height="261.83"/>
		<text transform="matrix(1 0 0 1 215.9482 68.477)" class="st4 st13">Entrar</text>
		<rect id="Retângulo_57" x="215.95" y="177.38" class="st6" width="117.7" height="14.9"/>
		<text transform="matrix(1 0 0 1 267.3142 186.165)" class="st3 st4 st32">Entrar</text>
		<text transform="matrix(1 0 0 1 215.9482 79.596)" class="st8 st32">Por favor introduza as suas credenciais para</text>
		<text transform="matrix(1 0 0 1 215.9482 83.596)" class="st8 st32">aceder ao sitema de agendamento.</text>
		<rect id="Retângulo_58" x="215.95" y="105" class="st9" width="117.7" height="14.9"/>
		<rect id="Retângulo_59" x="215.95" y="137.23" class="st9" width="117.7" height="14.9"/>
		<text transform="matrix(1 0 0 1 225.1542 165.113)" class="st10 st32" style="text-decoration: underline;">Esqueceu sua senha?</text>
		<text transform="matrix(1 0 0 1 215.9482 133.443)" class="st10 st32">Password</text>
		<text transform="matrix(1 0 0 1 215.9482 101.586)" class="st10 st32">Email</text>
		<circle id="Elipse_39" class="st12" cx="219.41" cy="163.62" r="2.9"/>
		<text transform="matrix(1 0 0 1 218.0092 164.357)" class="st10 st32">?</text>
		<rect id="Retângulo_60" x="5.19" y="0" class="st14" width="190.52" height="261.83"/>
		<g id="Illustration_2" transform="translate(36.096 44.775)">
			<path id="Caminho_95" class="st15" d="M50.4,13.72c0,0-26.82,1.42-29.54-4.46s9.27-6.76,15.37-7.63s26.27-3.17,40.01,0
				c4.36,1.09,3.27,3.49-1.53,4.25s-7.41,2.72-3.38,4.04c4.04,1.31,21.15,7.74,21.15,7.74s11.35-0.11,15.48,3.81
				s1.19,6.76-1.96,8.72s-13.2,3.7-12.1,8.72s11.39,9.16,16.1,13.2s12.35,12.22,6.57,23.01S105.7,98.54,69.54,99.73
				c0,0-51.1-1.85-63.43-24.97c-3.93-7.85,5.34-13.96,13.41-14.72s26.6-0.76,26.6-0.76l16.35,15.6l11.67-6.33l-5.67-25.73
				c0,0-28.79,8.84-37.61,8.07s-17.98-1.09-20.5-10.14s4.91-9.71,12.1-8.94s31.83,4.91,46.66-2.72c0,0,3.93-4.14-1.09-5.44
				s-27.8-0.21-31.62-1.19s-5.78-3.81,0.5-3.59s16.18-0.98,16.41-2.51S53.36,13.61,50.4,13.72z"/>
			<g id="Grupo_212" transform="translate(96.396 47.391)">
				<path id="Caminho_96" class="st16" d="M9.61,22.25c-0.88,0.21-1.81,0.02-2.55-0.51c-0.38-0.25-1.52-1.18-1.81-4.21
					c-0.51-5.01,2.08-9.2,2.98-10.61c1.67-2.61,3.87-4.84,6.46-6.54c0.98-0.47,2.12-0.5,3.12-0.07c1.05,0.47,1.81,1.42,2.04,2.55
					c0.2,1.33-0.7,2.36-1.53,3.34c-0.82,0.84-1.72,1.59-2.68,2.25c-1.73,1.71-2.88,3.93-3.27,6.33c-0.44,2.25,0.09,3.07-0.8,5.16
					C10.77,21.81,9.91,22.16,9.61,22.25z"/>
				<path id="Caminho_97" class="st16" d="M13.1,20.21c0.89-2.07,2.39-3.81,4.29-5.01c1.83-1.06,3.92-1.59,6.03-1.53
					c1.02-0.16,2.03,0.38,2.47,1.31c0.41,0.89,0.21,1.95-0.51,2.61c-0.59,0.48-1.15,0.17-2.4,0.36c-1.12,0.2-2.19,0.65-3.12,1.31
					c-1.27,0.79-2.35,1.83-3.19,3.06c-0.3,0.61-0.87,1.04-1.53,1.17c-1.03,0.02-1.94-0.68-2.19-1.68
					C12.82,21.28,12.88,20.72,13.1,20.21z"/>
				<path id="Caminho_98" class="st17" d="M22.83,15.85c-1.98,0.32-3.84,1.17-5.38,2.47c-1.89,1.61-3.17,3.81-3.63,6.25
					c-0.21,1.2-0.21,2.43,0,3.63"/>
				<path id="Caminho_99" class="st17" d="M14.48,4.38c-2.61,2.71-4.37,6.12-5.08,9.82c-0.86,5.12,0.28,10.38,3.19,14.68"/>
			</g>
			<path id="Caminho_100" class="st18" d="M79.26,60.56c1.02-0.74,6.3-4.41,12.22-2.76c2.92,0.92,5.47,2.75,7.27,5.23
				c2.91,4.09,1.88,7.63,5.52,10.47c0.92,0.84,2.1,1.35,3.34,1.45c1.74,0.04,2.59-1.03,6.1-3.34c2.65-1.74,3.98-2.61,5.23-2.76
				c3.06-0.38,5.67,1.52,6.4,2.04c1.14,0.84,2.12,1.88,2.91,3.06c1.58,2.21,3.76,5.15,6.84,9.16c0.48,0.73,0.59,1.64,0.3,2.47
				c-0.52,0.86-1.93,0.87-2.47,0.87c-2.87,0.03-13.26,0.17-27.44,0.32c-7.59-1.78-15.18-3.56-22.78-5.34
				c-0.91-0.87-6.03-5.93-5.67-13.41C77.16,65.38,77.92,62.83,79.26,60.56z"/>
			<path id="Caminho_101" class="st18" d="M72.58,30.25c0.81,3.85,0.98,7.8,0.51,11.71c1.21-0.21,2.43-0.43,3.63-0.66
				C76.79,37.22,75.31,33.27,72.58,30.25L72.58,30.25z"/>
			<path id="Caminho_102" class="st19" d="M72.74,39.84c0,0,5.07-0.8,6.66,4.14s3.63,8.22,4.21,30.09l-13.66,4l-5.12-9.45
				c0,0,2.51-23.18,3.08-24.5l0.58-1.31L72.74,39.84z"/>
			<path id="Caminho_103" class="st20" d="M18.51,86.89c7.52,4.61,25.16,12.1,45.78,12.77c9.21,0.31,24.35,0.91,38.55-7.4
				c2.6-1.65,5.07-3.5,7.38-5.54c-2.86-1.69-5.71-3.39-8.58-5.08c-2.31-1.12-4.85-1.66-7.42-1.6c-3.87,0.15-7.57,1.64-10.47,4.21
				c-14.05-2.47-28.11-4.94-42.16-7.42c-0.48-0.97-0.97-1.94-1.45-2.91c-1.8,0.51-3.57,1.11-5.31,1.81
				C28.71,78.35,23.17,82.14,18.51,86.89z"/>
			<path id="Caminho_104" class="st21" d="M87.48,72.15c0,0,4.8,2.08,1.96,7.31s-13.3,11.83-20.66,13.27
				C62.88,93.9,60.38,92,60.38,92s-3.43-1.31-2.62-2.79s7.84-2.51,7.84-2.51l11.99-7.79l3.88-5.39l3.11-1.37L87.48,72.15z"/>
			<path id="Caminho_105" class="st20" d="M48.59,51.1c0,0,9.45,13.88,11.41,22.02l-1.89,7.48l-18.72-7.48
				c0,0-3.45-10.75-3.96-18.46s0.3-10.24,3.96-11.34s25.4-4.57,33.51-3.47c-1.45,0.64-2.43,2.02-2.56,3.59l-0.09,1.27
				c-4.61,1.89-9.35,3.46-14.17,4.72C50.26,50.74,48.59,51.1,48.59,51.1z"/>
			<path id="Caminho_106" class="st22" d="M61.93,46.42v10.24l0.4,3.17l0.51,0.3h6.45c0,0,1.48,0.08,1.48-2.33V46.23
				c0,0-0.01-1.78-1.37-1.78h-6.33C63.08,44.46,61.93,44.6,61.93,46.42z"/>
			<path id="Caminho_107" class="st18" d="M17.8,96.13c0,0,12.75-10.8,16.68-10.8s3.93,0.98,5.89,4.91s4.91,2.95,7.85,0.98
				s5.89,0.98,6.87,3.93c0.56,1.58,0.89,3.23,0.98,4.91C56.06,100.06,29.14,100.94,17.8,96.13z"/>
			<path id="Caminho_108" class="st21" d="M39.39,73.13c0,0,11.67-9.37,18.43-12.94c1.53-1.02,1.89-2.19,2.55-3.63
				s1.81-2.83,2.68-2.61s-0.3,2.04-0.51,3.06s-0.31,1.89,0.87,2.55c0,0,0.15,0.36-0.87,1.02c-1.74,1.18-3.29,2.63-4.58,4.29
				c-1.38,1.89-7.78,12.07-7.78,12.07L39.39,73.13z"/>
			<path id="Caminho_109" class="st23" d="M39.39,73.14c0,0,11.67,1.19,15.48,4.14s17.77-1.31,20.61-2.83s8.39-4.04,11.99-2.29
				c-2.32-0.19-4.56,0.87-5.89,2.78c-2.62,3.34-9.82,12.16-12.54,12.93c-3.17,0.64-6.38,1.08-9.6,1.31
				c0.01,1.66,1.12,3.12,2.72,3.56C62.19,92.73,40.26,89.59,39.39,73.14z"/>
			<path id="Caminho_110" class="st21" d="M58.58,75.53c0,0,0-7.23,4.55-7.35s5.78,3.31,6.46,5.89l-6.15,4L58.58,75.53z"/>
			<circle id="Elipse_27" class="st24" cx="87.42" cy="12.29" r="9.82"/>
			<path id="Caminho_111" class="st20" d="M59.84,75.96c-0.58-0.44-0.46-0.67-1.88-2.21c-0.72-0.79-1.13-1.14-1.68-1.17
				c-0.45,0.01-0.87,0.19-1.19,0.5c-1.3,1.1-1.38,5.04-0.05,8.77c0.96,2.71,2.39,6.73,6.44,8.07c2.7,0.9,5.68,0.41,7.95-1.31
				c2.62-2.08,2.96-5.22,3.22-7.52c0.2-1.87,0.07-3.77-0.39-5.59c-0.25-1.14-1.16-2.03-2.31-2.25h-0.03
				c-0.27-0.04-1.14-0.12-3.16,1.09c-2.2,1.31-2.13,1.97-3.38,2.29C62.16,76.93,60.87,76.69,59.84,75.96z"/>
		</g>
		<g id="Logo" transform="translate(27.357 156.652)">
			<g id="Grupo_5" transform="translate(0)">
				<g id="Grupo_2" transform="translate(12.127 0.068)">
					<g id="Grupo_1">
						<g id="Caminho_1" transform="translate(0 2.082)">
							<path id="Caminho_339" class="st3" d="M11.18,1.07c0.59,0.97,0.86,2.11,0.77,3.25H7.73c0.2,0.62,0.76,0.92,1.68,0.92
								c0.52-0.04,1.03-0.16,1.51-0.35l0.33-0.11v2c-0.79,0.3-1.63,0.45-2.48,0.44C8.13,7.24,7.49,7.1,6.91,6.8
								C6.38,6.53,5.95,6.11,5.65,5.59C5.34,5.05,5.18,4.42,5.2,3.79C5.13,2.78,5.46,1.78,6.11,1.01c0.7-0.69,1.65-1.05,2.63-0.99
								C9.68-0.07,10.59,0.33,11.18,1.07z M8.01,2.05C7.81,2.29,7.68,2.58,7.65,2.89h1.93c-0.02-0.31-0.12-0.61-0.3-0.86
								C9.11,1.87,8.88,1.78,8.64,1.8C8.4,1.78,8.17,1.87,8.01,2.05L8.01,2.05z"/>
						</g>
						<g id="Caminho_2" transform="translate(7.728 2.23)">
							<path id="Caminho_340" class="st3" d="M6.36,6.96c-0.31-0.08-0.67-0.2-1.09-0.35V4.56C5.58,4.8,5.93,5,6.29,5.15
								c0.41,0.17,0.85,0.27,1.3,0.27C7.75,5.43,7.92,5.4,8.06,5.33c0.07-0.07,0.11-0.17,0.11-0.27c0-0.15-0.12-0.26-0.36-0.35
								C7.47,4.6,7.13,4.52,6.79,4.47C6.35,4.4,5.95,4.18,5.66,3.85C5.33,3.44,5.17,2.93,5.19,2.42C5.16,1.91,5.33,1.4,5.65,1.01
								c0.29-0.36,0.68-0.63,1.11-0.78C7.2,0.07,7.66-0.01,8.13,0C8.6,0.01,9.07,0.07,9.53,0.19c0.32,0.1,0.63,0.24,0.91,0.43
								l0.01,1.8L9.98,2.15C9.74,2.02,9.5,1.91,9.24,1.81C9.01,1.73,8.77,1.69,8.52,1.69C8.31,1.68,8.09,1.72,7.9,1.81
								C7.73,1.97,7.7,2.23,7.84,2.41l0,0C7.87,2.45,7.9,2.48,7.94,2.51C8.17,2.62,8.41,2.7,8.65,2.75C9.01,2.82,9.36,2.92,9.7,3.06
								c0.28,0.13,0.53,0.33,0.7,0.59c0.22,0.36,0.33,0.78,0.31,1.21c0.02,0.7-0.33,1.35-0.92,1.72c-0.71,0.38-1.5,0.56-2.31,0.52
								C7.1,7.07,6.73,7.03,6.36,6.96z"/>
						</g>
						<g id="Caminho_3" transform="translate(14.072 2.082)">
							<path id="Caminho_341" class="st3" d="M11.18,1.07c0.59,0.97,0.86,2.11,0.76,3.24H7.73c0.2,0.62,0.76,0.92,1.68,0.92
								c0.52-0.04,1.03-0.16,1.51-0.35l0.33-0.11v2c-0.79,0.3-1.63,0.45-2.48,0.44C8.13,7.24,7.49,7.09,6.91,6.8
								C6.38,6.53,5.95,6.11,5.65,5.59C5.34,5.04,5.18,4.42,5.2,3.79C5.13,2.78,5.46,1.78,6.11,1c0.7-0.69,1.65-1.05,2.63-0.99
								C9.68-0.07,10.59,0.33,11.18,1.07z M8.01,2.05C7.81,2.29,7.68,2.58,7.65,2.89h1.93c-0.02-0.31-0.12-0.61-0.3-0.86
								C9.11,1.87,8.88,1.78,8.64,1.8C8.4,1.78,8.17,1.87,8.01,2.05L8.01,2.05z"/>
						</g>
						<g id="Caminho_4" transform="translate(22.011 2.094)">
							<path id="Caminho_342" class="st3" d="M5.19,1.04C5.4,0.85,5.64,0.7,5.9,0.59c0.35-0.17,0.73-0.31,1.11-0.4
								c0.38-0.11,0.76-0.17,1.15-0.17c0.7-0.08,1.4,0.07,2,0.43v1.7C9.88,2.08,9.59,2.04,9.29,2.03C8.88,1.99,8.5,1.96,8.17,1.96
								c-0.18,0-0.37,0-0.55,0.03v5H5.2V1.03L5.19,1.04z"/>
						</g>
						<g id="Caminho_5" transform="translate(27.434 2.345)">
							<path id="Caminho_343" class="st3" d="M13.22,0l-2.8,6.74H7.99L5.19,0h2.6l1.54,4.05L10.62,0H13.22z"/>
						</g>
						<g id="Caminho_6" transform="translate(35.851 2.1)">
							<path id="Caminho_344" class="st3" d="M10.71,0.51c0.7,0.39,1.09,1.15,0.99,1.94l-0.03,3.14c-0.01,1.06-1.13,1.58-3.35,1.6
								C7.51,7.24,6.7,7.04,6,6.63C5.43,6.19,5.13,5.48,5.2,4.77C5.18,4.23,5.4,3.71,5.79,3.34c0.51-0.41,1.15-0.61,1.8-0.55
								C8.2,2.8,8.8,2.96,9.34,3.25V2.98c0-0.68-0.47-1.02-1.39-1.02C7.53,1.97,7.13,2.04,6.75,2.18C6.4,2.3,6.08,2.48,5.8,2.7V0.61
								c0.35-0.2,0.72-0.34,1.11-0.42C7.46,0.07,8.03,0.01,8.6,0.01C9.33,0.02,10.05,0.19,10.71,0.51z M9.11,5.5
								c0.12-0.04,0.2-0.16,0.2-0.28V4.39C9.09,4.32,8.87,4.29,8.64,4.31C8.36,4.28,8.08,4.33,7.82,4.44
								C7.65,4.53,7.56,4.72,7.58,4.91c0,0.18,0.08,0.35,0.22,0.47c0.14,0.12,0.32,0.19,0.51,0.2C8.57,5.58,8.84,5.55,9.11,5.5
								L9.11,5.5z"/>
						</g>
						<g id="Caminho_7" transform="translate(43.254 0.078)">
							<path id="Caminho_345" class="st23" d="M5.19,10.38c0.34,0.05,0.69-0.05,0.95-0.27c0.21-0.24,0.3-0.56,0.27-0.87V2.37H7.8
								l0.01,6.89c0,1.53-0.86,2.32-2.61,2.32C5.19,11.57,5.19,10.39,5.19,10.38z M6.38,0h1.48v1.26H6.38L6.38,0z"/>
						</g>
						<g id="Caminho_8" transform="translate(47.555)">
							<path id="Caminho_346" class="st23" d="M10.24,2.83c0.53,0.39,0.81,1.04,0.74,1.69V7.7c0.04,0.55-0.28,1.06-0.79,1.26
								c-0.73,0.27-1.5,0.39-2.28,0.35C7.23,9.33,6.55,9.16,5.96,8.82c-0.54-0.37-0.83-1-0.76-1.65C5.15,6.56,5.38,5.96,5.83,5.54
								c0.51-0.39,1.14-0.59,1.78-0.55c0.7-0.02,1.39,0.15,2,0.48V4.83c0-0.9-0.55-1.35-1.64-1.35c-0.4,0-0.79,0.07-1.17,0.19
								c-0.36,0.1-0.69,0.27-0.98,0.5v-1.3c0.33-0.2,0.7-0.33,1.09-0.4C7.4,2.35,7.89,2.3,8.38,2.3C9.04,2.28,9.69,2.46,10.24,2.83z
								 M9.26,8.1C9.47,8.05,9.61,7.85,9.6,7.63V6.34c-0.47-0.2-0.98-0.3-1.49-0.3c-0.4-0.03-0.8,0.07-1.14,0.27
								C6.53,6.66,6.45,7.29,6.79,7.73c0.06,0.08,0.14,0.15,0.23,0.21c0.32,0.2,0.69,0.3,1.06,0.28C8.48,8.23,8.87,8.19,9.26,8.1
								L9.26,8.1z M8.58,0h1.4L8.71,1.57H7.89L8.58,0z"/>
						</g>
					</g>
				</g>
				<g id="Grupo_4">
					<g id="Grupo_3">
						<g id="Caminho_9" transform="translate(0 5.266)">
							<path id="Caminho_347" class="st3" d="M6.33,0.44h-0.9c-0.19,0-0.3-0.16-0.22-0.3c0.05-0.07,0.12-0.12,0.2-0.13
								c0.62-0.01,1.22-0.01,1.82,0c0.11-0.02,0.21,0.06,0.23,0.17c0,0.01,0,0.02,0,0.03v0.01c0,0.12-0.09,0.21-0.21,0.21
								c0,0,0,0-0.01,0L6.33,0.44L6.33,0.44z"/>
						</g>
						<g id="Caminho_10" transform="translate(1.486)">
							<path id="Caminho_348" class="st3" d="M15.02,1.02c-0.76-0.74-1.81-1.11-2.87-0.99H7.78l-0.12,0.8H7.4
								c-0.17,0-0.25,0.07-0.25,0.2S7.23,1.24,7.4,1.24h0.2L6.58,8.49H5.44c-0.16,0-0.26,0.08-0.26,0.21s0.09,0.21,0.26,0.21h1.09
								L6.47,9.24h2.58l0.39-2.8h1.13l1.48,2.8H15l-1.76-3.23c1.24-0.44,2.14-1.54,2.31-2.84V3.13C15.68,2.38,15.49,1.61,15.02,1.02
								z M13.15,3.24h-1.26c-0.16,0-0.25,0.08-0.25,0.21s0.09,0.2,0.25,0.2h0.92c-0.26,0.54-0.84,0.85-1.43,0.78H9.69l0.32-2.21
								h1.68c0.62,0,1.03,0.2,1.19,0.58h0.28c0.12-0.01,0.23,0.07,0.24,0.19c0,0,0,0.01,0,0.01c0.02,0.11-0.06,0.22-0.17,0.24
								c-0.01,0-0.02,0-0.03,0L13.15,3.24L13.15,3.24z"/>
						</g>
					</g>
				</g>
			</g>
		</g>
		<rect id="Retângulo_61" x="34.1" y="174.93" class="st25" width="98.53" height="20.86"/>
		<text transform="matrix(1 0 0 1 34.0982 178.055)" class="st3 st10 st32">Lorem ipsum dolor sit amet, consectetuer </text>
		<text transform="matrix(1 0 0 1 34.0982 183.055)" class="st3 st10 st32">adipiscing elit, sed diam nonummy nibh </text>
		<text transform="matrix(1 0 0 1 34.0982 188.055)" class="st3 st10 st32">euismod tincidunt ut laoreet dolore magna </text>
		<text transform="matrix(1 0 0 1 34.0982 193.055)" class="st3 st10 st32">aliquam erat volutpat. Ut wisi enim ad</text>
		<g id="XMLID_20_" transform="translate(38.523 209.675)">
			<rect id="XMLID_102_" x="5.37" y="2.3" class="st27" width="1.53" height="4.85"/>
			<path id="XMLID_101_" class="st27" d="M11.09,2.25c-0.62-0.06-1.22,0.26-1.53,0.8V2.29H7.84c0.03,0.4,0,4.85,0,4.85h1.73V4.51
				c-0.01-0.13,0-0.27,0.04-0.4c0.12-0.36,0.46-0.59,0.83-0.59c0.6,0,0.87,0.46,0.87,1.11v2.52h1.74v-2.7
				C13.04,2.95,12.18,2.25,11.09,2.25z"/>
			<path id="XMLID_100_" class="st27" d="M6.12,0.01C5.67-0.04,5.25,0.28,5.2,0.73c0,0.01,0,0.02,0,0.03
				C5.14,1.22,5.46,1.63,5.91,1.68c0.01,0,0.02,0,0.03,0h0.17c0.46,0.05,0.87-0.28,0.92-0.74c0,0,0-0.01,0-0.01
				C7.1,0.48,6.77,0.06,6.31,0.01c0,0-0.01,0-0.01,0C6.24,0,6.18,0,6.12,0.01z"/>
		</g>
		<g id="XMLID_112_" transform="translate(50.916 209.979)">
			<path id="XMLID_117_" class="st27" d="M10.36,0H7.04C6,0.01,5.18,0.86,5.19,1.89c0,0,0,0,0,0v3.25C5.18,6.17,6,7.02,7.04,7.03
				c0,0,0,0,0,0h3.33c1.03-0.01,1.86-0.86,1.85-1.89c0,0,0,0,0,0V1.89C12.22,0.86,11.39,0.02,10.36,0z M11.58,5.1
				c0,0.72-0.57,1.3-1.29,1.31H7.1C6.38,6.4,5.81,5.82,5.81,5.1V1.95c0-0.72,0.57-1.3,1.29-1.31h3.2c0.72,0.01,1.29,0.6,1.29,1.31
				V5.1z"/>
			<path id="XMLID_114_" class="st27" d="M8.7,1.72c-1-0.02-1.83,0.77-1.85,1.77C6.82,4.48,7.61,5.31,8.6,5.34c0.01,0,0.01,0,0.02,0
				c1,0.02,1.83-0.77,1.85-1.77V3.53C10.48,2.54,9.69,1.73,8.7,1.72L8.7,1.72z M8.7,4.69C8.06,4.71,7.52,4.2,7.51,3.55
				C7.5,2.91,8.01,2.38,8.65,2.36c0.64-0.01,1.18,0.5,1.19,1.14v0.03C9.84,4.16,9.34,4.68,8.7,4.69L8.7,4.69z"/>
			<circle id="XMLID_71_" class="st27" cx="10.57" cy="1.62" r="0.4"/>
		</g>
		<g id="Icones" transform="translate(29.514 209.56)">
			<g id="XMLID_310_" transform="translate(0 0)">
				<path id="XMLID_311_" class="st27" d="M8.39,3.94h-3.2V2.47h3.45L8.39,3.94z"/>
				<path id="Facebook_3_" class="st27" d="M5.93,1.49v5.9H7.4V1.72C7.39,1.6,7.47,1.49,7.59,1.48c0,0,0.01,0,0.01,0h1.05V0H7.51
					C6.75-0.11,6.04,0.42,5.94,1.18C5.92,1.28,5.92,1.39,5.93,1.49z"/>
			</g>
		</g>
	</g>
	<g id="Grupo_360" transform="translate(761.716 266.998)">
		<path id="Caminho_408" class="st3" d="M135.18,330.77H31.48c-14.53,0-26.3-11.77-26.3-26.3V26.3C5.18,11.77,16.96,0,31.48,0h103.7
			c14.53,0,26.3,11.77,26.3,26.3v278.17C161.49,318.99,149.72,330.77,135.18,330.77C135.19,330.77,135.18,330.77,135.18,330.77z"/>
		<g id="Grupo_357" transform="translate(76.233 5.565)">
			<circle id="Elipse_40" class="st29" cx="7.96" cy="2.78" r="2.78"/>
			<circle id="Elipse_41" class="st30" cx="7.96" cy="2.78" r="1.64"/>
		</g>
		<g id="Grupo_358" transform="translate(24.526 130.691)">
			<text transform="matrix(1 0 0 1 5.1922 9)" class="st4 st13">Entrar</text>
			<rect id="Retângulo_62" x="5.19" y="108.25" class="st6" width="107.22" height="13.57"/>
			<text transform="matrix(1 0 0 1 51.9902 116.255)" class="st3 st4 st32">Entrar</text>
			<text transform="matrix(1 0 0 1 5.1922 20.385)" class="st8 st32">Por favor introduza as suas credenciais para</text>
			<text transform="matrix(1 0 0 1 5.1922 25.385)" class="st8 st32">aceder ao sitema de agendamento.</text>
			<rect id="Retângulo_63" x="5.19" y="42.31" class="st9" width="107.22" height="13.57"/>
			<rect id="Retângulo_64" x="5.19" y="71.67" class="st9" width="107.22" height="13.57"/>
			<text transform="matrix(1 0 0 1 13.5812 97.075)" class="st10 st32" style="text-decoration: underline;">Esqueceu sua senha?</text>
			<text transform="matrix(1 0 0 1 5.1922 68.222)" class="st10 st32">Password</text>
			<text transform="matrix(1 0 0 1 5.1922 39.198)" class="st10 st32">Email</text>
			<circle id="Elipse_42" class="st12" cx="8.34" cy="95.71" r="2.63"/>
			<text transform="matrix(1 0 0 1 7.0702 96.267)" class="st10 st32">?</text>
		</g>
		<g id="Illustration_2_2_" transform="translate(21.081 26.213)">
			<path id="Caminho_95_2_" class="st15" d="M46.43,12.51c0,0-24.47,1.29-26.95-4.08s8.45-6.17,14.03-6.96s23.98-2.88,36.51,0
				C74,2.47,73,4.65,68.62,5.35s-6.76,2.49-3.08,3.69c3.67,1.19,19.3,7.07,19.3,7.07s10.34-0.09,14.12,3.49s1.1,6.17-1.8,7.95
				s-12.04,3.38-11.04,7.95s10.39,8.35,14.7,12.03s11.26,11.14,5.99,20.99S96.9,89.9,63.9,91c0,0-46.63-1.69-57.86-22.78
				c-3.58-7.16,4.88-12.74,12.23-13.44s24.27-0.7,24.27-0.7l14.92,14.23l10.65-5.77l-5.18-23.47c0,0-26.26,8.06-34.32,7.36
				s-16.41-0.99-18.71-9.25s4.48-8.85,11.04-8.15s29.04,4.48,42.58-2.49c0,0,3.58-3.78-0.99-4.98s-25.37-0.2-28.84-1.1
				s-5.27-3.49,0.44-3.29s14.78-0.9,14.97-2.29C49.31,13.51,49.12,12.42,46.43,12.51z"/>
			<g id="Grupo_212_2_" transform="translate(87.922 43.229)">
				<path id="Caminho_96_2_" class="st33" d="M9.23,20.31c-0.8,0.19-1.65,0.02-2.32-0.47C6.58,19.6,5.53,18.77,5.25,16
					c-0.47-4.59,1.9-8.39,2.72-9.68c1.53-2.38,3.54-4.41,5.9-5.97c0.9-0.43,1.94-0.45,2.86-0.07c0.96,0.42,1.65,1.29,1.85,2.32
					c0.19,1.21-0.64,2.16-1.4,3.04c-0.74,0.77-1.57,1.45-2.45,2.05c-1.58,1.56-2.63,3.58-2.99,5.77c-0.4,2.05,0.08,2.8-0.72,4.71
					C10.29,19.91,9.5,20.23,9.23,20.31z"/>
				<path id="Caminho_97_2_" class="st33" d="M12.42,18.46c0.81-1.89,2.18-3.48,3.92-4.57c1.67-0.97,3.58-1.45,5.51-1.39
					c0.93-0.15,1.85,0.34,2.25,1.19c0.38,0.81,0.19,1.78-0.47,2.39c-0.54,0.43-1.05,0.16-2.19,0.33c-1.03,0.19-2,0.59-2.86,1.19
					c-1.15,0.72-2.15,1.67-2.92,2.79c-0.28,0.55-0.79,0.94-1.4,1.06c-0.94,0.02-1.76-0.62-1.99-1.53
					C12.17,19.44,12.21,18.92,12.42,18.46z"/>
				<path id="Caminho_98_2_" class="st33" d="M21.3,14.48c-1.81,0.3-3.5,1.07-4.91,2.25c-1.73,1.46-2.9,3.47-3.31,5.7
					c-0.19,1.1-0.19,2.22,0,3.31"/>
				<path id="Caminho_99_2_" class="st33" d="M13.68,4c-2.38,2.47-3.99,5.59-4.64,8.96c-0.8,4.68,0.25,9.48,2.92,13.4"/>
			</g>
			<path id="Caminho_100_2_" class="st18" d="M72.75,55.25c0.92-0.67,5.75-4.02,11.14-2.52c2.67,0.84,4.99,2.51,6.64,4.77
				c2.66,3.73,1.7,6.96,5.04,9.55c0.84,0.77,1.91,1.23,3.04,1.33c1.58,0.04,2.36-0.95,5.58-3.04c2.43-1.58,3.63-2.39,4.77-2.52
				c2.1-0.11,4.18,0.55,5.83,1.85c1.04,0.77,1.94,1.71,2.65,2.79c1.45,2.02,3.43,4.71,6.23,8.35c0.28,0.56,0.7,1.56,0.27,2.25
				c-0.48,0.78-1.76,0.79-2.25,0.79c-2.63,0.03-12.1,0.16-25.04,0.3c-6.93-1.62-13.86-3.25-20.78-4.87
				c-0.83-0.79-5.51-5.42-5.18-12.23C70.83,59.65,71.53,57.32,72.75,55.25z"/>
			<path id="Caminho_101_2_" class="st18" d="M66.65,27.6c0.73,3.51,0.89,7.11,0.47,10.67l3.31-0.6
				C70.49,33.96,69.14,30.35,66.65,27.6z"/>
			<path id="Caminho_102_2_" class="st19" d="M66.81,36.35c0,0,4.63-0.72,6.08,3.78s3.31,7.5,3.85,27.45l-12.47,3.65l-4.67-8.62
				c0,0,2.28-21.16,2.82-22.35l0.52-1.19L66.81,36.35z"/>
			<path id="Caminho_103_2_" class="st20" d="M17.33,79.28c6.87,4.21,22.96,11.04,41.77,11.65c8.41,0.28,22.22,0.83,35.19-6.74
				c2.38-1.5,4.63-3.19,6.73-5.05c-2.61-1.54-5.22-3.1-7.83-4.64c-2.1-1.02-4.42-1.52-6.76-1.46c-3.53,0.13-6.91,1.49-9.55,3.85
				c-12.82-2.25-25.64-4.51-38.47-6.76l-1.33-2.65c-1.64,0.46-3.26,1.01-4.84,1.66C26.65,71.5,21.58,74.95,17.33,79.28z"/>
			<path id="Caminho_104_2_" class="st21" d="M80.24,65.83c0,0,4.39,1.89,1.8,6.67S69.91,83.29,63.19,84.6
				c-5.38,1.06-7.66-0.67-7.66-0.67s-3.14-1.19-2.39-2.53s7.16-2.29,7.16-2.29L71.25,72l3.53-4.92l2.83-1.25L80.24,65.83z"/>
			<path id="Caminho_105_2_" class="st20" d="M44.76,46.63c0,0,8.62,12.66,10.41,20.09l-1.73,6.84l-17.07-6.83
				c0,0-3.15-9.82-3.62-16.84s0.27-9.35,3.62-10.34s23.17-4.17,30.57-3.18c-1.32,0.58-2.21,1.84-2.33,3.27l-0.09,1.15
				c-4.21,1.71-8.53,3.15-12.93,4.3C46.3,46.3,44.76,46.63,44.76,46.63z"/>
			<path id="Caminho_106_2_" class="st22" d="M56.94,42.36v9.35l0.38,2.88l0.47,0.27h5.89c0,0,1.34,0.08,1.34-2.13V42.19
				c0,0-0.01-1.62-1.25-1.62H58C58,40.56,56.94,40.7,56.94,42.36z"/>
			<path id="Caminho_107_2_" class="st18" d="M16.68,87.71c0,0,11.64-9.84,15.22-9.84s3.58,0.9,5.36,4.48s4.48,2.68,7.16,0.9
				s5.36,0.9,6.26,3.58c0.52,1.44,0.82,2.95,0.9,4.48C51.59,91.31,27.02,92.1,16.68,87.71z"/>
			<path id="Caminho_108_2_" class="st21" d="M36.38,66.73c0,0,10.65-8.55,16.82-11.8c1.4-0.92,1.73-1.98,2.32-3.31
				s1.66-2.59,2.45-2.39s-0.27,1.85-0.47,2.79s-0.28,1.73,0.79,2.32c0,0,0.13,0.33-0.79,0.92c-1.59,1.07-3,2.4-4.17,3.92
				c-1.26,1.73-7.09,11.01-7.09,11.01L36.38,66.73z"/>
			<path id="Caminho_109_2_" class="st23" d="M36.38,66.73c0,0,10.65,1.1,14.12,3.78s16.21-1.19,18.8-2.59s7.66-3.69,10.94-2.09
				c-2.12-0.17-4.16,0.79-5.38,2.53c-2.39,3.04-8.96,11.1-11.44,11.8c-2.89,0.58-5.82,0.98-8.76,1.19c0.01,1.52,1.03,2.85,2.49,3.26
				C57.17,84.61,37.17,81.75,36.38,66.73z"/>
			<path id="Caminho_110_2_" class="st21" d="M53.88,68.91c0,0,0-6.6,4.14-6.7s5.27,3.02,5.9,5.38l-5.62,3.65L53.88,68.91z"/>
			<circle id="Elipse_27_2_" class="st24" cx="80.21" cy="11.23" r="8.96"/>
			<path id="Caminho_111_2_" class="st20" d="M55.03,69.32c-0.52-0.4-0.42-0.62-1.7-2.02c-0.66-0.72-1.03-1.05-1.53-1.06
				c-0.41,0.02-0.79,0.18-1.1,0.44c-1.19,1.01-1.26,4.6-0.05,8.01c0.89,2.47,2.19,6.14,5.87,7.36c2.47,0.82,5.18,0.37,7.26-1.19
				c2.39-1.89,2.7-4.76,2.94-6.87c0.19-1.71,0.07-3.43-0.35-5.1c-0.23-1.04-1.06-1.85-2.1-2.05h-0.03
				c-0.26-0.04-1.03-0.11-2.88,0.99c-2,1.19-1.94,1.8-3.08,2.09C57.15,70.19,55.97,69.97,55.03,69.32z"/>
		</g>
		<g id="Grupo_359" transform="translate(63.36 286.518)">
			<g id="XMLID_17_" transform="translate(9.008 0.115)">
				<rect id="XMLID_21_" x="5.38" y="2.29" class="st20" width="1.53" height="4.85"/>
				<path id="XMLID_19_" class="st20" d="M11.11,2.25c-0.62-0.06-1.22,0.26-1.53,0.8V2.29H7.85c0.03,0.4,0,4.85,0,4.85h1.73V4.51
					c-0.01-0.13,0-0.27,0.04-0.4c0.12-0.36,0.46-0.59,0.83-0.59c0.6,0,0.87,0.46,0.87,1.11v2.52h1.74v-2.7
					C13.05,2.95,12.19,2.25,11.11,2.25z"/>
				<path id="XMLID_18_" class="st20" d="M6.12,0.01C5.67-0.04,5.25,0.28,5.2,0.73c0,0.01,0,0.02,0,0.03
					C5.14,1.22,5.46,1.63,5.91,1.68c0.01,0,0.02,0,0.03,0h0.17c0.46,0.05,0.87-0.28,0.92-0.74c0,0,0-0.01,0-0.01
					C7.1,0.48,6.77,0.06,6.31,0.01c0,0-0.01,0-0.01,0C6.24,0,6.18,0,6.12,0.01z"/>
			</g>
			<g id="XMLID_13_" transform="translate(21.402 0.418)">
				<path id="XMLID_16_" class="st20" d="M10.37,0H7.04C6.01,0.01,5.18,0.86,5.19,1.89c0,0,0,0,0,0v3.25
					C5.18,6.17,6.01,7.02,7.04,7.03c0,0,0,0,0,0h3.33c1.03-0.01,1.86-0.86,1.85-1.89c0,0,0,0,0,0V1.89C12.23,0.86,11.4,0.01,10.37,0
					C10.37,0,10.37,0,10.37,0z M11.6,5.1c0,0.72-0.57,1.3-1.29,1.31h-3.2C6.4,6.41,5.82,5.82,5.82,5.1V1.95
					c0-0.72,0.57-1.3,1.29-1.31h3.2c0.72,0.01,1.29,0.6,1.29,1.31L11.6,5.1z"/>
				<path id="XMLID_15_" class="st20" d="M8.7,1.72c-1-0.02-1.83,0.77-1.85,1.77c-0.02,1,0.77,1.83,1.77,1.85
					c1,0.02,1.83-0.77,1.85-1.77V3.53C10.49,2.54,9.7,1.73,8.7,1.72C8.71,1.72,8.7,1.72,8.7,1.72L8.7,1.72z M8.7,4.69
					C8.06,4.71,7.52,4.2,7.51,3.55C7.5,2.91,8.01,2.38,8.65,2.36c0.64-0.01,1.18,0.5,1.19,1.14v0.03C9.85,4.16,9.34,4.69,8.7,4.69
					C8.7,4.69,8.7,4.69,8.7,4.69L8.7,4.69z"/>
				<circle id="XMLID_14_" class="st20" cx="10.57" cy="1.62" r="0.4"/>
			</g>
			<g id="Icones_2_">
				<g id="XMLID_11_" transform="translate(0 0)">
					<path id="XMLID_12_" class="st20" d="M8.39,3.94h-3.2V2.47h3.45L8.39,3.94z"/>
					<path id="Facebook_2_" class="st20" d="M5.94,1.49v5.9h1.47V1.72C7.4,1.6,7.48,1.49,7.6,1.48c0,0,0.01,0,0.01,0h1.05V0H7.52
						C5.9,0,5.94,1.29,5.94,1.49z"/>
				</g>
			</g>
		</g>
	</g>
</g>
</svg>
