<svg id="Layer_1" data-name="Layer 1" xmlns="http://www.w3.org/2000/svg" viewBox="0 0 758 152"><defs><style>.cls-1{fill:#002f68;}.cls-2{fill:#f1a300;}</style></defs><title>logo</title><path class="cls-1" d="M214.57,46.21q8.72,12,8.57,36.45H175.88q3.59,10.44,18.94,10.43,6.1,0,16.84-4l3.73-1.2v22.52a77.19,77.19,0,0,1-27.88,4.92,44.26,44.26,0,0,1-20.87-4.77A34.55,34.55,0,0,1,152.48,97a39.86,39.86,0,0,1-5.07-20.28q0-20.11,10.29-31.3t29.51-11.18Q205.85,34.21,214.57,46.21Zm-35.63,11q-3.06,3.06-4.1,9.47h21.62c-.6-4.57-1.72-7.81-3.36-9.69s-4-2.84-7.23-2.84A9.56,9.56,0,0,0,178.94,57.24Z"/><path class="cls-1" d="M247.29,114q-5.22-1.33-12.22-3.87v-23a45.59,45.59,0,0,0,11.48,6.56,37.61,37.61,0,0,0,14.61,3q4,0,5.29-1a3.66,3.66,0,0,0,1.27-3c0-1.59-1.4-2.91-4.18-4a61.84,61.84,0,0,0-11.48-2.76,20.79,20.79,0,0,1-12.6-7q-5.13-5.82-5.14-16.25,0-9.69,5-15.88A27.22,27.22,0,0,1,251.84,38a43.73,43.73,0,0,1,15.28-2.46,70.39,70.39,0,0,1,15.58,2.09,35.82,35.82,0,0,1,10.36,4.77l.15,20.12-5.29-3a46.77,46.77,0,0,0-8.43-3.73,26.79,26.79,0,0,0-8.2-1.34q-5.07,0-6.85,1.34a4.89,4.89,0,0,0,.59,8,42.32,42.32,0,0,0,7.9,2.76A75.74,75.74,0,0,1,284.64,70a18.29,18.29,0,0,1,7.82,6.55q3.44,4.78,3.43,13.57-.45,13.42-10.36,19.31t-26,5.89A49.15,49.15,0,0,1,247.29,114Z"/><path class="cls-1" d="M372.74,46.21q8.72,12,8.57,36.45H334.05Q337.64,93.1,353,93.09q6.11,0,16.84-4l3.73-1.2v22.52a77.19,77.19,0,0,1-27.88,4.92,44.26,44.26,0,0,1-20.87-4.77A34.55,34.55,0,0,1,310.65,97a39.86,39.86,0,0,1-5.07-20.28q0-20.11,10.29-31.3t29.51-11.18Q364,34.21,372.74,46.21Zm-35.63,11Q334,60.3,333,66.71h21.62c-.6-4.57-1.72-7.81-3.36-9.69s-4-2.84-7.23-2.84A9.56,9.56,0,0,0,337.11,57.24Z"/><path class="cls-1" d="M394.73,46a33.3,33.3,0,0,1,7.9-4.92,70.34,70.34,0,0,1,12.45-4.54,50.46,50.46,0,0,1,13-1.87q16.69,0,22.51,4.77V58.66a54,54,0,0,0-9.91-1.49q-6.93-.6-12.75-.6a36.92,36.92,0,0,0-6.11.3v56.2H394.73Z"/><path class="cls-1" d="M545.89,37.19l-31.45,75.88H487.31L455.85,37.19h29.37l17.29,45.47L517,37.19Z"/><path class="cls-1" d="M612.23,40.1q11.19,5.43,11,22l-.14,35.33q-.3,17.88-37.72,17.89-16.85,0-25.94-6.19t-9.09-21q0-9.84,6.56-16T577.05,66a39.21,39.21,0,0,1,10.21,1.42A40.7,40.7,0,0,1,596.58,71v-3q0-11.47-15.65-11.48a38,38,0,0,0-13.35,2.53,35.83,35.83,0,0,0-10.65,5.82V41.36q3.87-2.53,12.44-4.62a80.5,80.5,0,0,1,19-2.09A53.74,53.74,0,0,1,612.23,40.1ZM594.34,96.15a3.14,3.14,0,0,0,2.24-3.21V83.7a25.3,25.3,0,0,0-7.6-1q-6.42,0-9.1,1.56t-2.68,5.29a7,7,0,0,0,2.46,5.15A8.12,8.12,0,0,0,585.4,97Q592.11,97,594.34,96.15Z"/><path class="cls-2" d="M633.55,128.42q7.76.15,10.73-3t3-10V38.23h15.65l.15,77.52q0,26.08-29.52,26.09ZM646.82,11.7h16.55V25.86H646.82Z"/><path class="cls-2" d="M738.57,42.48q8.58,5.9,8.43,19V97.27q0,10.14-9,14.09t-25.49,4q-13.27,0-21.91-5.52T682,91.3q0-12.21,7.08-18.33t20-6.12q13.43,0,22.36,5.37V65.07q0-15.21-18.33-15.21a44.53,44.53,0,0,0-13.12,2,31.35,31.35,0,0,0-10.88,5.59V42.85q4.17-2.68,12.14-4.47a75.25,75.25,0,0,1,16.48-1.79Q730,36.59,738.57,42.48Zm-11,59.26a5.24,5.24,0,0,0,3.87-5.37V81.91a41.8,41.8,0,0,0-16.69-3.28q-8.5,0-12.9,3t-4.4,9a10.36,10.36,0,0,0,5,9.39,21.83,21.83,0,0,0,11.85,3.13Q723.74,103.08,727.62,101.74ZM719.86,10.8h15.66L721.36,28.39h-9.25Z"/><path class="cls-1" d="M23.8,74.2c-3.35,0-6.71,0-10.06,0-2.06,0-3.36-1.73-2.44-3.32a3.25,3.25,0,0,1,2.29-1.49c6.81-.12,13.63-.09,20.45-.06a2.44,2.44,0,0,1,2.63,2.36A2.48,2.48,0,0,1,34,74.19C30.62,74.23,27.21,74.21,23.8,74.2Z"/><path class="cls-1" d="M138,21.46c-6-7.14-16.4-11.3-32.3-11.3H56.47l-1.28,9.09H52.24c-1.89,0-2.88.8-2.92,2.31s1,2.49,2.9,2.5h2.3L43.05,105.63c-4.27,0-8.55,0-12.83,0-1.76,0-2.87,1-2.86,2.44s1.12,2.42,2.87,2.43c2.73,0,5.45,0,8.17,0h4l-.52,3.69H70.68l4.43-31.51H87.75l16.52,31.51h33.3L117.84,77.93c13.71-5.49,23.66-16.05,25.9-32l0-.3C145.22,35.43,143.23,27.4,138,21.46Zm-20.76,25h-5.57c-2.86,0-5.71,0-8.57,0-1.76,0-2.87,1-2.86,2.44s1.12,2.42,2.87,2.43c2.73,0,5.45,0,8.17,0h2.26c-2.31,5.46-8,8.76-16.2,8.76h-19l3.51-25h18.87c7,0,11.68,2.17,13.35,6.44h3.18c1.75,0,2.81,1,2.77,2.51S118.9,46.43,117.21,46.44Z"/></svg>