<?xml version="1.0" encoding="utf-8"?>
<!-- Generator: Adobe Illustrator 24.2.3, SVG Export Plug-In . SVG Version: 6.00 Build 0)  -->
<svg version="1.1" id="Layer_1" xmlns="http://www.w3.org/2000/svg" xmlns:xlink="http://www.w3.org/1999/xlink" x="0px" y="0px"
	 viewBox="0 0 202.67 36.29" style="enable-background:new 0 0 202.67 36.29;" xml:space="preserve">
<style type="text/css">
	.st0{fill:#FFFFFF;}
	.st1{fill:#F1A300;}
</style>
<g id="Logo" transform="translate(-131.994 -434.16)">
	<g id="Grupo_5" transform="translate(131.994 434.16)">
		<g id="Grupo_2" transform="translate(37.563 0.176)">
			<g id="Grupo_1">
				<path id="Caminho_1" class="st0" d="M18.49,9.87c1.6,2.2,2.39,5.55,2.36,10.04H7.84c0.66,1.92,2.39,2.88,5.21,2.88
					c1.6-0.11,3.17-0.48,4.64-1.11l1.03-0.33v6.2c-2.45,0.92-5.06,1.38-7.68,1.36c-1.99,0.04-3.97-0.41-5.75-1.31
					c-1.63-0.84-2.99-2.14-3.9-3.74c-0.95-1.7-1.44-3.63-1.4-5.58c0-3.7,0.94-6.57,2.83-8.62s4.6-3.08,8.13-3.08
					C14.38,6.57,16.89,7.67,18.49,9.87z M8.68,12.91c-0.64,0.73-1.03,1.64-1.13,2.61h5.95c-0.05-0.96-0.37-1.88-0.92-2.67
					c-0.51-0.55-1.24-0.83-1.99-0.78C9.87,12.07,9.17,12.37,8.68,12.91L8.68,12.91z"/>
				<path id="Caminho_2" class="st0" d="M27.5,28.52c-0.96-0.25-2.08-0.6-3.36-1.07v-6.32c0.96,0.75,2.03,1.36,3.16,1.81
					c1.27,0.54,2.64,0.82,4.02,0.82c0.5,0.05,1.01-0.05,1.46-0.29c0.24-0.2,0.37-0.51,0.35-0.82c0-0.44-0.38-0.8-1.15-1.09
					c-1.03-0.35-2.09-0.61-3.16-0.76c-1.35-0.21-2.58-0.89-3.47-1.93c-1.01-1.26-1.52-2.86-1.42-4.47
					c-0.07-1.57,0.42-3.12,1.37-4.37c0.89-1.12,2.09-1.96,3.45-2.42c1.35-0.47,2.78-0.7,4.21-0.68c1.45,0.03,2.89,0.23,4.29,0.58
					c1.02,0.28,1.98,0.73,2.85,1.31l0.04,5.54c-0.19-0.11-0.68-0.38-1.46-0.82c-0.74-0.42-1.51-0.76-2.32-1.03
					c-0.73-0.24-1.49-0.36-2.26-0.37c-0.65-0.06-1.31,0.07-1.89,0.37c-0.58,0.47-0.66,1.32-0.19,1.9c0.1,0.12,0.22,0.22,0.35,0.3
					c0.7,0.33,1.43,0.58,2.17,0.76c1.1,0.23,2.17,0.54,3.22,0.94c0.88,0.38,1.62,1.01,2.16,1.81c0.69,1.12,1.02,2.42,0.94,3.74
					c0.08,2.16-1.01,4.19-2.85,5.32c-2.2,1.17-4.67,1.73-7.16,1.62C29.74,28.92,28.61,28.79,27.5,28.52z"/>
				<path id="Caminho_3" class="st0" d="M62.05,9.87c1.6,2.2,2.39,5.55,2.36,10.04H51.39c0.66,1.92,2.39,2.88,5.21,2.88
					c1.6-0.11,3.17-0.48,4.64-1.11l1.03-0.33v6.2c-2.45,0.92-5.06,1.38-7.68,1.36c-1.99,0.04-3.97-0.41-5.75-1.31
					c-1.63-0.84-2.99-2.14-3.9-3.74c-0.95-1.7-1.44-3.63-1.4-5.58c0-3.7,0.94-6.57,2.83-8.62c1.89-2.05,4.6-3.08,8.13-3.08
					C57.93,6.57,60.45,7.67,62.05,9.87z M52.24,12.91c-0.64,0.73-1.03,1.64-1.13,2.61h5.95c-0.05-0.96-0.37-1.88-0.92-2.67
					c-0.51-0.55-1.24-0.83-1.99-0.78C53.42,12.07,52.73,12.37,52.24,12.91z"/>
				<path id="Caminho_4" class="st0" d="M68.1,9.81c0.66-0.55,1.39-1.01,2.17-1.36c1.1-0.52,2.25-0.94,3.43-1.25
					c1.17-0.33,2.38-0.5,3.59-0.51c3.07,0,5.13,0.44,6.2,1.31v5.3c-0.9-0.22-1.81-0.36-2.73-0.41c-1.27-0.11-2.44-0.17-3.51-0.17
					c-0.56-0.02-1.12,0.01-1.68,0.08v15.48H68.1L68.1,9.81z"/>
				<path id="Caminho_5" class="st0" d="M109.72,7.39l-8.66,20.89h-7.47L84.93,7.39h8.09l4.76,12.52l3.98-12.52H109.72z"/>
				<path id="Caminho_6" class="st0" d="M127.99,8.19c2.05,1,3.07,3.02,3.04,6.05l-0.04,9.73c-0.06,3.28-3.52,4.93-10.39,4.93
					c-3.09,0-5.47-0.57-7.14-1.7c-1.67-1.13-2.5-3.06-2.5-5.77c-0.06-1.66,0.6-3.27,1.81-4.41c1.2-1.13,3.05-1.7,5.54-1.7
					c0.95,0.01,1.9,0.14,2.81,0.39c0.89,0.23,1.76,0.57,2.57,1.01v-0.82c0-2.11-1.44-3.16-4.31-3.16c-1.26,0.01-2.5,0.25-3.67,0.7
					c-1.06,0.36-2.05,0.9-2.93,1.6V8.54c1.07-0.6,2.23-1.03,3.43-1.27c1.72-0.4,3.47-0.59,5.23-0.58
					C123.71,6.68,125.95,7.19,127.99,8.19z M123.07,23.62c0.39-0.12,0.64-0.48,0.62-0.88v-2.54c-0.68-0.2-1.38-0.3-2.09-0.29
					c-0.86-0.06-1.71,0.09-2.5,0.43c-0.5,0.31-0.79,0.87-0.74,1.46c0.01,0.55,0.26,1.06,0.68,1.42c0.42,0.41,0.99,0.64,1.58,0.64
					C121.44,23.89,122.26,23.81,123.07,23.62L123.07,23.62z"/>
				<path id="Caminho_7" class="st1" d="M133.86,32.51c1.64,0.42,3.31-0.56,3.74-2.2c0.12-0.45,0.13-0.91,0.04-1.37V7.67h4.31
					l0.04,21.35c0,4.79-2.71,7.18-8.13,7.18L133.86,32.51L133.86,32.51z M137.52,0.37h4.56v3.9h-4.56V0.37z"/>
				<path id="Caminho_8" class="st1" d="M162.78,8.84c1.57,1.08,2.34,2.83,2.32,5.23v9.85c0.11,1.69-0.89,3.26-2.46,3.88
					c-2.24,0.83-4.63,1.2-7.02,1.09c-2.12,0.08-4.21-0.44-6.03-1.52c-1.59-1.01-2.38-2.71-2.38-5.09c-0.14-1.89,0.57-3.74,1.95-5.05
					c1.58-1.21,3.54-1.81,5.52-1.68c2.15-0.08,4.28,0.43,6.16,1.48v-1.97c0-2.79-1.68-4.19-5.05-4.19c-1.23,0-2.44,0.19-3.61,0.55
					c-1.09,0.31-2.11,0.83-3,1.54V8.94c1.04-0.6,2.17-1.01,3.35-1.23c1.49-0.33,3.01-0.5,4.53-0.49
					C159.08,7.16,161.08,7.72,162.78,8.84z M159.76,25.16c0.66-0.18,1.11-0.79,1.07-1.48V19.7c-1.46-0.61-3.02-0.92-4.6-0.9
					c-1.24-0.08-2.47,0.21-3.55,0.82c-0.81,0.55-1.27,1.49-1.21,2.46c-0.05,1.05,0.47,2.04,1.37,2.59c0.98,0.59,2.12,0.89,3.26,0.86
					C157.34,25.59,158.57,25.46,159.76,25.16L159.76,25.16z M157.63,0.12h4.31l-3.9,4.84h-2.54L157.63,0.12z"/>
			</g>
		</g>
		<g id="Grupo_4" transform="translate(0)">
			<g id="Grupo_3">
				<path id="Caminho_9" class="st0" d="M3.53,17.75c-0.93,0-1.85,0.01-2.77,0c-0.57-0.01-0.92-0.48-0.67-0.91
					c0.14-0.22,0.37-0.37,0.63-0.41c1.88-0.03,3.75-0.02,5.63-0.01c0.37-0.03,0.69,0.24,0.72,0.61c0,0.01,0,0.02,0,0.03
					c0.01,0.38-0.29,0.69-0.67,0.7c-0.02,0-0.04,0-0.06,0C5.41,17.76,4.47,17.76,3.53,17.75z"/>
				<path id="Caminho_10" class="st0" d="M34.96,3.23c-1.65-1.96-4.52-3.11-8.89-3.11H12.52l-0.35,2.5h-0.82
					c-0.52,0-0.79,0.22-0.8,0.64c-0.01,0.44,0.27,0.68,0.8,0.69h0.63L8.83,26.4c-1.18,0-2.36-0.01-3.53,0
					c-0.49,0-0.79,0.27-0.79,0.67s0.31,0.67,0.79,0.67c0.75,0.01,1.5,0,2.25,0c0.36,0,0.73,0,1.09,0L8.5,28.76h7.94l1.22-8.68h3.48
					l4.55,8.68h9.17l-5.43-9.99c3.84-1.36,6.6-4.76,7.13-8.8l0.01-0.08C36.96,7.08,36.41,4.87,34.96,3.23z M29.25,10.11
					c-0.24,0-0.47,0-0.71,0h-0.83c-0.79,0-1.57,0-2.36,0c-0.49,0-0.79,0.27-0.79,0.67s0.31,0.67,0.79,0.67c0.75,0.01,1.5,0,2.25,0
					h0.63c-0.64,1.5-2.22,2.41-4.46,2.41h-5.24l0.97-6.88h5.2c1.92,0,3.22,0.6,3.67,1.77h0.88c0.37-0.05,0.71,0.21,0.76,0.58
					c0.05,0.37-0.21,0.71-0.58,0.76C29.37,10.11,29.31,10.11,29.25,10.11L29.25,10.11z"/>
			</g>
		</g>
	</g>
</g>
</svg>
