<?xml version="1.0" encoding="utf-8"?>
<!-- Generator: Adobe Illustrator 24.2.3, SVG Export Plug-In . SVG Version: 6.00 Build 0)  -->
<svg version="1.1" id="Layer_1" xmlns="http://www.w3.org/2000/svg" xmlns:xlink="http://www.w3.org/1999/xlink" x="0px" y="0px"
	 viewBox="0 0 576 868" style="enable-background:new 0 0 576 868;" xml:space="preserve">
<style type="text/css">
	.st0{fill:#E0E0E0;}
	.st1{fill:#F1A300;}
	.st2{fill:#FFCA30;}
	.st3{fill:#0A182F;}
	.st4{fill:#E5E5E5;}
	.st5{fill:#185DC2;}
	.st6{fill:#D5D6D5;}
</style>
<g id="Grupo_269" transform="translate(-647.899 -66)">
	<path id="Caminho_199" class="st0" d="M913.9,620.4c-3.8,12.9-8.7,25.4-14.8,37.3c-4.7,9.3-10.1,18.3-16.1,26.9
		c-13.3-6.6-28.3-9.1-43-7.3c-3,0.4-36.4,5.3-52.7,34.3c-6.2,11.2-8.9,24-7.7,36.7c-26.5-4.8-52.3,5.5-64.2,25.1
		c-11.6,19-5.6,39.2-4.3,43.2c-15.9-8.8-35.7-5.5-46.3,6.9c-12.2,14.3-7,34.4,3,44.8c13.9,14.5,42.8,15.8,64-1.9
		c22.8,40.7,66.6,63.3,108,57.2c37.1-5.5,58.7-32.1,64-39.1c2.5,2.9,37.2,42.7,91,37.2c41-4.2,64.5-31.7,69-37.2
		c49.4,39.7,104.4,38.4,123,16.2c16.3-19.5,3.2-53.6,1-59.1c25.6-12.1,31.6-39.5,21.7-52.7c-8.9-11.9-33.6-16-53.9-2.4
		c-1.6-18.9-10.9-36.3-25.7-48.1c-23.7-18.9-51.2-16-55.7-15.5c4.3-16.1-1.1-33.2-13.7-44.1c-14.7-12.5-36.9-14.6-54.8-4.9
		c-6.8-11.6-12.8-23.6-18-35.9c-3.3-7.9-6.2-15.6-8.6-22.8L913.9,620.4z"/>
	<path id="Caminho_200" class="st1" d="M898.8,552.2c0,0-13.6,77.7,48.9,117.8c0,0,59.9-31.2,46.8-117.8L898.8,552.2z"/>
	<path id="Caminho_201" class="st2" d="M912.3,552.2c0,0-10.4,64.3,35.4,88.1c0,0,46.1-21.4,34.9-88.1L912.3,552.2z"/>
	<path id="Caminho_202" class="st3" d="M888.8,526.2l6.7,29.9h104.4l4.2-29.9H888.8z"/>
	<path id="Caminho_203" class="st4" d="M872.8,148.6c0,0-86.3,113.2,12.2,377.5h128.1c0,0,94.1-236.8,8.7-377.5L872.8,148.6z"/>
	<path id="Caminho_204" class="st1" d="M872.8,148.6h149c-10.2-17.9-22.5-34.5-36.6-49.6c-11.4-12.1-23.8-23.2-37.2-33
		c-16.1,12.2-30.9,25.9-44.3,41C892.1,119.9,881.8,133.9,872.8,148.6z"/>
	<path id="Caminho_205" class="st5" d="M857.6,387.9c11.2,20.1,19.8,41.4,25.7,63.6c5.4,20.3,8.4,41.1,9,62
		c-21.7-2.3-43.6,1.4-63.4,10.6c-15.1,7.2-28.4,17.6-39,30.6c-1.4,1.4-3.5,1.7-5.3,1c-2-0.9-3-3-2.6-5c-5.1-29.3-1.7-59.5,9.8-86.9
		C810.6,419.2,844.8,395.8,857.6,387.9z"/>
	<path id="Caminho_206" class="st5" d="M1038.8,387.9c-11.2,20.1-19.8,41.4-25.7,63.6c-5.4,20.3-8.4,41.1-9,62
		c21.7-2.3,43.6,1.4,63.4,10.6c15.1,7.2,28.4,17.6,39,30.6c1.4,1.4,3.5,1.7,5.3,1c2-0.9,3-3,2.6-5c5.1-29.3,1.7-59.5-9.8-86.9
		C1085.8,419.2,1051.6,395.8,1038.8,387.9z"/>
	<ellipse id="Elipse_11" class="st3" cx="947.3" cy="252" rx="59.2" ry="56.4"/>
	<ellipse id="Elipse_12" class="st5" cx="947.3" cy="252" rx="43.2" ry="41.2"/>
	<path id="Caminho_207" class="st6" d="M830.2,759.5c1-1.8,2.2-3.4,3.5-5c0.6-0.8,1.3-1.6,2-2.3c0.7-0.8,1.4-1.5,2.2-2.2
		c3.1-2.9,6.5-5.3,10.3-7.3c3.8-2.1,7.9-3.6,12.1-4.6c1.1-0.2,2.1-0.5,3.2-0.7l3.3-0.5c1.1-0.1,2.2-0.2,3.3-0.2
		c1.1,0,2.2-0.2,3.3-0.1c4.4,0.1,8.8,0.6,13,1.8c4.2,1.1,8.2,2.8,12,4.9c3.7,2.1,7.1,4.6,10.1,7.5c3,2.8,5.5,6.1,7.5,9.6
		c-1.6-1.3-3.3-2.4-4.9-3.6c-0.9-0.5-1.7-1.1-2.5-1.6l-1.3-0.8l-1.3-0.7c-3.4-2-6.9-3.7-10.5-5.1c-3.6-1.4-7.2-2.5-11-3.2
		c-0.9-0.1-1.9-0.3-2.8-0.5s-1.9-0.2-2.8-0.3c-1.9-0.2-3.8-0.3-5.7-0.3c-3.8,0-7.6,0.3-11.3,0.9l-1.4,0.2c-0.5,0.1-0.9,0.2-1.4,0.3
		c-0.9,0.2-1.9,0.4-2.8,0.7l-2.7,0.8c-0.9,0.3-1.8,0.6-2.7,0.9c-3.6,1.4-7.2,3-10.6,4.9l-1.3,0.7l-1.3,0.8c-0.9,0.5-1.7,1-2.5,1.6
		C833.5,757.1,831.8,758.3,830.2,759.5z"/>
	<path id="Caminho_208" class="st6" d="M937.2,741.6c0.9-1.9,2-3.7,3.2-5.3c0.6-0.9,1.2-1.7,1.9-2.5c0.7-0.8,1.4-1.6,2.1-2.4
		c3-3.1,6.4-5.8,10-8.1c3.8-2.3,7.9-4.1,12.2-5.3c1.1-0.3,2.2-0.5,3.3-0.8c1.1-0.3,2.2-0.5,3.3-0.6c1.1-0.1,2.2-0.3,3.4-0.4l3.4-0.1
		l1.7,0c0.6,0,1.1,0.1,1.7,0.1l3.4,0.3l3.3,0.6c0.6,0.1,1.1,0.2,1.7,0.3l1.6,0.5c4.3,1.2,8.4,2.9,12.2,5.3c3.7,2.2,7.1,5,10.1,8.1
		c0.7,0.8,1.4,1.5,2.1,2.4l1,1.2c0.3,0.4,0.6,0.8,0.9,1.3c1.2,1.7,2.3,3.5,3.1,5.4c-3.1-2.7-6.3-5.2-9.7-7.4
		c-3.3-2.2-6.8-4.1-10.5-5.6c-0.9-0.4-1.8-0.8-2.7-1.1c-0.9-0.3-1.8-0.7-2.7-1c-0.9-0.3-1.9-0.5-2.8-0.8s-1.9-0.4-2.8-0.6l-1.4-0.3
		c-0.5-0.1-1-0.1-1.4-0.2l-2.9-0.4l-2.9-0.2c-0.5,0-1-0.1-1.4-0.1l-1.4,0l-2.9,0c-1,0.1-1.9,0.2-2.9,0.3c-1.9,0.2-3.8,0.5-5.7,0.9
		c-3.8,0.9-7.5,2.1-11.1,3.6C950.1,731.8,943.3,736.2,937.2,741.6z"/>
	<path id="Caminho_209" class="st6" d="M1003.6,797c3.7-7.7,9.6-14.2,17-18.6c7.7-4.7,16.5-7.2,25.6-7.4c0.6,0,1.1,0,1.7,0l1.7,0.1
		l1.7,0.1c0.6,0,1.1,0.1,1.7,0.2c1.1,0.2,2.2,0.3,3.4,0.5c1.1,0.3,2.2,0.5,3.3,0.8c4.3,1.2,8.5,2.9,12.3,5.2
		c3.7,2.2,7.1,4.9,10.1,8.1c1.5,1.5,2.8,3.2,4,4.9c1.2,1.7,2.3,3.5,3.2,5.4c-3.1-2.7-6.3-5.2-9.8-7.4c-3.3-2.2-6.8-4.1-10.5-5.6
		c-3.6-1.5-7.3-2.7-11.1-3.4c-1-0.2-1.9-0.3-2.9-0.5c-1-0.1-1.9-0.2-2.9-0.3c-0.5,0-1-0.1-1.4-0.2l-1.4-0.1l-1.4-0.1
		c-0.5,0-1,0-1.4,0c-7.8,0.1-15.5,1.8-22.6,5C1016.2,786.9,1009.5,791.5,1003.6,797z"/>
	<path id="Caminho_210" class="st6" d="M853.3,804c-5.7-5.3-12.2-9.7-19.3-13.1c-3.4-1.6-7-2.8-10.6-3.7c-0.9-0.2-1.8-0.4-2.7-0.6
		c-0.9-0.2-1.8-0.3-2.8-0.4c-0.9-0.1-1.8-0.3-2.8-0.3l-2.8-0.1c-0.9-0.1-1.9-0.1-2.8,0c-0.9,0-1.9,0-2.8,0.1
		c-1.9,0.2-3.7,0.4-5.5,0.7c-1.9,0.3-3.6,0.8-5.5,1.3c-1.8,0.6-3.6,1.1-5.3,1.9c-3.6,1.4-7,3.2-10.3,5.2c-3.4,2.1-6.6,4.4-9.6,6.9
		c0.9-1.8,1.9-3.5,3.1-5.1c0.6-0.8,1.2-1.6,1.9-2.4c0.6-0.8,1.4-1.5,2.1-2.3c2.9-3,6.3-5.6,9.9-7.7c0.9-0.5,1.8-1.1,2.8-1.5l2.9-1.3
		c2-0.8,4.1-1.5,6.2-2c2.1-0.5,4.3-0.9,6.5-1.2c1.1-0.1,2.2-0.1,3.3-0.2c1.1-0.1,2.2-0.1,3.3,0l3.3,0.2c0.5,0,1.1,0.1,1.6,0.2
		l1.6,0.3c2.2,0.3,4.3,0.8,6.4,1.5c1,0.3,2,0.7,3.1,1.1l1.5,0.6c0.5,0.2,1,0.5,1.5,0.7c1,0.5,1.9,0.9,2.9,1.4l2.7,1.7
		c3.5,2.3,6.7,5,9.5,8.1c0.7,0.8,1.4,1.5,2,2.4c0.6,0.8,1.2,1.6,1.8,2.5C851.5,800.4,852.5,802.1,853.3,804z"/>
</g>
</svg>
