<?xml version="1.0" encoding="utf-8"?>
<!-- Generator: Adobe Illustrator 24.2.3, SVG Export Plug-In . SVG Version: 6.00 Build 0)  -->
<svg version="1.1" id="Layer_1" xmlns="http://www.w3.org/2000/svg" xmlns:xlink="http://www.w3.org/1999/xlink" x="0px" y="0px"
	 viewBox="0 0 674 706" style="enable-background:new 0 0 674 706;" xml:space="preserve">
<style type="text/css">
	.st0{fill:url(#Elipse_2_1_);}
	.st1{fill:#D5D6D5;}
	.st2{fill:#E0E0E0;}
	.st3{fill:#243058;}
	.st4{fill:#E5E5E5;}
	.st5{fill:#F1A300;}
	.st6{fill:#185DC2;}
</style>
<g id="Grupo_266" transform="translate(-534 -117.99)">
	
		<radialGradient id="Elipse_2_1_" cx="-85.9633" cy="1012.6146" r="6.302" gradientTransform="matrix(37.744 0 0 -42 4115.6001 43332.0352)" gradientUnits="userSpaceOnUse">
		<stop  offset="0" style="stop-color:#E6E6E6"/>
		<stop  offset="1" style="stop-color:#FFFFFF"/>
	</radialGradient>
	<ellipse id="Elipse_2" class="st0" cx="871" cy="802.2" rx="337" ry="21"/>
	<g id="Grupo_265" transform="translate(681.121 117.99)">
		<path id="Caminho_168" class="st1" d="M163.6,584.7c-9.4-1.6-19.3-3.2-28.3-0.1s-16.6,12.7-13.9,21.9c-10.8-4.7-23.2-3.3-32.8,3.5
			c-5.1,3.7-9.3,9.5-9,15.9s6.6,12.3,12.7,10.5c-7.5-3.1-16.1,0.5-19.2,7.9c-1.7,4-1.5,8.6,0.5,12.4c3.8,7.3,13,10.1,21.2,9.5
			s15.9-3.8,23.9-5.6c3-0.7,6.1-1.1,9,0c2.9,1.2,4.9,3.8,7.1,6.1c17.5,19,47,20,72.6,16.5c6.8-0.9,13.8-2.2,19.4-6.2
			s9.4-11.3,7.2-17.8c10.6,7.5,23.8,10.2,36.7,11.9c11.7,1.5,24.8,2,34.1-5.2s10.2-25-0.9-29.1c7.1-0.2,10.9-9.7,8.2-16.3
			s-9.1-10.8-15.1-14.6c-16-9.8-35.6-20-52.4-11.8c-5.4-10.6-19.9-12.1-31.6-9.8s-23.6,6.8-35,3.4"/>
		<path id="Caminho_169" class="st2" d="M215.9,681.8c1.4,0.7,11.1,4.9,21.7,0.1c11.6-5.3,14.4-17,14.6-18.3
			c1.9,0.4,12.9,2.2,21.2-5c3.1-2.7,7.1-8.9,6.9-14.6c-0.2-5.8-5.1-11.3-9.7-9.7c4.5-1.9,8.2-5.4,10.3-9.8c2.2-4.9,2.4-11,0-15.6
			c-5.3-10.2-22.2-12.3-33.8-7.8c-6.4,2.6-11.9,7.1-15.6,13c-6.4-5-11.7-11.2-15.6-18.2c-5.3-9.5-8-20.3-7.8-31.2h-33.8
			c2,9.6,1.1,19.5-2.6,28.6c-2.9,7-7.3,13.2-13,18.2c-1.5-1.9-9.6-11.9-23.4-13c-2.6-0.2-18.4-1.5-26,10.4
			c-7.2,11.1-1.1,24.2-0.7,25c-0.7,1.5-7.3,16.8,0.7,29.6s27.4,18.1,44.8,9.5c6.5,6.5,14.6,11.3,23.4,14
			C195.9,692.1,211,684.6,215.9,681.8z"/>
		<path id="Caminho_170" class="st3" d="M125.9,558.4l7.8,36.3h120.5l4.8-36.3H125.9z"/>
		<path id="Caminho_171" class="st4" d="M107.4,100.9c0,0-99.6,137.2,14.1,457.5h147.9c0,0,108.6-287,10-457.5L107.4,100.9z"/>
		<path id="Caminho_172" class="st5" d="M107.4,100.9h172c-21.2-38.9-50.2-73-85.3-100.1C159.3,28.5,129.9,62.4,107.4,100.9z"/>
		<path id="Caminho_173" class="st6" d="M89.8,390.8c24.9,47,38.6,99.1,40,152.3c-25.1-2.8-50.5,1.7-73.2,12.9
			c-17.6,8.8-33,21.5-45,37.1c-2,2.1-5.4,2.2-7.6,0.2c-1.4-1.3-2-3.3-1.5-5.1c-5.9-35.5-2-71.9,11.3-105.3
			C35.6,428.7,75.1,400.4,89.8,390.8z"/>
		<path id="Caminho_174" class="st6" d="M299.1,390.8c-24.9,47-38.6,99.1-40,152.3c25.1-2.8,50.5,1.7,73.2,12.9
			c17.6,8.8,33,21.5,45,37.1c2,2.1,5.4,2.2,7.6,0.2c1.4-1.3,2-3.3,1.5-5.1c5.9-35.5,2-71.9-11.3-105.3
			C353.3,428.7,313.9,400.4,299.1,390.8z"/>
		<circle id="Elipse_3" class="st3" cx="193.4" cy="226.2" r="68.3"/>
		<circle id="Elipse_4" class="st6" cx="193.4" cy="226.2" r="49.9"/>
	</g>
</g>
</svg>
