<?xml version="1.0" encoding="utf-8"?>
<!-- Generator: Adobe Illustrator 24.2.3, SVG Export Plug-In . SVG Version: 6.00 Build 0)  -->
<svg version="1.1" id="Layer_1" xmlns="http://www.w3.org/2000/svg" xmlns:xlink="http://www.w3.org/1999/xlink" x="0px" y="0px"
	 viewBox="0 0 688 686" style="enable-background:new 0 0 688 686;" xml:space="preserve">
<style type="text/css">
	.st0{fill:#243058;}
	.st1{fill:#F1A300;}
	.st2{fill:#EAC64B;}
	.st3{fill:#0A182F;}
	.st4{fill:#FFFFFF;}
	.st5{fill:#185DC2;}
</style>
<g id="Grupo_270" transform="translate(-1286.214 -161.048)">
	<path id="Caminho_211" class="st0" d="M1383.1,832.9c-7.3-8.1-129.5-149.5-76.7-328.7c39.4-133.9,159.8-231.9,299-241.9
		c166.7-12,305.7,106.2,347.6,240.8c42.6,136.9-24.4,260.4-28.1,266.9c-14.4,25.5-32.2,48.8-52.9,69.4c-0.1-1.6-2.7-25.9-24.8-37.4
		c-21.5-11.2-42.1-0.4-43.7,0.5c0.1-2.6,1-29.7-21.1-47.2c-19.6-15.5-42-11.5-45.3-10.8c4.8-21.3-8.6-42.4-29.9-47.2
		c-9.7-2.2-19.8-0.6-28.4,4.3c-6.4-7.3-11.7-15.5-15.7-24.4c-7.2-16.5-9.8-34.7-7.6-52.6c-4.9-2-20.5-7.8-37.8-1.6
		c-5.5,2-10.6,4.9-15.1,8.7c-3.9,12.3-8.1,24.8-12.4,37.4c-4.4,12.9-8.9,25.6-13.5,38c-22.9-10.9-49.6-7.9-68,7.6
		c-22,18.6-21.7,46.2-21.6,49.9c-17-4.9-35.2,0.4-47,13.6c-11.4,12.9-14.7,31.1-8.6,47.2C1415.7,815.9,1395.3,819.1,1383.1,832.9
		L1383.1,832.9z"/>
	<path id="Caminho_212" class="st1" d="M1608.4,565.8c0,0-32,62,7.1,112.1c0,0,56.4-10.7,69.5-87.1L1608.4,565.8z"/>
	<path id="Caminho_213" class="st2" d="M1619.2,569.3c0,0-25.8,51.5,4.3,83.5c0,0,42.7-6,51.9-65.2L1619.2,569.3z"/>
	<path id="Caminho_214" class="st3" d="M1607.5,541.3l-2.8,27l83.4,27.2l11.5-24.1L1607.5,541.3z"/>
	<path id="Caminho_215" class="st4" d="M1697.4,218.8c0,0-99.8,73-93,321.5l102.4,33.4c0,0,139.7-175.2,109.7-316.1L1697.4,218.8z"
		/>
	<path id="Caminho_216" class="st1" d="M1697.5,218.8l119.1,38.8c-5.9-31.8-18.3-62.1-36.6-88.9
		C1749.6,180.1,1721.6,197.1,1697.5,218.8L1697.5,218.8z"/>
	<path id="Caminho_217" class="st5" d="M1620.2,416.5c6.7,38.3,4.5,77.7-6.5,115c-30.3-13.9-65.6-10.9-93,8.1
		c-1.5,0.8-3.3,0.6-4.5-0.6c-1.3-1.3-1.6-3.3-0.7-4.9C1523.8,477.5,1564.9,431.3,1620.2,416.5z"/>
	<path id="Caminho_218" class="st5" d="M1765.1,463.8c-27.8,27.1-49,60.3-61.9,96.9c32.7,6.6,59.5,30,70.6,61.4
		c0.9,1.9,3.2,2.8,5.2,1.8c1.3-0.6,2.1-1.8,2.2-3.2C1807.5,569.9,1801.2,508.2,1765.1,463.8L1765.1,463.8z"/>
	<ellipse id="Elipse_13" class="st0" cx="1728.9" cy="325.4" rx="49.8" ry="50"/>
	<ellipse id="Elipse_14" class="st5" cx="1728.9" cy="325.4" rx="36.3" ry="36.5"/>
	<path id="Caminho_219" class="st0" d="M1530.2,777.2c2-2.9,4.3-5.5,6.9-7.8c2.7-2.3,5.6-4.3,8.7-6c6.3-3.3,13.4-5,20.5-5
		c1.8,0,3.6,0.2,5.3,0.4c0.9,0.1,1.8,0.2,2.6,0.4s1.7,0.4,2.6,0.6c0.9,0.2,1.7,0.5,2.6,0.8c0.8,0.3,1.7,0.6,2.5,0.9
		c0.8,0.3,1.6,0.7,2.4,1l2.4,1.2c3.1,1.7,6,3.8,8.6,6.1c2.6,2.3,4.9,5,6.8,7.9c-4.8-4.8-10.4-8.7-16.6-11.6
		c-6-2.8-12.6-4.3-19.2-4.3c-3.3-0.1-6.6,0.3-9.8,1l-1.2,0.2c-0.4,0.1-0.8,0.2-1.2,0.3c-0.8,0.2-1.6,0.4-2.4,0.7l-2.4,0.8
		c-0.8,0.3-1.5,0.6-2.3,0.9C1540.8,768.7,1535.1,772.5,1530.2,777.2z"/>
	<path id="Caminho_220" class="st0" d="M1620.2,761.3c1.8-3.1,4-5.9,6.6-8.4c2.6-2.5,5.4-4.8,8.5-6.7c3.1-1.9,6.5-3.3,10-4.4
		c0.9-0.2,1.8-0.4,2.7-0.6c0.9-0.2,1.8-0.4,2.7-0.4c0.9-0.1,1.8-0.2,2.7-0.3l2.7-0.1l1.4,0c0.5,0,0.9,0.1,1.4,0.1l2.7,0.2l2.7,0.5
		c0.4,0.1,0.9,0.2,1.3,0.3l1.3,0.4c3.5,1,6.9,2.4,10,4.3c3.1,1.9,6,4.1,8.5,6.6c2.5,2.5,4.7,5.4,6.5,8.5
		c-4.6-5.2-10.2-9.6-16.4-12.7c-0.8-0.4-1.5-0.8-2.3-1.1c-0.8-0.3-1.6-0.7-2.4-1l-2.4-0.8c-0.8-0.3-1.6-0.4-2.5-0.6l-1.2-0.3
		c-0.4-0.1-0.8-0.1-1.2-0.2l-2.5-0.4l-2.5-0.2c-0.4,0-0.8-0.1-1.3-0.1l-1.3,0l-2.5,0c-0.8,0.1-1.7,0.2-2.5,0.3
		c-1.7,0.2-3.3,0.5-5,0.9c-3.3,0.8-6.5,2-9.5,3.5C1630.4,751.8,1624.9,756.1,1620.2,761.3z"/>
	<path id="Caminho_221" class="st0" d="M1676,810.5c5.4-9.6,14.3-16.7,24.9-19.8c3.5-1,7.2-1.5,10.9-1.6c0.5,0,0.9,0,1.4,0l1.4,0.1
		l1.4,0.1c0.5,0,0.9,0.1,1.4,0.2c0.9,0.1,1.8,0.2,2.7,0.4c0.9,0.2,1.8,0.4,2.7,0.6c3.5,1,6.9,2.4,10.1,4.2c3.1,1.8,6,4.1,8.6,6.6
		c2.6,2.5,4.8,5.4,6.6,8.5c-4.6-5.3-10.2-9.6-16.4-12.7c-6.1-3-12.9-4.6-19.7-4.5c-3.4,0-6.8,0.5-10.1,1.3c-3.3,0.8-6.5,2-9.6,3.6
		C1686,800.7,1680.5,805.1,1676,810.5z"/>
	<path id="Caminho_222" class="st0" d="M1549.7,816.6c-4.4-5.1-9.6-9.4-15.5-12.7c-2.9-1.5-6-2.8-9.1-3.7c-0.8-0.2-1.6-0.4-2.4-0.6
		c-0.8-0.2-1.6-0.3-2.4-0.4c-0.8-0.1-1.6-0.3-2.4-0.3l-2.4-0.1c-0.8-0.1-1.6-0.1-2.4,0c-0.8,0-1.6,0-2.4,0.1
		c-1.6,0.2-3.2,0.4-4.8,0.8c-1.6,0.3-3.2,0.7-4.7,1.3c-1.5,0.6-3.1,1.1-4.6,1.9c-6.1,2.9-11.5,7-16.1,11.9c1.8-3,4-5.7,6.5-8.1
		c2.5-2.4,5.4-4.5,8.4-6.2c0.8-0.4,1.5-0.9,2.3-1.2l2.4-1.1c1.7-0.6,3.3-1.2,5.1-1.6c1.7-0.4,3.5-0.7,5.2-0.9
		c0.9-0.1,1.8-0.1,2.7-0.2c0.9-0.1,1.8-0.1,2.7,0l2.7,0.2c0.9,0,1.8,0.2,2.6,0.4c1.8,0.3,3.5,0.7,5.2,1.2c3.4,1.1,6.6,2.6,9.6,4.5
		C1541.4,805.3,1546.3,810.5,1549.7,816.6z"/>
	<ellipse id="Elipse_15" class="st4" cx="1565.9" cy="385" rx="5.4" ry="5.4"/>
	<ellipse id="Elipse_16" class="st4" cx="1893.4" cy="463.8" rx="5.4" ry="5.4"/>
	<ellipse id="Elipse_17" class="st4" cx="1841.6" cy="550.4" rx="3.8" ry="3.8"/>
	<ellipse id="Elipse_18" class="st4" cx="1458.6" cy="375.4" rx="3.8" ry="3.8"/>
	<ellipse id="Elipse_19" class="st4" cx="1820.8" cy="721.3" rx="3.8" ry="3.8"/>
	<ellipse id="Elipse_20" class="st4" cx="1898.8" cy="637.7" rx="2.7" ry="2.7"/>
	<ellipse id="Elipse_21" class="st4" cx="1358" cy="489" rx="2.7" ry="2.7"/>
	<ellipse id="Elipse_22" class="st4" cx="1341.5" cy="697.3" rx="2.7" ry="2.7"/>
	<ellipse id="Elipse_23" class="st4" cx="1448.4" cy="702.7" rx="2.7" ry="2.7"/>
	<ellipse id="Elipse_24" class="st4" cx="1560.2" cy="565.6" rx="2.7" ry="2.7"/>
	<ellipse id="Elipse_25" class="st4" cx="1358" cy="582.3" rx="1.9" ry="1.9"/>
	<ellipse id="Elipse_26" class="st4" cx="1454.5" cy="573.9" rx="5.7" ry="5.7"/>
</g>
</svg>
