<svg width="350" height="300" viewBox="0 0 350 300" fill="none" xmlns="http://www.w3.org/2000/svg">
<path d="M183.285 0C120.038 0 68.5832 67.2897 68.5832 150C68.5832 232.71 120.038 300 183.285 300C246.533 300 297.987 232.71 297.987 150C297.987 67.2897 246.531 0 183.285 0ZM183.285 220.94C153.325 220.94 129.038 189.18 129.038 150C129.038 110.82 153.325 79.0597 183.285 79.0597C213.245 79.0597 237.531 110.82 237.531 150C237.531 189.18 213.243 220.94 183.285 220.94Z" fill="#001533"/>
<path d="M69.5233 73.6708C69.682 72.7912 69.5233 71.8801 69.5233 70.9393V21.5269C69.5233 14.9788 65.4622 9.66797 60.4551 9.66797C55.4479 9.66797 51.3868 14.9788 51.3868 21.5269V57.086L43.8299 57.09V21.5269C43.8299 14.9788 39.7688 9.66797 34.7617 9.66797C29.7545 9.66797 25.6934 14.9788 25.6934 21.5269V57.0998L18.1365 57.1038V21.5269C18.1365 14.9788 14.0754 9.66797 9.06826 9.66797C4.06107 9.66797 0 14.9788 0 21.5269V70.9393C0 71.3385 0.267514 71.7318 0.297741 72.1192C0.269025 72.6647 0.377844 73.2083 0.377844 73.7439C0.377844 86.5792 8.37151 96.6337 18.4161 96.6337H21.1593V267.6C21.1593 277.953 27.6008 286.377 35.5173 286.377C43.4339 286.377 49.8754 277.953 49.8754 267.6V96.6337H51.8659C61.9105 96.6337 69.6503 86.5792 69.6503 73.7439C69.6518 73.7202 69.5233 73.6945 69.5233 73.6708Z" fill="#001533"/>
<path d="M349.884 144.279L350 143.785C349.988 143.487 348.901 113.604 347.301 83.6522C343.831 18.7343 342.035 16.9475 338.718 13.7001L336.287 11.3086L333.014 11.8106C327.697 12.6921 312.855 19.1138 312.855 32.0064V141.105V145.088V267.6C312.855 277.953 319.296 286.377 327.213 286.377C335.13 286.377 341.571 277.953 341.571 267.6V158.514C346.105 155.411 349.884 150.8 349.884 144.279Z" fill="#001533"/>
</svg>
