<?xml version="1.0" encoding="utf-8"?>
<!-- Generator: Adobe Illustrator 24.2.3, SVG Export Plug-In . SVG Version: 6.00 Build 0)  -->
<svg version="1.1" id="Layer_1" xmlns="http://www.w3.org/2000/svg" xmlns:xlink="http://www.w3.org/1999/xlink" x="0px" y="0px"
	 viewBox="0 0 71 71" style="enable-background:new 0 0 71 71;" xml:space="preserve">
<style type="text/css">
	.st0{fill:#006FFF;}
</style>
<g id="Grupo_249">
	<path id="Caminho_138" class="st0" d="M41.87,34.4h2.35V19.03C41.01,25.09,41.55,32,41.87,34.4z"/>
	<path id="Caminho_139" class="st0" d="M35.5,0C15.89,0,0,15.89,0,35.5S15.89,71,35.5,71S71,55.11,71,35.5S55.11,0,35.5,0z
		 M33.9,24.62c0,0.6-0.49,1.09-1.09,1.09c0,0,0,0,0,0h-2.47v29.88c0,0.6-0.49,1.09-1.09,1.09c-0.6,0-1.09-0.49-1.09-1.09V25.71
		h-2.47c-0.6,0-1.09-0.49-1.09-1.09c0,0,0,0,0,0V15.4c0-0.6,0.49-1.09,1.09-1.09c0.6,0,1.09,0.49,1.09,1.09v8.12h1.38V15.4
		c0-0.6,0.49-1.09,1.09-1.09c0.6,0,1.09,0.49,1.09,1.09v8.12h1.38V15.4c0-0.6,0.49-1.09,1.09-1.09c0.6,0,1.09,0.49,1.09,1.09
		L33.9,24.62L33.9,24.62L33.9,24.62z M46.4,55.59c0,0.6-0.49,1.09-1.09,1.09c-0.6,0-1.09-0.49-1.09-1.09l0,0v-19h-3.28
		c-0.52,0-0.97-0.36-1.07-0.87c-0.1-0.5-2.42-12.38,4.6-21c0.38-0.47,1.07-0.54,1.54-0.16c0.25,0.21,0.4,0.52,0.4,0.85L46.4,55.59
		L46.4,55.59z"/>
</g>
</svg>
