<svg width="350" height="300" viewBox="0 0 350 300" fill="none" xmlns="http://www.w3.org/2000/svg">
<path d="M122.114 193.316C124.185 187.728 123.838 181.948 121.164 177.001C118.583 172.284 114.139 168.887 108.652 167.509C106.904 167.059 105.087 166.839 103.258 166.83C93.0494 166.763 83.4887 173.269 80.0162 182.657C77.9559 188.226 78.3032 194.024 80.9769 198.952C83.5581 203.698 87.9912 207.076 93.4776 208.454C95.2254 208.904 97.0427 209.124 98.8715 209.143C109.069 209.21 118.653 202.694 122.114 193.316Z" fill="#001533"/>
<path d="M237.884 210.408C239.62 210.417 241.368 210.217 243.058 209.834C248.602 208.571 253.139 205.298 255.871 200.619C256.704 199.203 257.271 197.681 257.7 196.141C247.375 196.839 228.566 193.988 214.341 191.442C214.526 192.304 214.63 193.174 214.931 194.026C218.149 203.604 227.571 210.322 237.884 210.408Z" fill="#001533"/>
<path d="M310.561 115.093C310.561 115.093 300.989 25.0026 224.364 7.30973L183.922 104.319C180.82 99.0656 176.85 92.4248 172.417 85.0759C192.569 52.5801 219.943 8.95557 219.943 8.95557L222.675 6.95568C221.262 6.65905 219.862 6.31457 218.392 6.05621C175.843 -1.32139 143.573 3.74054 122.31 10.3239C131.801 25.8638 186.446 115.39 188.055 119.562C198.715 137.877 217.663 149.321 229.862 155.216C235.442 142.336 238.625 124.605 235.742 100.214C233.682 90.291 228.543 33.6146 240.87 23.7012C273.789 46.0924 270.351 90.0135 270.351 91.9942C270.351 93.2573 298.119 119.486 297.447 123.447C299.114 130.882 285.109 132.805 280.305 137.906C289.901 151.513 265.223 156.613 265.223 156.613C265.223 156.613 289.206 165.397 267.284 175.301C273.546 186.094 274.587 189.214 268.962 192.448C268.719 196.639 267.538 200.697 265.374 204.409C261.299 211.385 254.378 216.294 245.87 218.227C243.243 218.83 240.511 219.126 237.791 219.117C222.802 219.011 209.225 209.653 204.768 196.343C204.606 195.826 204.491 195.309 204.34 194.764L202.176 189.128C198.136 188.305 195.636 187.759 195.636 187.759C195.636 187.759 197.719 187.233 200.926 185.798L174.547 116.768L157.52 109.649L118.571 11.5487C101.256 17.4049 92.2969 23.9213 92.2969 23.9213C92.2969 23.9213 76.1848 -0.527175 59.3783 0.00868163C71.2077 7.12792 81.7523 24.5528 81.8796 24.8782C82.0069 25.1939 57.156 2.87934 40.6157 6.06578C59.8876 11.0894 69.784 26.0456 69.784 26.0456C69.784 26.0456 44.4701 10.6684 24.8046 14.2472C42.0626 18.4479 59.5172 28.8014 59.5172 28.8014C59.5172 28.8014 29.5619 18.7445 13.2415 27.9593C30.7656 27.5383 48.3361 32.2079 48.3361 32.2079C48.3361 32.2079 10.7182 31.3563 5.27807 42.6189C21.3438 37.8727 43.7062 39.6429 43.7062 39.6429C43.7062 39.6429 1.45842 46.2263 0 58.9816C12.4197 51.049 34.8399 47.9296 34.8399 47.9296C34.8399 47.9296 3.3451 64.0818 1.15747 75.9855C14.8156 62.3881 37.2822 53.0298 37.2822 53.0298C37.2822 53.0298 20.8229 92.8459 22.3624 94.2716C23.9018 95.6782 29.3882 98.3862 30.592 104.041C31.7958 109.716 -0.763932 141.025 2.82423 146.116C6.42397 151.206 22.8717 154.201 22.8717 154.201C22.8717 154.201 16.3667 166.373 18.7626 169.502C21.1586 172.631 24.4111 172.488 24.4111 172.488C24.4111 172.488 19.9548 173.339 21.8415 176.727C23.7282 180.124 32.606 184.898 34.1802 186.094C21.8068 214.753 35.083 216.581 85.8034 215.27C79.5068 212.667 74.4602 208.285 71.3466 202.553C67.6195 195.673 67.1103 187.712 69.9229 180.133C73.9857 169.167 84.2987 161.072 96.2786 158.794C98.8597 157.991 134.533 146.632 151.478 119.524C151.733 118.931 153.11 116.538 155.321 112.921L165.137 117.026L165.09 117.046L132.299 195.931C132.299 195.931 132.288 195.864 132.23 195.74C132.207 195.797 132.195 195.845 132.172 195.912C128.827 204.964 121.187 212.084 111.858 215.567C133.144 216.169 150.888 216.303 150.888 216.303L177.371 217.366C177.371 217.366 188.703 266.358 153.469 284.529C201.03 282.204 202.06 225.863 202.06 225.863C202.06 225.863 203.09 270.501 184.837 288.347C214.92 280.912 213.357 233.929 213.357 233.929C213.357 233.929 232.397 292.596 162.718 299.6C278.418 306.184 279.425 229.241 279.425 229.241C279.425 229.241 288.153 237.958 303.837 236.465C278.638 219.471 283.523 172.708 283.523 172.708C283.523 172.708 288.141 228.389 313.351 229.461C310.191 226.322 307.795 221.633 305.955 216.074C347.763 210.275 328.248 156.565 328.248 156.565C328.248 156.565 345.471 161.656 345.228 183.128C366.34 167.799 310.561 115.093 310.561 115.093ZM305.978 215.968C297.91 191.233 301.313 149.302 301.313 149.302C301.313 149.302 338.538 180.937 305.978 215.968Z" fill="#001533"/>
<path d="M167.324 108.286C170.393 108.286 172.88 106.229 172.88 103.693C172.88 101.156 170.393 99.0996 167.324 99.0996C164.256 99.0996 161.769 101.156 161.769 103.693C161.769 106.229 164.256 108.286 167.324 108.286Z" fill="#001533"/>
</svg>
