<?xml version="1.0" encoding="utf-8"?>
<!-- Generator: Adobe Illustrator 24.2.3, SVG Export Plug-In . SVG Version: 6.00 Build 0)  -->
<svg version="1.1" id="Layer_1" xmlns="http://www.w3.org/2000/svg" xmlns:xlink="http://www.w3.org/1999/xlink" x="0px" y="0px"
	 viewBox="0 0 75.12 85.92" style="enable-background:new 0 0 75.12 85.92;" xml:space="preserve">
<style type="text/css">
	.st0{fill:#006FFF;}
</style>
<g>
	<g id="Grupo_250" transform="translate(2.626 0)">
		<path id="Caminho_147" class="st0" d="M34.85-0.13c-1.28,0-2.55,0.06-3.8,0.18C36.78,1.85,41.8,5.4,45.42,10.2l4.99,6.51
			c6.17,3.94,9.92,10.74,9.97,18.06v12.01c5.9-5.01,9.51-11.75,9.49-19.16C69.82,12.23,54.14-0.19,34.85-0.13z"/>
		<path id="Caminho_148" class="st0" d="M9.49,34.77c0-12.01,10.13-21.78,22.58-21.78h5.72c1.21,0,2.42,0.09,3.61,0.28
			C31.72,0.63,14.14,0.82,4.7,13.8C1.67,17.86,0.02,22.78,0,27.84c0.02,7.36,3.63,14.04,9.49,19L9.49,34.77z"/>
	</g>
	<path id="Caminho_149" class="st0" d="M62.83,71.84h-16v-8.1c6.67-3,11.01-9.58,11.13-16.89V34.77c0-9.24-7.85-16.73-17.53-16.73
		H34.7c-9.68,0-17.53,7.49-17.53,16.73v12.08c0.12,7.31,4.46,13.9,11.13,16.89v8.1h-16C5.51,71.84,0,76.59,0,82.45v3.57l75.12,0.02
		v-3.6c0-5.86-5.5-10.61-12.3-10.61L62.83,71.84z M30.05,45.8c1.23-0.66,2.76-0.19,3.42,1.04c1.2,2.26,4.01,3.12,6.27,1.91
		c0.81-0.43,1.48-1.1,1.91-1.91c0.68-1.22,2.22-1.65,3.44-0.97c1.18,0.66,1.63,2.14,1.02,3.35c-2.52,4.72-8.39,6.5-13.11,3.99
		c-1.69-0.9-3.08-2.29-3.99-3.99C28.36,47.99,28.82,46.46,30.05,45.8z"/>
</g>
</svg>
