<?xml version="1.0" encoding="utf-8"?>
<!-- Generator: Adobe Illustrator 24.2.3, SVG Export Plug-In . SVG Version: 6.00 Build 0)  -->
<svg version="1.1" id="Layer_1" xmlns="http://www.w3.org/2000/svg" xmlns:xlink="http://www.w3.org/1999/xlink" x="0px" y="0px"
	 viewBox="0 0 40 40" style="enable-background:new 0 0 40 40;" xml:space="preserve">
<style type="text/css">
	.st0{fill:#002F68;}
	.st1{fill:none;stroke:#FFFFFF;stroke-width:2;stroke-linecap:round;stroke-linejoin:round;}
</style>
<g>
	<g id="botão_usuário_" transform="translate(-1658 -42)">
		<path id="Retângulo_2" class="st0" d="M1678,42L1678,42c11.05,0,20,8.95,20,20l0,0c0,11.05-8.95,20-20,20l0,0
			c-11.05,0-20-8.95-20-20l0,0C1658,50.95,1666.95,42,1678,42z"/>
	</g>
	<g id="Grupo_281" transform="translate(8 8)">
		<path id="Caminho_172" class="st1" d="M20,21v-2c0-2.21-1.79-4-4-4H8c-2.21,0-4,1.79-4,4v2"/>
		<circle id="Elipse_2" class="st1" cx="12" cy="7" r="4"/>
	</g>
</g>
</svg>
